<svg width="14" height="14" viewBox="0 0 14 14" fill="none" xmlns="http://www.w3.org/2000/svg">
<g id="Icons / Paragraph / alignLeft">
<path id="Vector" d="M12.25 9.91667C12.25 10.2388 11.9888 10.5 11.6667 10.5H9.33333C9.01117 10.5 8.75 10.2388 8.75 9.91667C8.75 9.5945 9.01117 9.33333 9.33333 9.33333H11.6667C11.9888 9.33333 12.25 9.5945 12.25 9.91667ZM11.6667 6.41667C11.9888 6.41667 12.25 6.67783 12.25 7C12.25 7.32217 11.9888 7.58333 11.6667 7.58333H5.83333C5.51117 7.58333 5.25 7.32217 5.25 7C5.25 6.67783 5.51117 6.41667 5.83333 6.41667H11.6667ZM11.6667 3.5C11.9888 3.5 12.25 3.76117 12.25 4.08333C12.25 4.4055 11.9888 4.66667 11.6667 4.66667H2.33333C2.01117 4.66667 1.75 4.4055 1.75 4.08333C1.75 3.76117 2.01117 3.5 2.33333 3.5H11.6667Z" fill="#2A80B3"/>
</g>
</svg>
