<svg width="14" height="14" viewBox="0 0 14 14" fill="none" xmlns="http://www.w3.org/2000/svg">
<g id="Icons / Paragraph / alignCenter">
<path id="Vector" d="M5.25 9.91667C5.25 10.2388 5.51117 10.5 5.83333 10.5H8.16667C8.48883 10.5 8.75 10.2388 8.75 9.91667C8.75 9.5945 8.48883 9.33333 8.16667 9.33333H5.83333C5.51117 9.33333 5.25 9.5945 5.25 9.91667ZM4.08333 6.41667C3.76117 6.41667 3.5 6.67783 3.5 7C3.5 7.32217 3.76117 7.58333 4.08333 7.58333H9.91667C10.2388 7.58333 10.5 7.32217 10.5 7C10.5 6.67783 10.2388 6.41667 9.91667 6.41667H4.08333ZM2.33333 3.5C2.01117 3.5 1.75 3.76117 1.75 4.08333C1.75 4.4055 2.01117 4.66667 2.33333 4.66667H11.6667C11.9888 4.66667 12.25 4.4055 12.25 4.08333C12.25 3.76117 11.9888 3.5 11.6667 3.5H2.33333Z" fill="#2A80B3"/>
</g>
</svg>
