<svg width="14" height="14" viewBox="0 0 14 14" fill="none" xmlns="http://www.w3.org/2000/svg">
<g id="Icons / Paragraph / alignLeft">
<path id="Vector" d="M1.75 9.91667C1.75 10.2388 2.01117 10.5 2.33333 10.5H4.66667C4.98883 10.5 5.25 10.2388 5.25 9.91667C5.25 9.5945 4.98883 9.33333 4.66667 9.33333H2.33333C2.01117 9.33333 1.75 9.5945 1.75 9.91667ZM2.33333 6.41667C2.01117 6.41667 1.75 6.67783 1.75 7C1.75 7.32217 2.01117 7.58333 2.33333 7.58333H8.16667C8.48883 7.58333 8.75 7.32217 8.75 7C8.75 6.67783 8.48883 6.41667 8.16667 6.41667H2.33333ZM2.33333 3.5C2.01117 3.5 1.75 3.76117 1.75 4.08333C1.75 4.4055 2.01117 4.66667 2.33333 4.66667H11.6667C11.9888 4.66667 12.25 4.4055 12.25 4.08333C12.25 3.76117 11.9888 3.5 11.6667 3.5H2.33333Z" fill="#2A80B3"/>
</g>
</svg>
