<svg width="14" height="14" viewBox="0 0 14 14" fill="none" xmlns="http://www.w3.org/2000/svg">
<g id="Icons / Formatting / bold">
<path id="Vector" d="M8.89606 6.88317C9.18168 6.70925 9.42271 6.471 9.59995 6.18742C9.77718 5.90385 9.88572 5.58279 9.91689 5.24984C9.9223 4.94877 9.86835 4.64958 9.75811 4.36937C9.64788 4.08916 9.48351 3.83341 9.27442 3.61673C9.06532 3.40005 8.81559 3.22669 8.53948 3.10654C8.26337 2.98639 7.9663 2.92182 7.66523 2.9165H3.87939V11.0832H7.96273C8.24923 11.0801 8.53233 11.0207 8.79586 10.9082C9.05939 10.7957 9.29818 10.6325 9.4986 10.4277C9.69902 10.223 9.85715 9.98073 9.96395 9.71485C10.0708 9.44898 10.1241 9.16468 10.1211 8.87817V8.80817C10.1213 8.40399 10.0061 8.00814 9.7891 7.66714C9.57211 7.32615 9.26229 7.05417 8.89606 6.88317ZM5.04606 4.08317H7.49606C7.74466 4.07548 7.98967 4.144 8.1982 4.27955C8.40674 4.4151 8.56883 4.61119 8.66273 4.8415C8.75774 5.14938 8.72701 5.48235 8.57726 5.76763C8.42751 6.05292 8.17092 6.26733 7.86356 6.364C7.7442 6.39898 7.62044 6.41666 7.49606 6.4165H5.04606V4.08317ZM7.72939 9.9165H5.04606V7.58317H7.72939C7.97799 7.57548 8.223 7.644 8.43154 7.77955C8.64008 7.9151 8.80217 8.11119 8.89606 8.3415C8.99107 8.64938 8.96034 8.98235 8.81059 9.26763C8.66085 9.55292 8.40425 9.76733 8.09689 9.864C7.97753 9.89898 7.85377 9.91666 7.72939 9.9165Z" fill="#2A80B3"/>
</g>
</svg>
