<svg width="14" height="14" viewBox="0 0 14 14" fill="none" xmlns="http://www.w3.org/2000/svg">
<g id="Icons / Content / insertImage">
<path id="Vector" d="M8.02683 6.41683L9.80016 9.3335H4.20016L5.60016 7.0585L6.58016 8.6335L7.9335 6.41683H8.02683ZM5.36683 6.41683C5.74016 6.41683 6.06683 6.0085 6.06683 5.54183C6.06683 5.07516 5.74016 4.66683 5.36683 4.66683C4.9935 4.66683 4.66683 5.07516 4.66683 5.54183C4.66683 6.0085 4.9935 6.41683 5.36683 6.41683ZM11.6668 3.50016V10.5002C11.6668 11.1418 11.2468 11.6668 10.7335 11.6668H3.26683C2.7535 11.6668 2.3335 11.1418 2.3335 10.5002V3.50016C2.3335 2.8585 2.7535 2.3335 3.26683 2.3335H10.7335C11.2468 2.3335 11.6668 2.8585 11.6668 3.50016ZM10.7335 5.1335V3.50016H3.26683V10.5002H10.7335V5.1335Z" fill="#2A80B3"/>
</g>
</svg>
