<svg width="14" height="14" viewBox="0 0 14 14" fill="none" xmlns="http://www.w3.org/2000/svg">
<g id="Icons / Content / insertMore">
<path id="Vector" d="M9.62516 7.58317H6.12516V11.0832H4.9585V7.58317H1.4585V6.4165H4.9585V2.9165H6.12516V6.4165H9.62516V7.58317ZM12.5418 10.2082C12.5418 10.3812 12.4905 10.5504 12.3944 10.6943C12.2982 10.8382 12.1616 10.9503 12.0017 11.0166C11.8418 11.0828 11.6659 11.1001 11.4961 11.0664C11.3264 11.0326 11.1705 10.9493 11.0481 10.8269C10.9257 10.7045 10.8424 10.5486 10.8086 10.3789C10.7749 10.2091 10.7922 10.0332 10.8584 9.87332C10.9247 9.71344 11.0368 9.57678 11.1807 9.48063C11.3246 9.38449 11.4938 9.33317 11.6668 9.33317C11.8989 9.33317 12.1215 9.42536 12.2855 9.58945C12.4496 9.75355 12.5418 9.97611 12.5418 10.2082ZM12.5418 7.87484C12.5418 8.0479 12.4905 8.21707 12.3944 8.36096C12.2982 8.50485 12.1616 8.617 12.0017 8.68323C11.8418 8.74946 11.6659 8.76679 11.4961 8.73302C11.3264 8.69926 11.1705 8.61593 11.0481 8.49356C10.9257 8.37118 10.8424 8.21527 10.8086 8.04554C10.7749 7.87581 10.7922 7.69987 10.8584 7.53999C10.9247 7.3801 11.0368 7.24345 11.1807 7.1473C11.3246 7.05115 11.4938 6.99984 11.6668 6.99984C11.8989 6.99984 12.1215 7.09202 12.2855 7.25612C12.4496 7.42021 12.5418 7.64277 12.5418 7.87484ZM12.5418 5.5415C12.5418 5.71456 12.4905 5.88373 12.3944 6.02763C12.2982 6.17152 12.1616 6.28367 12.0017 6.3499C11.8418 6.41613 11.6659 6.43345 11.4961 6.39969C11.3264 6.36593 11.1705 6.28259 11.0481 6.16022C10.9257 6.03785 10.8424 5.88194 10.8086 5.71221C10.7749 5.54247 10.7922 5.36654 10.8584 5.20666C10.9247 5.04677 11.0368 4.91011 11.1807 4.81397C11.3246 4.71782 11.4938 4.6665 11.6668 4.6665C11.8989 4.6665 12.1215 4.75869 12.2855 4.92279C12.4496 5.08688 12.5418 5.30944 12.5418 5.5415Z" fill="#2A80B3"/>
</g>
</svg>
