<svg width="14" height="14" viewBox="0 0 14 14" fill="none" xmlns="http://www.w3.org/2000/svg">
<g id="Icons / Content / insertLink">
<path id="Vector" d="M6.4165 9.91683H4.08317C3.30962 9.91683 2.56776 9.60954 2.02078 9.06256C1.47379 8.51558 1.1665 7.77371 1.1665 7.00016C1.1665 6.22661 1.47379 5.48475 2.02078 4.93777C2.56776 4.39079 3.30962 4.0835 4.08317 4.0835H6.4165V5.25016H4.08317C3.61904 5.25016 3.17392 5.43454 2.84573 5.76273C2.51755 6.09091 2.33317 6.53603 2.33317 7.00016C2.33317 7.46429 2.51755 7.90941 2.84573 8.2376C3.17392 8.56579 3.61904 8.75016 4.08317 8.75016H6.4165V9.91683ZM9.9165 4.0835H7.58317V5.25016H9.9165C10.3806 5.25016 10.8258 5.43454 11.1539 5.76273C11.4821 6.09091 11.6665 6.53603 11.6665 7.00016C11.6665 7.46429 11.4821 7.90941 11.1539 8.2376C10.8258 8.56579 10.3806 8.75016 9.9165 8.75016H7.58317V9.91683H9.9165C10.6901 9.91683 11.4319 9.60954 11.9789 9.06256C12.5259 8.51558 12.8332 7.77371 12.8332 7.00016C12.8332 6.22661 12.5259 5.48475 11.9789 4.93777C11.4319 4.39079 10.6901 4.0835 9.9165 4.0835ZM9.33317 6.41683H4.6665V7.5835H9.33317V6.41683Z" fill="#2A80B3"/>
</g>
</svg>
