<svg width="14" height="14" viewBox="0 0 14 14" fill="none" xmlns="http://www.w3.org/2000/svg">
<g id="Icons / Formatting / italic">
<path id="Vector" d="M6.85999 5.24984H8.02666L6.74333 11.0832H5.57666L6.85999 5.24984ZM7.83999 2.9165C7.72462 2.9165 7.61184 2.95072 7.51591 3.01481C7.41998 3.07891 7.34521 3.17002 7.30106 3.27661C7.25691 3.3832 7.24536 3.50048 7.26787 3.61364C7.29038 3.7268 7.34593 3.83074 7.42751 3.91232C7.50909 3.9939 7.61303 4.04945 7.72619 4.07196C7.83935 4.09447 7.95664 4.08292 8.06323 4.03877C8.16982 3.99462 8.26092 3.91985 8.32502 3.82392C8.38912 3.72799 8.42333 3.61521 8.42333 3.49984C8.42333 3.34513 8.36187 3.19675 8.25247 3.08736C8.14308 2.97796 7.9947 2.9165 7.83999 2.9165Z" fill="#2A80B3"/>
</g>
</svg>
