<svg width="14" height="14" viewBox="0 0 14 14" fill="none" xmlns="http://www.w3.org/2000/svg">
<path d="M7.875 9.91683C7.875 10.3835 7.46667 10.7918 7 10.7918C6.53333 10.7918 6.125 10.3835 6.125 9.91683C6.125 9.45016 6.53333 9.04183 7 9.04183C7.46667 9.04183 7.875 9.45016 7.875 9.91683ZM7.875 7.00016C7.875 7.46683 7.46667 7.87516 7 7.87516C6.53333 7.87516 6.125 7.46683 6.125 7.00016C6.125 6.5335 6.53333 6.12516 7 6.12516C7.46667 6.12516 7.875 6.5335 7.875 7.00016ZM7.875 4.0835C7.875 4.55016 7.46667 4.9585 7 4.9585C6.53333 4.9585 6.125 4.55016 6.125 4.0835C6.125 3.61683 6.53333 3.2085 7 3.2085C7.46667 3.2085 7.875 3.61683 7.875 4.0835Z" fill="#2A80B3"/>
</svg>
