<svg width="14" height="14" viewBox="0 0 14 14" fill="none" xmlns="http://www.w3.org/2000/svg">
<g id="Icons / Paragraph / paragraphMore">
<path id="Vector" d="M4.48128 2.91682C3.9331 2.90795 3.39843 3.08723 2.96641 3.42479C2.53439 3.76234 2.2311 4.23776 2.10712 4.77182C1.98221 5.37789 2.10317 6.00876 2.44339 6.52565C2.78361 7.04254 3.31522 7.40312 3.92128 7.52807L3.93703 7.53098C4.09408 7.56595 4.25448 7.58355 4.41537 7.58348V11.0835H5.58204V4.08348H6.7487V11.0835H7.91537V4.08348H9.08203V2.91682H4.48128ZM3.22712 5.25015C3.22712 4.94073 3.35003 4.64399 3.56883 4.42519C3.78762 4.2064 4.08437 4.08348 4.39378 4.08348V6.41682C4.08437 6.41682 3.78762 6.2939 3.56883 6.07511C3.35003 5.85632 3.22712 5.55957 3.22712 5.25015ZM11.9421 10.2032C11.9421 10.3763 11.8908 10.5455 11.7947 10.6894C11.6985 10.8333 11.5619 10.9454 11.402 11.0116C11.2421 11.0779 11.0661 11.0952 10.8964 11.0614C10.7267 11.0277 10.5708 10.9443 10.4484 10.822C10.326 10.6996 10.2427 10.5437 10.2089 10.3739C10.1752 10.2042 10.1925 10.0283 10.2587 9.86839C10.325 9.7085 10.4371 9.57184 10.581 9.4757C10.7249 9.37955 10.8941 9.32823 11.0671 9.32823C11.2992 9.32823 11.5217 9.42042 11.6858 9.58452C11.8499 9.74861 11.9421 9.97117 11.9421 10.2032ZM11.9421 7.8699C11.9421 8.04296 11.8908 8.21213 11.7947 8.35602C11.6985 8.49992 11.5619 8.61207 11.402 8.6783C11.2421 8.74452 11.0661 8.76185 10.8964 8.72809C10.7267 8.69433 10.5708 8.61099 10.4484 8.48862C10.326 8.36625 10.2427 8.21034 10.2089 8.0406C10.1752 7.87087 10.1925 7.69494 10.2587 7.53505C10.325 7.37517 10.4371 7.23851 10.581 7.14236C10.7249 7.04622 10.8941 6.9949 11.0671 6.9949C11.2992 6.9949 11.5217 7.08709 11.6858 7.25118C11.8499 7.41528 11.9421 7.63784 11.9421 7.8699ZM11.9421 5.53657C11.9421 5.70963 11.8908 5.8788 11.7947 6.02269C11.6985 6.16658 11.5619 6.27874 11.402 6.34496C11.2421 6.41119 11.0661 6.42852 10.8964 6.39475C10.7267 6.36099 10.5708 6.27766 10.4484 6.15529C10.326 6.03292 10.2427 5.877 10.2089 5.70727C10.1752 5.53754 10.1925 5.36161 10.2587 5.20172C10.325 5.04183 10.4371 4.90518 10.581 4.80903C10.7249 4.71289 10.8941 4.66157 11.0671 4.66157C11.2992 4.66157 11.5217 4.75375 11.6858 4.91785C11.8499 5.08194 11.9421 5.3045 11.9421 5.53657Z" fill="#2A80B3"/>
</g>
</svg>
