<svg width="14" height="14" viewBox="0 0 14 14" fill="none" xmlns="http://www.w3.org/2000/svg">
<g id="Icons / Content / smile">
<path id="Vector" d="M6.99475 1.75001C5.95662 1.75104 4.94211 2.05983 4.07944 2.63734C3.21677 3.21485 2.54468 4.03515 2.14813 4.99455C1.75157 5.95396 1.64836 7.00939 1.85152 8.02744C2.05469 9.0455 2.55511 9.98047 3.28955 10.7142C4.02398 11.4479 4.95945 11.9474 5.97771 12.1495C6.99596 12.3517 8.05129 12.2474 9.0103 11.8499C9.96931 11.4524 10.7889 10.7794 11.3656 9.9162C11.9422 9.05296 12.25 8.03813 12.25 7.00001C12.2503 6.31003 12.1146 5.62676 11.8506 4.9893C11.5865 4.35185 11.1993 3.77272 10.7112 3.28508C10.2231 2.79743 9.64357 2.41084 9.00585 2.14744C8.36814 1.88403 7.68473 1.74898 6.99475 1.75001ZM7 11.0833C6.1924 11.0833 5.40292 10.8439 4.73142 10.3952C4.05992 9.94649 3.53655 9.30876 3.22749 8.56263C2.91844 7.8165 2.83757 6.99548 2.99513 6.20339C3.15269 5.4113 3.54158 4.68372 4.11265 4.11265C4.68371 3.54159 5.41129 3.15269 6.20338 2.99513C6.99547 2.83758 7.81649 2.91844 8.56263 3.2275C9.30876 3.53656 9.94649 4.05993 10.3952 4.73143C10.8439 5.40293 11.0833 6.1924 11.0833 7.00001C11.0835 7.53628 10.978 8.06733 10.7728 8.5628C10.5677 9.05828 10.2669 9.50848 9.88768 9.88769C9.50848 10.2669 9.05828 10.5677 8.5628 10.7728C8.06732 10.978 7.53627 11.0835 7 11.0833ZM8.81125 8.05001H9.688C9.47708 8.59134 9.10764 9.05637 8.62802 9.38423C8.1484 9.7121 7.58097 9.88751 7 9.88751C6.41903 9.88751 5.8516 9.7121 5.37198 9.38423C4.89237 9.05637 4.52292 8.59134 4.312 8.05001H5.18875C5.37144 8.36903 5.63516 8.63414 5.95321 8.81852C6.27126 9.00289 6.63237 9.1 7 9.1C7.36763 9.1 7.72874 9.00289 8.0468 8.81852C8.36485 8.63414 8.62856 8.36903 8.81125 8.05001ZM4.375 5.68751C4.375 5.53175 4.42119 5.3795 4.50772 5.24999C4.59425 5.12049 4.71724 5.01955 4.86114 4.95995C5.00504 4.90035 5.16338 4.88475 5.31614 4.91514C5.4689 4.94552 5.60921 5.02052 5.71935 5.13066C5.82948 5.24079 5.90448 5.38111 5.93487 5.53387C5.96526 5.68663 5.94966 5.84497 5.89006 5.98887C5.83045 6.13277 5.72952 6.25576 5.60001 6.34229C5.47051 6.42882 5.31826 6.47501 5.1625 6.47501C4.95364 6.47501 4.75334 6.39204 4.60566 6.24435C4.45797 6.09667 4.375 5.89636 4.375 5.68751ZM8.05 5.68751C8.05 5.53175 8.09619 5.3795 8.18272 5.24999C8.26925 5.12049 8.39224 5.01955 8.53614 4.95995C8.68004 4.90035 8.83838 4.88475 8.99114 4.91514C9.1439 4.94552 9.28421 5.02052 9.39435 5.13066C9.50448 5.24079 9.57948 5.38111 9.60987 5.53387C9.64026 5.68663 9.62466 5.84497 9.56506 5.98887C9.50545 6.13277 9.40452 6.25576 9.27501 6.34229C9.14551 6.42882 8.99325 6.47501 8.8375 6.47501C8.62864 6.47501 8.42834 6.39204 8.28066 6.24435C8.13297 6.09667 8.05 5.89636 8.05 5.68751Z" fill="#2A80B3"/>
</g>
</svg>
