<svg width="14" height="14" viewBox="0 0 14 14" fill="none" xmlns="http://www.w3.org/2000/svg">
<g id="Icons / Formatting / textMore">
<path id="Vector" d="M7.90413 11.0832H9.0708L6.15413 2.9165H4.98747L2.0708 11.0832H3.23747L4.05413 8.74984H7.02913L7.90413 11.0832ZM4.46247 7.58317L5.5708 4.54984L6.67913 7.58317H4.46247ZM11.9291 10.2082C11.9291 10.3812 11.8778 10.5504 11.7817 10.6943C11.6855 10.8382 11.5489 10.9503 11.389 11.0166C11.2291 11.0828 11.0532 11.1001 10.8834 11.0664C10.7137 11.0326 10.5578 10.9493 10.4354 10.8269C10.313 10.7045 10.2297 10.5486 10.1959 10.3789C10.1622 10.2091 10.1795 10.0332 10.2457 9.87332C10.312 9.71344 10.4241 9.57678 10.568 9.48063C10.7119 9.38449 10.8811 9.33317 11.0541 9.33317C11.2862 9.33317 11.5088 9.42536 11.6729 9.58945C11.8369 9.75355 11.9291 9.97611 11.9291 10.2082ZM11.9291 7.87484C11.9291 8.0479 11.8778 8.21707 11.7817 8.36096C11.6855 8.50485 11.5489 8.617 11.389 8.68323C11.2291 8.74946 11.0532 8.76679 10.8834 8.73302C10.7137 8.69926 10.5578 8.61593 10.4354 8.49356C10.313 8.37118 10.2297 8.21527 10.1959 8.04554C10.1622 7.87581 10.1795 7.69987 10.2457 7.53999C10.312 7.3801 10.4241 7.24345 10.568 7.1473C10.7119 7.05115 10.8811 6.99984 11.0541 6.99984C11.2862 6.99984 11.5088 7.09202 11.6729 7.25612C11.8369 7.42021 11.9291 7.64277 11.9291 7.87484ZM11.9291 5.5415C11.9291 5.71456 11.8778 5.88373 11.7817 6.02763C11.6855 6.17152 11.5489 6.28367 11.389 6.3499C11.2291 6.41613 11.0532 6.43345 10.8834 6.39969C10.7137 6.36593 10.5578 6.28259 10.4354 6.16022C10.313 6.03785 10.2297 5.88194 10.1959 5.71221C10.1622 5.54247 10.1795 5.36654 10.2457 5.20666C10.312 5.04677 10.4241 4.91011 10.568 4.81397C10.7119 4.71782 10.8811 4.6665 11.0541 4.6665C11.2862 4.6665 11.5088 4.75869 11.6729 4.92279C11.8369 5.08688 11.9291 5.30944 11.9291 5.5415Z" fill="#2A80B3"/>
</g>
</svg>
