<svg width="14" height="14" viewBox="0 0 14 14" fill="none" xmlns="http://www.w3.org/2000/svg">
<g id="Icons / Formatting / underline">
<path id="Vector" d="M11.0832 11.6665V12.8332H2.9165V11.6665H11.0832ZM9.33317 7.70859C9.31396 8.09358 9.19967 8.46781 9.00052 8.79785C8.80136 9.12789 8.52354 9.40344 8.19189 9.59989C7.86024 9.79634 7.48508 9.90757 7.09994 9.92363C6.71481 9.93969 6.33169 9.86008 5.98484 9.69192C5.58504 9.51896 5.24599 9.23058 5.01112 8.86372C4.77625 8.49686 4.65625 8.06824 4.6665 7.63275V2.91942H3.49984V7.70859C3.51957 8.25774 3.66833 8.79453 3.93408 9.27551C4.19983 9.75649 4.57509 10.1681 5.02949 10.4771C5.4839 10.7861 6.00467 10.9838 6.54966 11.0541C7.09465 11.1244 7.64855 11.0654 8.1665 10.8819C8.85548 10.6523 9.45325 10.2088 9.87289 9.61611C10.2925 9.02337 10.5122 8.31223 10.4998 7.58609V2.91942H9.33317V7.70859ZM9.33317 2.9165H10.4998H9.33317ZM4.6665 2.9165H3.49984H4.6665Z" fill="#2A80B3"/>
</g>
</svg>
