<svg width="44" height="36" viewBox="0 0 44 36" fill="none" xmlns="http://www.w3.org/2000/svg">
<path d="M31.0305 9.12472C31.421 10.3449 30.7377 11.6562 29.5594 12.161L20.3011 16.1247C21.6196 15.5603 23.1588 16.2404 23.6069 17.6399C23.9978 18.8601 23.3144 20.1718 22.1362 20.6762L21.1904 21.081C22.5092 20.5166 24.0488 21.1958 24.497 22.5957C24.8872 23.8163 24.2042 25.1275 23.0259 25.632L22.0801 26.0369C23.3993 25.4721 24.9386 26.152 25.3863 27.552C25.7766 28.7722 25.0939 30.0834 23.9161 30.5878L21.3808 31.6737C21.334 31.6936 21.2857 31.7103 21.2371 31.724L7.40932 35.5199C6.33385 35.8157 5.20506 35.2716 4.76547 34.2464L0.180534 23.5463C-0.207285 22.6418 0.0438614 21.5897 0.79809 20.9578L2.88482 19.2086C3.14687 18.9891 3.35479 18.7123 3.49303 18.3991L8.09941 7.96102C8.60132 6.61117 10.1394 5.92967 11.5022 6.52243C12.693 7.04048 13.2489 8.42637 12.8806 9.67147L11.4267 14.5876L27.7245 7.60986C29.0434 7.04509 30.5823 7.7252 31.0305 9.12472ZM39.5669 9.2629C42.0114 9.2629 44 7.27525 44 4.83133C44 2.38792 42.0114 0.400146 39.5669 0.400146C37.122 0.400146 35.1334 2.38781 35.1334 4.83133C35.1334 7.27515 37.1219 9.2629 39.5669 9.2629ZM44 16.6412C44 19.0846 42.0114 21.0724 39.5669 21.0724C37.122 21.0724 35.1334 19.0847 35.1334 16.6412C35.1334 14.1977 37.1219 12.2101 39.5669 12.2101C42.0111 12.2096 44 14.1977 44 16.6412ZM42.3253 16.6412C42.3253 15.1206 41.0878 13.8836 39.5669 13.8836C38.0455 13.8836 36.8081 15.1206 36.8081 16.6412C36.8081 18.1615 38.0455 19.3984 39.5669 19.3984C41.0878 19.3984 42.3253 18.1615 42.3253 16.6412ZM44 28.4503C44 30.8941 42.0114 32.8819 39.5669 32.8819C37.122 32.8819 35.1334 30.8942 35.1334 28.4503C35.1334 26.0069 37.1219 24.0191 39.5669 24.0191C42.0111 24.0191 44 26.0072 44 28.4503ZM42.3253 28.4503C42.3253 26.93 41.0878 25.6931 39.5669 25.6931C38.0455 25.6931 36.8081 26.93 36.8081 28.4503C36.8081 29.971 38.0455 31.2079 39.5669 31.2079C41.0878 31.2083 42.3253 29.9714 42.3253 28.4503Z" fill="url(#paint0_linear_102_366)"/>
<defs>
<linearGradient id="paint0_linear_102_366" x1="0" y1="18.0001" x2="44" y2="18.0001" gradientUnits="userSpaceOnUse">
<stop stop-color="#00FC9E"/>
<stop offset="1" stop-color="#1C7EF0"/>
</linearGradient>
</defs>
</svg>
