<svg width="44" height="44" viewBox="0 0 44 44" fill="none" xmlns="http://www.w3.org/2000/svg">
<path d="M22 0C23.1046 0 24 0.89543 24 2V19.172C24 19.6225 24.2114 20.0511 24.5858 20.2929L32.5858 25.2929C33.3679 25.7929 33.5929 26.8536 33.0929 27.6357C32.5929 28.4178 31.5322 28.6428 30.7501 28.1428L22.7501 23.1428C22.3848 22.9152 22 22.4762 22 22V2C22 0.89543 22.8954 0 24 0H22ZM22 44C20.8954 44 20 43.1046 20 42V24.828C20 24.3775 19.7886 23.9489 19.4142 23.7071L11.4142 18.7071C10.6321 18.2071 10.4071 17.1464 10.9071 16.3643C11.4071 15.5822 12.4678 15.3572 13.2499 15.8572L21.2499 20.8572C21.6152 21.0848 22 21.5238 22 22V42C22 43.1046 21.1046 44 20 44H22ZM39.0711 4.92893C40.8431 6.70096 40.8431 9.51472 39.0711 11.2867L32.0711 18.2867C31.3001 19.0576 29.9999 19.0576 29.2289 18.2867C28.4579 17.5157 28.4579 16.2155 29.2289 15.4445L36.2289 8.44446C37.0001 7.67243 38.3002 7.67243 39.0711 8.44446ZM4.92893 39.0711C3.15689 37.2991 3.15689 34.4853 4.92893 32.7133L11.9289 25.7133C12.6999 24.9423 14 24.9423 14.771 25.7133C15.542 26.4843 15.542 27.7845 14.771 28.5555L7.771 35.5555C6.999 36.3276 5.69887 36.3276 4.92893 35.5555Z" fill="url(#paint0_linear_102_366)"/>
<defs>
<linearGradient id="paint0_linear_102_366" x1="0" y1="22" x2="44" y2="22" gradientUnits="userSpaceOnUse">
<stop stop-color="#00FC9E"/>
<stop offset="1" stop-color="#1C7EF0"/>
</linearGradient>
</defs>
</svg>
