<svg width="35" height="35" viewBox="0 0 35 35" fill="none" xmlns="http://www.w3.org/2000/svg">
<rect x="1.88843" y="1.94043" width="32" height="32" rx="16" fill="white" fill-opacity="0.06"/>
<rect x="1.38843" y="1.44043" width="33" height="33" rx="16.5" stroke="white" stroke-opacity="0.1"/>
<path d="M24.5453 12.2836C24.5453 11.7313 24.0976 11.2836 23.5453 11.2836L14.5453 11.2836C13.993 11.2836 13.5453 11.7313 13.5453 12.2836C13.5453 12.8359 13.993 13.2836 14.5453 13.2836L22.5453 13.2836L22.5453 21.2836C22.5453 21.8359 22.993 22.2836 23.5453 22.2836C24.0976 22.2836 24.5453 21.8359 24.5453 21.2836L24.5453 12.2836ZM12.9387 24.3044L24.2524 12.9907L22.8382 11.5765L11.5245 22.8902L12.9387 24.3044Z" fill="white"/>
</svg>
