<svg width="54" height="54" viewBox="0 0 54 54" fill="none" xmlns="http://www.w3.org/2000/svg">
<rect x="1.08998" y="0.744761" width="52.1163" height="52.1163" rx="26.0581" stroke="#2A80B3" stroke-width="1.03347" stroke-dasharray="5.02 5.02"/>
<path d="M26.7069 16.9287C26.4121 16.9288 26.1294 17.0459 25.921 17.2543C25.7125 17.4628 25.5954 17.7455 25.5953 18.0403L25.5953 25.2503L18.3853 25.2503C18.0905 25.2503 17.8078 25.3675 17.5994 25.5759C17.391 25.7843 17.2738 26.067 17.2738 26.3618C17.2738 26.6566 17.391 26.9393 17.5994 27.1477C17.8078 27.3562 18.0905 27.4733 18.3853 27.4733L25.5953 27.4733L25.5953 34.6834C25.5954 34.9782 25.7125 35.2609 25.921 35.4693C26.1294 35.6777 26.4121 35.7949 26.7069 35.7949C27.0017 35.7949 27.2844 35.6777 27.4928 35.4693C27.7012 35.2609 27.8184 34.9782 27.8184 34.6834L27.8184 27.4733L35.0284 27.4733C35.3232 27.4733 35.6059 27.3562 35.8144 27.1477C36.0228 26.9393 36.1399 26.6566 36.14 26.3618C36.1399 26.067 36.0228 25.7843 35.8144 25.5759C35.6059 25.3675 35.3232 25.2503 35.0284 25.2503L27.8184 25.2503L27.8184 18.0403C27.8184 17.7455 27.7012 17.4628 27.4928 17.2543C27.2844 17.0459 27.0017 16.9288 26.7069 16.9287Z" fill="#2A80B3"/>
</svg>
