<svg width="54" height="54" viewBox="0 0 54 54" fill="none" xmlns="http://www.w3.org/2000/svg">
<rect x="0.563975" y="1.18531" width="52.1163" height="52.1163" rx="26.0581" stroke="#01FF9D" strokeWidth="1.03347" stroke-dasharray="5.02 5.02"/>
<path d="M26.1807 17.3693C25.8859 17.3693 25.6032 17.4864 25.3948 17.6949C25.1863 17.9033 25.0692 18.186 25.0692 18.4808L25.0692 25.6908L17.8591 25.6908C17.5644 25.6909 17.2817 25.808 17.0732 26.0164C16.8648 26.2249 16.7477 26.5076 16.7476 26.8024C16.7477 27.0972 16.8648 27.3798 17.0732 27.5883C17.2817 27.7967 17.5644 27.9139 17.8591 27.9139L25.0692 27.9139L25.0692 35.1239C25.0692 35.4187 25.1863 35.7014 25.3948 35.9098C25.6032 36.1183 25.8859 36.2354 26.1807 36.2355C26.4755 36.2354 26.7582 36.1183 26.9666 35.9098C27.1751 35.7014 27.2922 35.4187 27.2922 35.1239L27.2922 27.9139L34.5023 27.9139C34.797 27.9139 35.0797 27.7967 35.2882 27.5883C35.4966 27.3798 35.6137 27.0972 35.6138 26.8024C35.6137 26.5076 35.4966 26.2249 35.2882 26.0164C35.0797 25.808 34.797 25.6909 34.5023 25.6908L27.2922 25.6908L27.2922 18.4808C27.2922 18.186 27.1751 17.9033 26.9666 17.6949C26.7582 17.4864 26.4755 17.3693 26.1807 17.3693Z" fill="#01FF9D"/>
</svg>
