<svg width="24" height="26" viewBox="0 0 24 26" fill="none" xmlns="http://www.w3.org/2000/svg">
<path d="M18.168 1.30713H5.83199C2.61599 1.30713 0 3.92336 0 7.13964V19.4767C0 22.693 2.61599 25.3092 5.83199 25.3092H18.168C21.384 25.3092 24 22.693 24 19.4767V7.13964C24 3.92336 21.384 1.30713 18.168 1.30713ZM18.18 8.39975C17.496 8.39975 16.944 7.8477 16.944 7.17564C16.944 6.49158 17.496 5.93953 18.18 5.93953C18.852 5.93953 19.404 6.49158 19.404 7.17564C19.404 7.8477 18.852 8.39975 18.18 8.39975ZM12 8.12373C14.856 8.12373 17.184 10.4519 17.184 13.3082C17.184 16.1644 14.856 18.4926 12 18.4926C9.144 18.4926 6.81599 16.1644 6.81599 13.3082C6.81599 10.4519 9.144 8.12373 12 8.12373Z" fill="url(#paint0_linear_285_534)"/>
<defs>
<linearGradient id="paint0_linear_285_534" x1="-0.424264" y1="1.13138" x2="-0.424264" y2="35.0755" gradientUnits="userSpaceOnUse">
<stop stop-color="white"/>
<stop offset="0.2" stop-color="white"/>
<stop offset="0.5" stop-color="white"/>
<stop offset="0.7" stop-color="white"/>
<stop offset="1" stop-color="white"/>
</linearGradient>
</defs>
</svg>
