<svg width="44" height="45" viewBox="0 0 44 45" fill="none" xmlns="http://www.w3.org/2000/svg">
<path d="M38.5 12.5382C38.1763 12.7058 37.7994 12.738 37.4519 12.6278C37.1045 12.5176 36.8151 12.2739 36.6472 11.9504C35.3348 9.35763 33.3482 7.16624 30.8963 5.60647C30.7435 5.5101 30.6111 5.38457 30.5068 5.23705C30.4025 5.08953 30.3283 4.92291 30.2884 4.74672C30.2485 4.57052 30.2437 4.38818 30.2743 4.21013C30.3049 4.03207 30.3702 3.86178 30.4666 3.70897C30.563 3.55617 30.6885 3.42384 30.836 3.31955C30.9835 3.21526 31.1501 3.14105 31.3263 3.10115C31.5025 3.06125 31.6849 3.05644 31.8629 3.08701C32.041 3.11757 32.2113 3.18291 32.3641 3.27929C35.2217 5.10896 37.542 7.66479 39.0878 10.6854C39.2554 11.0091 39.2877 11.386 39.1774 11.7335C39.0672 12.0809 38.8236 12.3703 38.5 12.5382ZM6.13767 12.6929C6.38957 12.6928 6.63661 12.6235 6.85181 12.4925C7.06701 12.3616 7.24211 12.1741 7.35798 11.9504C8.67042 9.35763 10.657 7.16624 13.1089 5.60647C13.4175 5.41183 13.6362 5.10257 13.7167 4.74672C13.7973 4.39087 13.7332 4.01758 13.5386 3.70897C13.344 3.40037 13.0347 3.18173 12.6788 3.10115C12.323 3.02056 11.9497 3.08464 11.6411 3.27929C8.78352 5.10896 6.46316 7.66479 4.91736 10.6854C4.8088 10.8949 4.756 11.1289 4.76404 11.3648C4.77209 11.6006 4.84071 11.8304 4.96329 12.0321C5.08588 12.2338 5.25831 12.4005 5.46399 12.5162C5.66967 12.6319 5.90167 12.6928 6.13767 12.6929ZM38.1236 30.5576C38.3672 30.9753 38.4963 31.4499 38.498 31.9334C38.4997 32.417 38.3738 32.8925 38.1331 33.3119C37.8923 33.7312 37.5453 34.0797 37.1269 34.3222C36.7085 34.5647 36.2336 34.6925 35.75 34.6929H28.7375C28.4219 36.247 27.5788 37.6443 26.3509 38.6479C25.123 39.6515 23.5859 40.1998 22 40.1998C20.4141 40.1998 18.877 39.6515 17.6492 38.6479C16.4213 37.6443 15.5781 36.247 15.2625 34.6929H8.25001C7.76674 34.6919 7.29225 34.5636 6.87434 34.3209C6.45643 34.0782 6.10986 33.7297 5.86954 33.3104C5.62923 32.8911 5.50365 32.4159 5.50546 31.9326C5.50727 31.4493 5.6364 30.975 5.87986 30.5576C7.42845 27.8849 8.25001 24.0848 8.25001 19.5679C8.25001 15.9212 9.69867 12.4238 12.2773 9.84516C14.8559 7.26654 18.3533 5.81788 22 5.81788C25.6467 5.81788 29.1441 7.26654 31.7227 9.84516C34.3014 12.4238 35.75 15.9212 35.75 19.5679C35.75 24.083 36.5716 27.8832 38.1236 30.5576ZM25.8878 34.6929H18.1122C18.3971 35.4962 18.9238 36.1916 19.62 36.6834C20.3162 37.1752 21.1476 37.4393 22 37.4393C22.8524 37.4393 23.6838 37.1752 24.38 36.6834C25.0762 36.1916 25.603 35.4962 25.8878 34.6929ZM35.75 31.9429C33.9213 28.8027 33 24.6399 33 19.5679C33 16.6505 31.8411 13.8526 29.7782 11.7897C27.7153 9.72681 24.9174 8.56788 22 8.56788C19.0826 8.56788 16.2847 9.72681 14.2218 11.7897C12.1589 13.8526 11 16.6505 11 19.5679C11 24.6416 10.0753 28.8044 8.25001 31.9429H35.75Z" fill="white"/>
</svg>
