<svg width="45" height="45" viewBox="0 0 45 45" fill="none" xmlns="http://www.w3.org/2000/svg">
<path d="M38.8334 12.805C38.5098 12.9726 38.1328 13.0049 37.7854 12.8946C37.4379 12.7844 37.1485 12.5407 36.9806 12.2172C35.6682 9.62444 33.6816 7.43306 31.2297 5.87329C31.0769 5.77691 30.9446 5.65138 30.8403 5.50386C30.736 5.35634 30.6618 5.18973 30.6219 5.01353C30.582 4.83733 30.5772 4.655 30.6077 4.47694C30.6383 4.29889 30.7036 4.12859 30.8 3.97579C30.8964 3.82298 31.0219 3.69066 31.1694 3.58637C31.317 3.48208 31.4836 3.40786 31.6598 3.36796C31.836 3.32806 32.0183 3.32326 32.1964 3.35382C32.3744 3.38439 32.5447 3.44972 32.6975 3.5461C35.5551 5.37577 37.8755 7.9316 39.4213 10.9522C39.5889 11.2759 39.6211 11.6528 39.5109 12.0003C39.4007 12.3477 39.157 12.6372 38.8334 12.805ZM6.4711 12.9597C6.72301 12.9596 6.97004 12.8903 7.18525 12.7593C7.40045 12.6284 7.57554 12.4409 7.69142 12.2172C9.00386 9.62444 10.9904 7.43306 13.4424 5.87329C13.751 5.67865 13.9696 5.36938 14.0502 5.01353C14.1308 4.65768 14.0667 4.28439 13.872 3.97579C13.6774 3.66719 13.3681 3.44854 13.0123 3.36796C12.6564 3.28738 12.2831 3.35146 11.9745 3.5461C9.11695 5.37577 6.7966 7.9316 5.25079 10.9522C5.14223 11.1617 5.08943 11.3957 5.09748 11.6316C5.10552 11.8674 5.17414 12.0973 5.29673 12.2989C5.41932 12.5006 5.59175 12.6673 5.79742 12.783C6.0031 12.8988 6.2351 12.9596 6.4711 12.9597ZM38.457 30.8244C38.7006 31.2421 38.8298 31.7167 38.8314 32.2003C38.8331 32.6838 38.7072 33.1593 38.4665 33.5787C38.2258 33.9981 37.8787 34.3466 37.4603 34.589C37.0419 34.8315 36.567 34.9593 36.0834 34.9597H29.0709C28.7554 36.5138 27.9122 37.9111 26.6843 38.9147C25.4564 39.9183 23.9193 40.4666 22.3334 40.4666C20.7476 40.4666 19.2105 39.9183 17.9826 38.9147C16.7547 37.9111 15.9115 36.5138 15.5959 34.9597H8.58345C8.10017 34.9587 7.62568 34.8304 7.20777 34.5877C6.78986 34.345 6.44329 33.9965 6.20298 33.5772C5.96266 33.1579 5.83708 32.6827 5.83889 32.1994C5.8407 31.7161 5.96984 31.2419 6.21329 30.8244C7.76189 28.1517 8.58345 24.3516 8.58345 19.8347C8.58345 16.188 10.0321 12.6906 12.6107 10.112C15.1894 7.53335 18.6867 6.0847 22.3334 6.0847C25.9802 6.0847 29.4775 7.53335 32.0562 10.112C34.6348 12.6906 36.0834 16.188 36.0834 19.8347C36.0834 24.3499 36.905 28.15 38.457 30.8244ZM26.2213 34.9597H18.4456C18.7305 35.7631 19.2572 36.4585 19.9534 36.9502C20.6496 37.442 21.4811 37.7061 22.3334 37.7061C23.1858 37.7061 24.0173 37.442 24.7135 36.9502C25.4096 36.4585 25.9364 35.7631 26.2213 34.9597ZM36.0834 32.2097C34.2547 29.0695 33.3334 24.9067 33.3334 19.8347C33.3334 16.9173 32.1745 14.1194 30.1116 12.0565C28.0487 9.99362 25.2508 8.8347 22.3334 8.8347C19.4161 8.8347 16.6182 9.99362 14.5553 12.0565C12.4924 14.1194 11.3334 16.9173 11.3334 19.8347C11.3334 24.9084 10.4088 29.0713 8.58345 32.2097H36.0834Z" fill="white"/>
</svg>
