<svg width="295" height="41" viewBox="0 0 295 41" fill="none" xmlns="http://www.w3.org/2000/svg">
<g clip-path="url(#clip0_7_1490)">
<g clip-path="url(#clip1_7_1490)">
<g clip-path="url(#clip2_7_1490)">
<path d="M42.3529 40.5651H70.5882V33.1141H50.8824V23.9964H67.2059V16.5455H50.8824V8.11407H70.6863V0.663086H42.3529V40.5651ZM104.559 25.7611L86.0784 0.663086H73.3333L77.3039 5.71211V40.6631H85.8333V14.4866L104.951 40.5651H113.088V0.663086H104.559V25.7611ZM29.4608 20.0259C33.1863 19.2906 36.3235 15.8102 36.3235 10.9082C36.2745 5.61408 32.451 0.663086 24.7549 0.663086H0L3.82353 5.56505V40.5651H25.5882C33.2843 40.5651 37.2549 35.7611 37.2549 29.7317C37.1569 24.8298 33.7745 20.6141 29.4608 20.0259ZM12.402 8.16309H23.0882C25.9804 8.16309 27.7941 9.82976 27.7941 12.3788C27.7941 14.8788 25.9804 16.5945 23.0882 16.5945H12.402V8.16309ZM23.4804 33.1631H12.451V23.9964H23.4804C26.7157 23.9964 28.5294 26.0553 28.5294 28.5553C28.5294 31.4474 26.6176 33.1141 23.4804 33.1631ZM237.941 25.7611H242.402V30.467C240.098 32.3788 237.206 33.4082 234.216 33.4572C227.108 33.4572 222.059 28.0651 222.059 20.7121C222.059 13.4082 227.108 7.96702 234.216 7.96702C237.941 8.01604 241.373 9.87878 243.333 13.016L250.049 9.29055C247.157 4.73172 242.108 0.663086 234.069 0.663086C222.794 0.663086 213.382 8.45721 213.382 20.6141C213.382 32.7709 222.647 40.5651 234.069 40.5651C240.294 40.6631 246.275 38.016 250.392 33.3592V18.6043H232.206L237.941 25.7611ZM199.51 25.7611L180.98 0.663086H168.235L172.206 5.71211V40.6631H180.735V14.4866L199.853 40.5651H208.039V0.663086H199.51V25.7611ZM278.677 0.663086H262.206L266.177 5.71211L265.441 7.62387L252.696 40.6631H262.304L264.804 33.9474H282.01L284.51 40.6631H294.118L278.677 0.663086ZM267.059 26.3984L273.284 9.19251L279.51 26.3984H267.059ZM154.804 0.663086H163.333V40.6631H154.804V0.663086ZM147.941 7.52584V0.663086H117.892V8.11407H136.765L117.892 33.7023V40.5651H148.284V33.1141H128.922L147.941 7.52584Z" fill="white"/>
</g>
</g>
</g>
<defs>
<clipPath id="clip0_7_1490">
<rect width="295" height="40" fill="white" transform="translate(0 0.663086)"/>
</clipPath>
<clipPath id="clip1_7_1490">
<rect width="295" height="40" fill="white" transform="translate(0 0.663086)"/>
</clipPath>
<clipPath id="clip2_7_1490">
<rect width="295" height="40" fill="white" transform="translate(0 0.663086)"/>
</clipPath>
</defs>
</svg>
