<svg width="218" height="41" viewBox="0 0 218 41" fill="none" xmlns="http://www.w3.org/2000/svg">
<g clip-path="url(#clip0_7_1461)">
<g clip-path="url(#clip1_7_1461)">
<g clip-path="url(#clip2_7_1461)">
<path d="M0 0.663086H15.915C18.9464 0.663086 21.22 1.42094 22.9041 2.68404C24.7566 4.19975 25.7671 6.38911 25.7671 9.08371C25.7671 12.1994 24.504 14.1361 21.9778 15.315V15.4834C25.3461 16.5781 27.2828 19.6095 27.2828 23.2304C27.2828 26.6828 25.9355 29.3774 23.7462 31.0615C21.8936 32.4088 19.5358 32.9983 16.336 32.9983H0V0.663086ZM14.3151 13.294C15.9992 13.294 17.2623 12.3678 17.2623 10.431C17.2623 8.57848 15.9992 7.65221 14.2308 7.65221H8.75745V13.2098H14.3151V13.294ZM15.0729 25.8408C17.0097 25.8408 18.4412 24.6619 18.4412 22.5567C18.4412 20.2832 16.9254 19.2727 15.0729 19.2727H8.84165V25.925H15.0729V25.8408Z" fill="white"/>
<path d="M28.7148 0.663086H37.0513V33.0825H28.7148V0.663086Z" fill="white"/>
<path d="M38.7344 21.5466C38.7344 14.2206 43.4499 9.33667 50.7759 9.33667C58.1018 9.33667 62.7331 14.3048 62.7331 21.5466C62.7331 28.8725 58.1018 33.7565 50.7759 33.7565C43.4499 33.7565 38.7344 28.8725 38.7344 21.5466ZM54.3967 21.5466C54.3967 17.5047 53.1336 14.9785 50.6075 14.9785C48.0813 14.9785 46.9024 17.5047 46.9024 21.5466C46.9024 25.5885 48.0813 28.1989 50.6075 28.1989C53.1336 28.1146 54.3967 25.5885 54.3967 21.5466Z" fill="white"/>
<path d="M63.6602 21.5466C63.6602 14.2206 68.3757 9.33667 75.7016 9.33667C83.0276 9.33667 87.5747 14.2206 87.5747 21.5466C87.5747 28.8725 82.9434 33.7565 75.6174 33.7565C68.3757 33.7565 63.6602 28.8725 63.6602 21.5466ZM79.3225 21.5466C79.3225 17.5047 78.0594 14.9785 75.5332 14.9785C73.007 14.9785 71.8282 17.5047 71.8282 21.5466C71.8282 25.5885 73.007 28.1989 75.5332 28.1989C78.0594 28.1146 79.3225 25.5885 79.3225 21.5466Z" fill="white"/>
<path d="M89.2588 9.92572H97.0058V13.3782H97.1742C98.6899 10.6836 100.795 9.25208 104.163 9.25208C107.111 9.25208 109.3 10.6836 110.395 13.2098H110.563C112.416 10.1783 114.857 9.25208 117.721 9.25208C123.11 9.25208 125.383 13.2098 125.383 18.5148V32.9982H117.299V19.9463C117.299 17.5885 116.542 16.0728 114.521 16.0728C112.5 16.0728 111.489 17.9253 111.489 20.4515V32.9982H103.405V19.9463C103.405 17.5885 102.648 16.0728 100.627 16.0728C98.6057 16.0728 97.5952 17.9253 97.5952 20.4515V32.9982H89.2588V9.92572Z" fill="white"/>
<path d="M135.572 29.9669H135.488V32.9983H127.741V0.663086H135.825V12.2836H135.993C137.509 10.2626 139.614 9.16792 142.561 9.16792C148.372 9.16792 151.74 14.3887 151.74 21.3778C151.74 29.209 148.119 33.7561 142.056 33.7561C139.53 33.7561 136.92 32.5773 135.572 29.9669ZM143.404 21.2936C143.404 17.5885 142.056 15.1466 139.614 15.1466C137.088 15.1466 135.572 17.5885 135.572 21.2936C135.572 24.9987 137.172 27.4407 139.614 27.4407C142.056 27.4407 143.404 25.0829 143.404 21.2936Z" fill="white"/>
<path d="M152.666 21.462C152.666 14.2203 157.466 9.25208 164.371 9.25208C167.823 9.25208 170.434 10.3468 172.454 12.2835C175.149 14.8939 176.328 18.9358 176.244 23.6514H160.75C161.087 26.5144 162.434 28.0301 164.876 28.0301C166.307 28.0301 167.571 27.3564 168.076 25.8407H175.907C174.56 31.1457 170.434 33.7561 164.623 33.7561C157.466 33.6719 152.666 28.7879 152.666 21.462ZM160.75 19.02H168.16C167.992 16.2412 166.476 14.8097 164.539 14.8097C162.266 14.7255 161.002 16.3254 160.75 19.02Z" fill="white"/>
<path d="M185.422 13.8829H185.59C187.274 10.6831 189.464 9.42004 192.242 9.42004C192.916 9.42004 193.337 9.50424 193.59 9.67266V16.7459H193.421C188.622 15.9039 185.843 18.1774 185.843 23.3982V33.0819H177.675V9.92527H185.422V13.8829Z" fill="white"/>
<path d="M194.432 33.0823H202.263C202.6 34.0928 203.61 35.0191 205.547 35.0191C208.157 35.0191 209.084 33.4192 209.084 30.9772V29.2931H208.915C207.652 30.8088 205.884 31.9034 203.358 31.9034C198.389 31.9034 194.011 28.1984 194.011 20.9566C194.011 14.3043 197.547 9.16772 202.937 9.16772C206.052 9.16772 207.905 10.4308 209.168 12.3676H209.336V9.84137H217.083V29.8825C217.083 33.5876 215.82 36.4506 213.883 38.1347C211.862 39.903 208.999 40.6609 205.715 40.6609C199.484 40.7451 195.19 38.2189 194.432 33.0823ZM209.42 20.6198C209.42 17.7568 208.073 15.399 205.715 15.399C203.442 15.399 202.01 17.42 202.01 20.6198C202.01 23.7354 203.442 25.9248 205.715 25.9248C207.989 25.9248 209.42 23.6512 209.42 20.6198Z" fill="white"/>
</g>
</g>
</g>
<defs>
<clipPath id="clip0_7_1461">
<rect width="218" height="40" fill="white" transform="translate(0 0.663086)"/>
</clipPath>
<clipPath id="clip1_7_1461">
<rect width="218" height="40" fill="white" transform="translate(0 0.663086)"/>
</clipPath>
<clipPath id="clip2_7_1461">
<rect width="218" height="40" fill="white" transform="translate(0 0.663086)"/>
</clipPath>
</defs>
</svg>
