<svg width="57" height="58" viewBox="0 0 57 58" fill="none" xmlns="http://www.w3.org/2000/svg">
<path d="M28.8 0.852539C13.2 0.852539 0.599976 13.4525 0.599976 28.9525C0.599976 44.4525 13.2 57.1525 28.8 57.1525C44.4 57.1525 57 44.5525 57 28.9525C57 13.3525 44.4 0.852539 28.8 0.852539ZM28.8 53.0525C15.5 53.0525 4.69998 42.2525 4.69998 28.9525C4.69998 15.6525 15.5 4.95254 28.8 4.95254C42.1 4.95254 52.9 15.7525 52.9 29.0525C52.9 42.2525 42.1 53.0525 28.8 53.0525Z" fill="white"/>
<path d="M28.8 8.55255C17.5 8.55255 8.29999 17.6526 8.29999 28.9526C8.29999 40.2526 17.5 49.4525 28.8 49.4525C40.1 49.4525 49.3 40.2526 49.3 28.9526C49.3 17.6526 40.1 8.55255 28.8 8.55255ZM28.8 44.9525C20 44.9525 12.8 37.7526 12.8 28.9526C12.8 20.1526 20 12.9526 28.8 12.9526C37.6 12.9526 44.8 20.1526 44.8 28.9526C44.8 37.8526 37.6 44.9525 28.8 44.9525Z" fill="white"/>
</svg>
