<svg width="50" height="50" viewBox="0 0 50 50" fill="none" xmlns="http://www.w3.org/2000/svg">
<g clip-path="url(#clip0_6_795)">
<path d="M34.3748 45.3212C34.3748 45.7355 34.2101 46.133 33.9171 46.426C33.6241 46.719 33.2267 46.8837 32.8123 46.8837H17.1873C16.7729 46.8837 16.3754 46.719 16.0824 46.426C15.7894 46.133 15.6248 45.7355 15.6248 45.3212C15.6248 44.9067 15.7894 44.5093 16.0824 44.2163C16.3754 43.9233 16.7729 43.7587 17.1873 43.7587H32.8123C33.2267 43.7587 33.6241 43.9233 33.9171 44.2163C34.2101 44.5093 34.3748 44.9067 34.3748 45.3212ZM42.1873 20.3212C42.194 22.9259 41.6056 25.4978 40.4669 27.8405C39.3282 30.1832 37.6693 32.2348 35.617 33.8387C35.2332 34.1329 34.9218 34.5109 34.7065 34.9438C34.4912 35.3768 34.3777 35.8533 34.3748 36.3368V37.5087C34.3748 38.3375 34.0455 39.1323 33.4595 39.7184C32.8734 40.3044 32.0786 40.6337 31.2498 40.6337H18.7498C17.921 40.6337 17.1261 40.3044 16.5401 39.7184C15.954 39.1323 15.6248 38.3375 15.6248 37.5087V36.3368C15.6244 35.859 15.5146 35.3877 15.3037 34.9591C15.0927 34.5304 14.7863 34.1558 14.408 33.8641C12.3607 32.2697 10.703 30.2304 9.56027 27.9007C8.41756 25.5709 7.81981 23.0117 7.81227 20.4169C7.76149 11.1083 15.2849 3.35631 24.5857 3.13365C26.8774 3.07843 29.157 3.48219 31.2903 4.32119C33.4236 5.16018 35.3675 6.41744 37.0077 8.01898C38.6478 9.62052 39.951 11.534 40.8405 13.6467C41.73 15.7595 42.1879 18.0288 42.1873 20.3212ZM32.3552 20.7782C32.2101 20.6329 32.0378 20.5177 31.8481 20.439C31.6584 20.3604 31.4551 20.3199 31.2498 20.3199C31.0444 20.3199 30.8411 20.3604 30.6514 20.439C30.4617 20.5177 30.2894 20.6329 30.1443 20.7782L24.9998 25.9247L19.8552 20.7782C19.562 20.485 19.1644 20.3203 18.7498 20.3203C18.3351 20.3203 17.9375 20.485 17.6443 20.7782C17.3511 21.0714 17.1864 21.469 17.1864 21.8837C17.1864 22.2983 17.3511 22.6959 17.6443 22.9891L23.4373 28.7801V35.9462C23.4373 36.3605 23.6019 36.758 23.8949 37.051C24.1879 37.344 24.5854 37.5087 24.9998 37.5087C25.4142 37.5087 25.8116 37.344 26.1046 37.051C26.3976 36.758 26.5623 36.3605 26.5623 35.9462V28.7801L32.3552 22.9891C32.5005 22.844 32.6158 22.6717 32.6944 22.482C32.773 22.2923 32.8135 22.089 32.8135 21.8837C32.8135 21.6783 32.773 21.475 32.6944 21.2853C32.6158 21.0956 32.5005 20.9233 32.3552 20.7782Z" fill="url(#paint0_linear_6_795)"/>
</g>
<defs>
<linearGradient id="paint0_linear_6_795" x1="24.9997" y1="3.12866" x2="24.9997" y2="46.8837" gradientUnits="userSpaceOnUse">
<stop stopColor="#2A80B3"/>
<stop offset="0.5" stopColor="#236191"/>
<stop offset="1" stopColor="#142738"/>
</linearGradient>
<clipPath id="clip0_6_795">
<rect width="50" height="50" fill="white" transform="translate(0 0.00866699)"/>
</clipPath>
</defs>
</svg>
