<svg width="40" height="40" viewBox="0 0 40 40" fill="none" xmlns="http://www.w3.org/2000/svg">
<g clip-path="url(#clip0_6_496)">
<path d="M27.5002 36.25C27.5002 36.5815 27.3685 36.8994 27.1341 37.1338C26.8997 37.3683 26.5817 37.5 26.2502 37.5H13.7502C13.4187 37.5 13.1007 37.3683 12.8663 37.1338C12.6319 36.8994 12.5002 36.5815 12.5002 36.25C12.5002 35.9184 12.6319 35.6005 12.8663 35.3661C13.1007 35.1317 13.4187 35 13.7502 35H26.2502C26.5817 35 26.8997 35.1317 27.1341 35.3661C27.3685 35.6005 27.5002 35.9184 27.5002 36.25ZM33.7502 16.25C33.7556 18.3338 33.2848 20.3913 32.3739 22.2654C31.4629 24.1396 30.1359 25.7809 28.494 27.064C28.1869 27.2994 27.9378 27.6018 27.7656 27.9481C27.5933 28.2945 27.5026 28.6756 27.5002 29.0625V30C27.5002 30.663 27.2368 31.2989 26.768 31.7677C26.2991 32.2366 25.6632 32.5 25.0002 32.5H15.0002C14.3372 32.5 13.7013 32.2366 13.2324 31.7677C12.7636 31.2989 12.5002 30.663 12.5002 30V29.0625C12.4999 28.6803 12.4121 28.3032 12.2433 27.9603C12.0746 27.6174 11.8294 27.3177 11.5268 27.0843C9.88896 25.8088 8.56278 24.1774 7.64861 22.3136C6.73444 20.4498 6.25624 18.4024 6.2502 16.3265C6.20958 8.87965 12.2283 2.67809 19.669 2.49996C21.5023 2.45578 23.326 2.7788 25.0326 3.44999C26.7393 4.12118 28.2944 5.127 29.6065 6.40823C30.9186 7.68946 31.9612 9.22022 32.6728 10.9104C33.3844 12.6006 33.7507 14.4161 33.7502 16.25ZM25.8846 16.6156C25.7685 16.4994 25.6306 16.4072 25.4789 16.3443C25.3271 16.2814 25.1645 16.249 25.0002 16.249C24.8359 16.249 24.6733 16.2814 24.5215 16.3443C24.3698 16.4072 24.2319 16.4994 24.1158 16.6156L20.0002 20.7328L15.8846 16.6156C15.65 16.381 15.3319 16.2493 15.0002 16.2493C14.6685 16.2493 14.3504 16.381 14.1158 16.6156C13.8813 16.8501 13.7495 17.1683 13.7495 17.5C13.7495 17.8317 13.8813 18.1498 14.1158 18.3843L18.7502 23.0172V28.75C18.7502 29.0815 18.8819 29.3994 19.1163 29.6338C19.3507 29.8683 19.6687 30 20.0002 30C20.3317 30 20.6497 29.8683 20.8841 29.6338C21.1185 29.3994 21.2502 29.0815 21.2502 28.75V23.0172L25.8846 18.3843C26.0008 18.2682 26.093 18.1304 26.1559 17.9786C26.2188 17.8269 26.2512 17.6642 26.2512 17.5C26.2512 17.3357 26.2188 17.173 26.1559 17.0213C26.093 16.8695 26.0008 16.7317 25.8846 16.6156Z" fill="white"/>
</g>
<defs>
<clipPath id="clip0_6_496">
<rect width="40" height="40" fill="white"/>
</clipPath>
</defs>
</svg>
