<svg width="25" height="24" viewBox="0 0 25 24" fill="none" xmlns="http://www.w3.org/2000/svg">
<g style="mix-blend-mode:screen">
<path d="M9.19189 6.5C9.19189 6.32741 9.05198 6.1875 8.87939 6.1875C7.84385 6.1875 7.00439 5.34804 7.00439 4.3125C7.00439 4.13991 6.86448 4 6.69189 4C6.5193 4 6.37939 4.13991 6.37939 4.3125C6.37939 5.34804 5.53993 6.1875 4.50439 6.1875C4.3318 6.1875 4.19189 6.32741 4.19189 6.5C4.19189 6.67259 4.3318 6.8125 4.50439 6.8125C5.53993 6.8125 6.37939 7.65196 6.37939 8.6875C6.37939 8.86009 6.5193 9 6.69189 9C6.86448 9 7.00439 8.86009 7.00439 8.6875C7.00439 7.65196 7.84385 6.8125 8.87939 6.8125C9.05198 6.8125 9.19189 6.67259 9.19189 6.5Z" fill="white"/>
</g>
<path d="M9.19189 6.5C9.19189 6.32741 9.05198 6.1875 8.87939 6.1875C7.84385 6.1875 7.00439 5.34804 7.00439 4.3125C7.00439 4.13991 6.86448 4 6.69189 4C6.5193 4 6.37939 4.13991 6.37939 4.3125C6.37939 5.34804 5.53993 6.1875 4.50439 6.1875C4.3318 6.1875 4.19189 6.32741 4.19189 6.5C4.19189 6.67259 4.3318 6.8125 4.50439 6.8125C5.53993 6.8125 6.37939 7.65196 6.37939 8.6875C6.37939 8.86009 6.5193 9 6.69189 9C6.86448 9 7.00439 8.86009 7.00439 8.6875C7.00439 7.65196 7.84385 6.8125 8.87939 6.8125C9.05198 6.8125 9.19189 6.67259 9.19189 6.5Z" fill="white"/>
<g style="mix-blend-mode:screen">
<path d="M16.6919 6C16.6919 5.72386 16.468 5.5 16.1919 5.5C15.9158 5.5 15.6919 5.72386 15.6919 6C15.6919 8.48488 13.6771 10.5 11.1919 10.5C10.9158 10.5 10.6919 10.7239 10.6919 11C10.6919 11.2761 10.9158 11.5 11.1919 11.5C13.6772 11.5 15.6919 13.5142 15.6919 16C15.6919 16.2761 15.9158 16.5 16.1919 16.5C16.468 16.5 16.6919 16.2761 16.6919 16C16.6919 13.5141 18.706 11.5 21.1919 11.5C21.468 11.5 21.6919 11.2761 21.6919 11C21.6919 10.7239 21.468 10.5 21.1919 10.5C18.7061 10.5 16.6919 8.48492 16.6919 6Z" fill="white"/>
</g>
<path d="M16.6919 6C16.6919 5.72386 16.468 5.5 16.1919 5.5C15.9158 5.5 15.6919 5.72386 15.6919 6C15.6919 8.48488 13.6771 10.5 11.1919 10.5C10.9158 10.5 10.6919 10.7239 10.6919 11C10.6919 11.2761 10.9158 11.5 11.1919 11.5C13.6772 11.5 15.6919 13.5142 15.6919 16C15.6919 16.2761 15.9158 16.5 16.1919 16.5C16.468 16.5 16.6919 16.2761 16.6919 16C16.6919 13.5141 18.706 11.5 21.1919 11.5C21.468 11.5 21.6919 11.2761 21.6919 11C21.6919 10.7239 21.468 10.5 21.1919 10.5C18.7061 10.5 16.6919 8.48492 16.6919 6Z" fill="white"/>
<g style="mix-blend-mode:screen">
<path d="M7.69189 12.5C7.69189 12.2239 7.46803 12 7.19189 12C6.91575 12 6.69189 12.2239 6.69189 12.5C6.69189 14.1569 5.34875 15.5 3.69189 15.5C3.41575 15.5 3.19189 15.7239 3.19189 16C3.19189 16.2761 3.41575 16.5 3.69189 16.5C5.34875 16.5 6.69189 17.8431 6.69189 19.5C6.69189 19.7761 6.91575 20 7.19189 20C7.46803 20 7.69189 19.7761 7.69189 19.5C7.69189 17.8431 9.03503 16.5 10.6919 16.5C10.968 16.5 11.1919 16.2761 11.1919 16C11.1919 15.7239 10.968 15.5 10.6919 15.5C9.03503 15.5 7.69189 14.1569 7.69189 12.5Z" fill="white"/>
</g>
<path d="M7.69189 12.5C7.69189 12.2239 7.46803 12 7.19189 12C6.91575 12 6.69189 12.2239 6.69189 12.5C6.69189 14.1569 5.34875 15.5 3.69189 15.5C3.41575 15.5 3.19189 15.7239 3.19189 16C3.19189 16.2761 3.41575 16.5 3.69189 16.5C5.34875 16.5 6.69189 17.8431 6.69189 19.5C6.69189 19.7761 6.91575 20 7.19189 20C7.46803 20 7.69189 19.7761 7.69189 19.5C7.69189 17.8431 9.03503 16.5 10.6919 16.5C10.968 16.5 11.1919 16.2761 11.1919 16C11.1919 15.7239 10.968 15.5 10.6919 15.5C9.03503 15.5 7.69189 14.1569 7.69189 12.5Z" fill="white"/>
</svg>
