<svg width="24" height="17" viewBox="0 0 24 17" fill="none" xmlns="http://www.w3.org/2000/svg">
<mask id="mask0_1_7331" style="mask-type:luminance" maskUnits="userSpaceOnUse" x="0" y="0" width="24" height="17">
<rect y="0.5" width="24" height="16" fill="white"/>
</mask>
<g mask="url(#mask0_1_7331)">
<path fill-rule="evenodd" clip-rule="evenodd" d="M6 0.5H18V16.5H6V0.5Z" fill="#F7FCFF"/>
<path fill-rule="evenodd" clip-rule="evenodd" d="M10.7467 6.10169L11.9798 4.5L12 13.8333H11.4861L11.8014 11.5236C11.8014 11.5236 8.34268 12.0883 8.62862 11.8035C8.91455 11.5186 9.07925 10.9961 9.07925 10.9961L6 9.13191C6 9.13191 6.48573 9.12638 6.88088 8.91312C7.27604 8.69987 6.48573 7.43512 6.48573 7.43512L8.0404 7.64036L8.62862 7.0603L9.80159 8.17426H10.3289L9.80159 5.62266L10.7467 6.10169ZM12 13.8333V4.5L13.2533 6.10169L14.1984 5.62266L13.6711 8.17426H14.1984L15.3714 7.0603L15.9596 7.64036L17.5143 7.43512C17.5143 7.43512 16.724 8.69987 17.1191 8.91312C17.5143 9.12638 18 9.13191 18 9.13191L14.9207 10.9961C14.9207 10.9961 15.0854 11.5186 15.3714 11.8035C15.6573 12.0883 12.1986 11.5236 12.1986 11.5236L12.5139 13.8333H12Z" fill="#E31D1C"/>
<path fill-rule="evenodd" clip-rule="evenodd" d="M18 0.5H24V16.5H18V0.5Z" fill="#E31D1C"/>
<path fill-rule="evenodd" clip-rule="evenodd" d="M0 0.5H6V16.5H0V0.5Z" fill="#E31D1C"/>
</g>
</svg>
