<svg width="44" height="45" viewBox="0 0 44 45" fill="none" xmlns="http://www.w3.org/2000/svg">
<path d="M39.875 36.3347C39.875 36.6994 39.7301 37.0491 39.4723 37.307C39.2144 37.5649 38.8647 37.7097 38.5 37.7097H5.5C5.13533 37.7097 4.78559 37.5649 4.52773 37.307C4.26987 37.0491 4.125 36.6994 4.125 36.3347V8.83472C4.125 8.47004 4.26987 8.12031 4.52773 7.86245C4.78559 7.60458 5.13533 7.45972 5.5 7.45972C5.86467 7.45972 6.21441 7.60458 6.47227 7.86245C6.73013 8.12031 6.875 8.47004 6.875 8.83472V25.0546L15.5942 17.4285C15.8315 17.2208 16.1329 17.1009 16.448 17.089C16.7631 17.0772 17.0728 17.1739 17.325 17.3632L27.433 24.9446L37.5942 16.0535C37.7274 15.9216 37.8862 15.8183 38.0608 15.7501C38.2354 15.6818 38.4221 15.65 38.6095 15.6565C38.7968 15.663 38.9809 15.7078 39.1503 15.7881C39.3197 15.8684 39.4709 15.9824 39.5946 16.1233C39.7183 16.2641 39.8119 16.4288 39.8697 16.6071C39.9274 16.7855 39.9481 16.9738 39.9304 17.1604C39.9127 17.347 39.8571 17.5281 39.7668 17.6924C39.6766 17.8567 39.5537 18.0009 39.4058 18.116L28.4058 27.741C28.1685 27.9487 27.8671 28.0685 27.552 28.0804C27.2369 28.0923 26.9272 27.9955 26.675 27.8063L16.567 20.2283L6.875 28.7086V34.9597H38.5C38.8647 34.9597 39.2144 35.1046 39.4723 35.3624C39.7301 35.6203 39.875 35.97 39.875 36.3347Z" fill="white"/>
</svg>
