<svg width="77" height="77" viewBox="0 0 77 77" fill="none" xmlns="http://www.w3.org/2000/svg">
<g clip-path="url(#clip0_203_7755)">
<path d="M66.0732 60.7205L64.2906 58.9073L63.2465 59.926L63.603 61.3368L66.0732 60.7205ZM69.3532 73.8506L68.7369 76.3208C69.1633 76.427 69.6098 76.421 70.0332 76.3036C70.4565 76.1861 70.8423 75.9611 71.153 75.6504C71.4636 75.3397 71.6886 74.954 71.8061 74.5306C71.9236 74.1073 71.9295 73.6607 71.8234 73.2344L69.3532 73.8506ZM48.9806 68.7575L47.1776 66.9545L43.9995 70.1377L48.3643 71.2277L48.9806 68.7575ZM49.1079 68.6302L50.9058 70.4331C51.2774 70.0629 51.5257 69.587 51.6166 69.0703C51.7075 68.5537 51.6366 68.0216 51.4137 67.5468C51.1908 67.0719 50.8267 66.6775 50.3711 66.4175C49.9155 66.1574 49.3908 66.0443 48.8686 66.0938L49.1079 68.6302ZM36.2477 0V12.7329H41.3409V0H36.2477ZM46.434 10.1863H31.1546V15.2794H46.434V10.1863ZM76.9929 40.7452C76.9929 32.6405 73.7733 24.8677 68.0424 19.1368C62.3115 13.4059 54.5388 10.1863 46.434 10.1863V15.2794C49.7782 15.2794 53.0897 15.9381 56.1793 17.2179C59.269 18.4977 62.0763 20.3735 64.441 22.7382C66.8057 25.1029 68.6815 27.9102 69.9613 30.9999C71.2411 34.0895 71.8998 37.401 71.8998 40.7452H76.9929ZM67.8558 62.5388C70.7545 59.6975 73.0561 56.3054 74.6252 52.5619C76.1943 48.8185 76.9993 44.8042 76.9929 40.7452H71.8998C71.9063 44.1281 71.236 47.4731 69.9283 50.5931C68.6207 53.7131 66.7072 56.54 64.2906 58.9073L67.8558 62.5388ZM71.8285 73.2344L68.5383 60.0991L63.5979 61.3317L66.8779 74.4618L71.8285 73.2344ZM48.3643 71.2277L68.7369 76.3208L69.9695 71.3805L49.5969 66.2873L48.3643 71.2277ZM47.305 66.8323L47.1776 66.9545L50.7836 70.5554L50.9058 70.4331L47.305 66.8323ZM46.434 71.3041C47.4187 71.3041 48.3898 71.2582 49.3473 71.1665L48.8686 66.0938C48.0594 66.1717 47.2469 66.2108 46.434 66.2109V71.3041ZM31.1546 71.3041H46.434V66.2109H31.1546V71.3041ZM0.595703 40.7452C0.595703 48.8499 3.81529 56.6227 9.54619 62.3536C15.2771 68.0845 23.0499 71.3041 31.1546 71.3041V66.2109C27.8104 66.2109 24.4989 65.5522 21.4093 64.2725C18.3196 62.9927 15.5123 61.1169 13.1476 58.7522C8.37184 53.9764 5.68885 47.4991 5.68885 40.7452H0.595703ZM31.1546 10.1863C23.0499 10.1863 15.2771 13.4059 9.54619 19.1368C3.81529 24.8677 0.595703 32.6405 0.595703 40.7452H5.68885C5.68885 33.9912 8.37184 27.5139 13.1476 22.7382C17.9233 17.9624 24.4007 15.2794 31.1546 15.2794V10.1863ZM38.7943 40.7452C36.7681 40.7452 34.8249 39.9403 33.3922 38.5076C31.9595 37.0748 31.1546 35.1316 31.1546 33.1055H26.0614C26.0614 36.4824 27.4029 39.7211 29.7908 42.109C32.1787 44.4968 35.4173 45.8383 38.7943 45.8383V40.7452ZM46.434 33.1055C46.434 35.1316 45.6291 37.0748 44.1964 38.5076C42.7637 39.9403 40.8205 40.7452 38.7943 40.7452V45.8383C42.1713 45.8383 45.4099 44.4968 47.7978 42.109C50.1857 39.7211 51.5272 36.4824 51.5272 33.1055H46.434ZM38.7943 25.4657C40.8205 25.4657 42.7637 26.2706 44.1964 27.7034C45.6291 29.1361 46.434 31.0793 46.434 33.1055H51.5272C51.5272 29.7285 50.1857 26.4898 47.7978 24.102C45.4099 21.7141 42.1713 20.3726 38.7943 20.3726V25.4657ZM38.7943 20.3726C35.4173 20.3726 32.1787 21.7141 29.7908 24.102C27.4029 26.4898 26.0614 29.7285 26.0614 33.1055H31.1546C31.1546 31.0793 31.9595 29.1361 33.3922 27.7034C34.8249 26.2706 36.7681 25.4657 38.7943 25.4657V20.3726ZM38.7943 61.1178C44.2134 61.1178 49.1945 59.2333 53.1213 56.0908L49.933 52.1182C46.8771 54.5629 43.0114 56.0246 38.7943 56.0246V61.1178ZM24.4673 56.0908C28.389 59.2333 33.3803 61.1178 38.7943 61.1178V56.0246C34.7441 56.0334 30.8131 54.6547 27.6556 52.1182L24.4673 56.0908Z" fill="white"/>
</g>
<defs>
<clipPath id="clip0_203_7755">
<rect width="76.3972" height="76.3972" fill="white" transform="translate(0.595703)"/>
</clipPath>
</defs>
</svg>
