<svg width="35" height="35" viewBox="0 0 35 35" fill="none" xmlns="http://www.w3.org/2000/svg">
<path fillRule="evenodd" clipRule="evenodd" d="M15.6834 17.3328L8.34171 9.99114L9.99162 8.34122L17.3333 15.6829L24.675 8.34122L26.325 9.99114L18.9832 17.3328L26.325 24.6746L24.675 26.3245L17.3333 18.9828L9.99162 26.3245L8.34171 24.6746L15.6834 17.3328Z" fill="white"/>
<path fillRule="evenodd" clipRule="evenodd" d="M8.34171 8.34122C8.79732 7.88561 9.53601 7.88561 9.99162 8.34122L17.3333 15.6829L24.675 8.34122C25.1307 7.88561 25.8693 7.88561 26.325 8.34122C26.7806 8.79683 26.7806 9.53552 26.325 9.99114L18.9832 17.3328L26.325 24.6746C26.7806 25.1302 26.7806 25.8689 26.325 26.3245C25.8693 26.7801 25.1307 26.7801 24.675 26.3245L17.3333 18.9828L9.99162 26.3245C9.53601 26.7801 8.79732 26.7801 8.34171 26.3245C7.8861 25.8689 7.8861 25.1302 8.34171 24.6746L15.6834 17.3328L8.34171 9.99114C7.8861 9.53552 7.8861 8.79683 8.34171 8.34122Z" fill="white"/>
</svg>
