<svg width="24" height="24" viewBox="0 0 24 24" fill="none" xmlns="http://www.w3.org/2000/svg">
<g id="Social Icon" clip-path="url(#clip0_1_9444)">
<path id="Vector" fill-rule="evenodd" clip-rule="evenodd" d="M12 24C18.6274 24 24 18.6274 24 12C24 5.37259 18.6274 0 12 0C5.37259 0 0 5.37259 0 12C0 18.6274 5.37259 24 12 24ZM13.7676 6.9607C14.7108 7.12423 15.613 7.40981 16.4544 7.79741C16.4616 7.80055 16.4679 7.80581 16.4715 7.81318C17.9622 10.0146 18.6984 12.4979 18.4232 15.3567C18.4221 15.3688 18.4159 15.3799 18.406 15.3872C17.277 16.2197 16.1833 16.7251 15.1047 17.0601C15.0875 17.0654 15.0688 17.0591 15.0584 17.0443C14.8092 16.6962 14.5828 16.3291 14.3846 15.9436C14.3732 15.921 14.3836 15.8937 14.407 15.8847C14.7665 15.7485 15.1084 15.5855 15.4372 15.3925C15.4632 15.3772 15.4647 15.3399 15.4408 15.322C15.3711 15.27 15.3019 15.2153 15.2358 15.1606C15.2233 15.1506 15.2067 15.1485 15.1926 15.1553C13.0578 16.1456 10.7191 16.1456 8.55883 15.1553C8.54479 15.149 8.52814 15.1511 8.51618 15.1611C8.45011 15.2158 8.3809 15.27 8.31168 15.322C8.28775 15.3399 8.28984 15.3772 8.31586 15.3925C8.64468 15.5818 8.98651 15.7485 9.34553 15.8853C9.36893 15.8942 9.37987 15.921 9.3684 15.9436C9.17436 16.3296 8.94802 16.6967 8.69412 17.0449C8.68318 17.0591 8.66498 17.0654 8.6478 17.0601C7.57445 16.7251 6.48077 16.2197 5.35171 15.3872C5.34235 15.3799 5.33558 15.3683 5.33455 15.3562C5.10458 12.8834 5.57338 10.3796 7.28462 7.81265C7.28878 7.80581 7.29502 7.80055 7.30231 7.79741C8.14416 7.40928 9.04634 7.12373 9.98914 6.9607C10.0063 6.95806 10.0235 6.96595 10.0323 6.98119C10.1489 7.18841 10.2821 7.45399 10.3721 7.67117C11.3658 7.51867 12.3752 7.51867 13.3898 7.67117C13.4798 7.45872 13.6083 7.18841 13.7244 6.98119C13.7332 6.96542 13.7504 6.95753 13.7676 6.9607ZM8.50471 12.5148C8.50471 13.251 9.04063 13.8505 9.69101 13.8505C10.3518 13.8505 10.8773 13.251 10.8773 12.5148C10.8877 11.7837 10.357 11.179 9.69101 11.179C9.03024 11.179 8.50471 11.7785 8.50471 12.5148ZM12.8908 12.5148C12.8908 13.251 13.4268 13.8505 14.0771 13.8505C14.7431 13.8505 15.2634 13.251 15.2634 12.5148C15.2738 11.7837 14.7431 11.179 14.0771 11.179C13.4163 11.179 12.8908 11.7785 12.8908 12.5148Z" fill="white"/>
</g>
<defs>
<clipPath id="clip0_1_9444">
<rect width="24" height="24" fill="white"/>
</clipPath>
</defs>
</svg>
