<svg width="78" height="77" viewBox="0 0 78 77" fill="none" xmlns="http://www.w3.org/2000/svg">
<path d="M62.142 16.9666C57.9083 14.993 53.3245 13.5605 48.5496 12.7329C48.4657 12.7341 48.3856 12.7684 48.3268 12.8284C47.7538 13.8789 47.0853 15.2477 46.6397 16.2981C41.5752 15.5346 36.4248 15.5346 31.3603 16.2981C30.9146 15.2158 30.2461 13.8789 29.6413 12.8284C29.6095 12.7647 29.514 12.7329 29.4185 12.7329C24.6437 13.5605 20.0917 14.993 15.8261 16.9666C15.7943 16.9666 15.7625 16.9984 15.7307 17.0303C7.0723 29.9859 4.68489 42.5915 5.86268 55.0697C5.86268 55.1334 5.89451 55.197 5.95817 55.2289C11.688 59.4307 17.1949 61.9773 22.6382 63.6644C22.7337 63.6962 22.8292 63.6644 22.8611 63.6007C24.1343 61.85 25.2803 60.0037 26.2671 58.0619C26.3308 57.9346 26.2671 57.8073 26.1398 57.7754C24.3253 57.0751 22.6064 56.2475 20.9193 55.2925C20.792 55.2289 20.792 55.0379 20.8875 54.9424C21.2376 54.6877 21.5878 54.4012 21.9379 54.1466C22.0016 54.0829 22.0971 54.0829 22.1608 54.1147C33.111 59.1124 44.9208 59.1124 55.7437 54.1147C55.8074 54.0829 55.9029 54.0829 55.9665 54.1466C56.3167 54.4331 56.6668 54.6877 57.017 54.9742C57.1443 55.0697 57.1443 55.2607 56.9851 55.3244C55.3299 56.3112 53.5791 57.107 51.7647 57.8073C51.6373 57.8391 51.6055 57.9983 51.6373 58.0938C52.656 60.0355 53.8019 61.8818 55.0434 63.6326C55.1389 63.6644 55.2344 63.6962 55.3299 63.6644C60.805 61.9773 66.312 59.4307 72.0418 55.2289C72.1054 55.197 72.1373 55.1334 72.1373 55.0697C73.5379 40.6497 69.8135 28.1397 62.2693 17.0303C62.2375 16.9984 62.2056 16.9666 62.142 16.9666ZM27.9224 47.4618C24.6437 47.4618 21.9061 44.4378 21.9061 40.7134C21.9061 36.989 24.58 33.965 27.9224 33.965C31.2966 33.965 33.9705 37.0209 33.9387 40.7134C33.9387 44.4378 31.2648 47.4618 27.9224 47.4618ZM50.1094 47.4618C46.8307 47.4618 44.0931 44.4378 44.0931 40.7134C44.0931 36.989 46.767 33.965 50.1094 33.965C53.4836 33.965 56.1575 37.0209 56.1257 40.7134C56.1257 44.4378 53.4836 47.4618 50.1094 47.4618Z" fill="white"/>
</svg>
