<svg width="45" height="44" viewBox="0 0 45 44" fill="none" xmlns="http://www.w3.org/2000/svg">
<path fillRule="evenodd" clipRule="evenodd" d="M35.5224 20.1454H33.7072C32.907 15.2941 29.0688 11.4546 24.2179 10.6545V8.84374C30.0692 9.67289 34.6897 14.2932 35.5224 20.1454ZM24.2177 33.3983C29.0687 32.5972 32.9068 28.7595 33.707 23.9082H35.5221C34.6898 29.7557 30.0689 34.3809 24.2174 35.2088L24.2177 33.3983ZM10.9655 23.9082C11.7644 28.7595 15.6061 32.5973 20.4548 33.3983V35.209C14.6079 34.3811 9.98443 29.7558 9.15495 23.9084L10.9655 23.9082ZM20.4548 10.6545C15.606 11.4546 11.764 15.2945 10.9655 20.1454H9.15471C9.98484 14.2935 14.608 9.67264 20.4545 8.84317L20.4548 10.6545ZM31.7074 23.1162C31.0943 23.1162 30.5947 22.6165 30.5947 22C30.5947 21.3847 31.0944 20.885 31.7074 20.885H38.9768C38.4239 12.5707 31.7622 5.90717 23.4472 5.35391V12.6226C23.4472 13.2359 22.943 13.7356 22.3301 13.7356C21.7135 13.7356 21.2138 13.2359 21.2138 12.6226V5.35391C12.8994 5.90709 6.23342 12.5713 5.68424 20.885H12.9537C13.5701 20.885 14.0663 21.3847 14.0663 22C14.0663 22.6165 13.5701 23.1162 12.9537 23.1162H5.68424C6.23297 31.4329 12.8989 38.0973 21.2138 38.6497V31.3797C21.2138 30.7645 21.7135 30.2625 22.3301 30.2625C22.943 30.2625 23.4472 30.7645 23.4472 31.3797V38.6497C31.7616 38.0975 38.4235 31.4333 38.9768 23.1162H31.7074ZM41.75 20.885C42.3643 20.885 42.865 21.3847 42.865 22C42.865 22.6165 42.3643 23.1162 41.75 23.1162H40.9842C40.4279 32.5509 32.879 40.1009 23.4469 40.6574V41.4197C23.4469 42.0362 22.9428 42.5337 22.3298 42.5337C21.7132 42.5337 21.2135 42.0362 21.2135 41.4197V40.6574C11.7796 40.1007 4.22871 32.5507 3.67463 23.1162H2.91105C2.29676 23.1162 1.79835 22.6165 1.79835 22C1.79835 21.3847 2.29678 20.885 2.91105 20.885H3.67463C4.22877 11.4519 11.7798 3.90273 21.2135 3.34459V2.58325C21.2135 1.97023 21.7132 1.46704 22.3298 1.46704C22.9428 1.46704 23.4469 1.97025 23.4469 2.58325V3.34459C32.8784 3.90223 40.4277 11.4513 40.9842 20.885H41.75ZM29.4267 21.98C29.4356 25.8999 26.2693 29.0841 22.3477 29.0952C18.4338 29.1063 15.2464 25.9388 15.2353 22.0222C15.2251 18.1035 18.3936 14.9184 22.3086 14.9073C26.227 14.8949 29.4122 18.0625 29.4267 21.98ZM19.9782 23.7235L19.6045 25.0027C20.0778 25.2321 20.8897 25.4377 21.7249 25.4689V26.5085H22.9585V25.3833C24.3925 25.1757 25.1688 24.3479 25.1688 23.3765C25.1688 22.3854 24.5818 21.7828 23.0964 21.3271C22.0266 20.9874 21.5893 20.7475 21.5893 20.3974C21.5893 20.0925 21.8481 19.7751 22.659 19.7751C23.5563 19.7751 24.1422 20.0298 24.4583 20.1587L24.831 18.9263C24.3924 18.7503 23.8319 18.588 23.0101 18.566V17.6051H21.7869V18.6414C20.4536 18.8594 19.6811 19.6115 19.6811 20.582C19.6811 21.6425 20.5901 22.1883 21.9246 22.5801C22.8592 22.8526 23.2593 23.1136 23.2593 23.5296C23.2593 23.9548 22.7729 24.2063 22.0494 24.2063C21.2372 24.2063 20.5018 23.9749 19.9782 23.7235Z" fill="url(#paint0_linear_102_392)"/>
<defs>
<linearGradient id="paint0_linear_102_392" x1="1.79835" y1="22.0004" x2="42.865" y2="22.0004" gradientUnits="userSpaceOnUse">
<stop stopColor="#00FC9E"/>
<stop offset="1" stopColor="#1C7EF0"/>
</linearGradient>
</defs>
</svg>
