<svg width="25" height="25" viewBox="0 0 25 25" fill="none" xmlns="http://www.w3.org/2000/svg">
<path d="M21.9216 7.35247C21.9368 7.56566 21.9368 7.7789 21.9368 7.99208C21.9368 14.4946 16.9877 21.987 7.94197 21.987C5.15515 21.987 2.56634 21.1798 0.388672 19.7789C0.784625 19.8245 1.1653 19.8398 1.57649 19.8398C3.87593 19.8398 5.99272 19.0632 7.68308 17.7383C5.52064 17.6926 3.70845 16.2764 3.08408 14.3271C3.38867 14.3727 3.69322 14.4032 4.01305 14.4032C4.45465 14.4032 4.89632 14.3423 5.30745 14.2357C3.05366 13.7788 1.36325 11.7992 1.36325 9.40835V9.34746C2.01805 9.71289 2.77953 9.94133 3.58657 9.97173C2.2617 9.08849 1.39372 7.5809 1.39372 5.8753C1.39372 4.96161 1.63733 4.12405 2.06375 3.39308C4.48508 6.37785 8.12469 8.32705 12.2058 8.54028C12.1297 8.1748 12.0841 7.79412 12.0841 7.41341C12.0841 4.70272 14.2769 2.49463 17.0028 2.49463C18.4191 2.49463 19.6982 3.08853 20.5968 4.04793C21.7083 3.83474 22.7744 3.42354 23.7185 2.86011C23.353 4.00226 22.5764 4.96166 21.5561 5.57075C22.546 5.4642 23.5054 5.19003 24.3886 4.80936C23.7186 5.78394 22.881 6.65193 21.9216 7.35247Z" fill="url(#paint0_linear_6_981)"/>
<defs>
<linearGradient id="paint0_linear_6_981" x1="-1.20478" y1="1.8346" x2="-4.32433" y2="31.9347" gradientUnits="userSpaceOnUse">
<stop stop-color="white"/>
<stop offset="1" stop-color="white"/>
</linearGradient>
</defs>
</svg>
