<svg width="21" height="22" viewBox="0 0 21 22" fill="none" xmlns="http://www.w3.org/2000/svg">
<mask id="mask0_6_975" style="mask-type:luminance" maskUnits="userSpaceOnUse" x="0" y="0" width="21" height="22">
<path d="M20.3887 0.856201H0.388672V21.6264H20.3887V0.856201Z" fill="white"/>
</mask>
<g mask="url(#mask0_6_975)">
<path d="M10.3887 1.18066C4.86581 1.18066 0.388672 5.68492 0.388672 11.2412C0.388672 16.7976 4.86581 21.3018 10.3887 21.3018C15.9115 21.3018 20.3887 16.7976 20.3887 11.2412C20.3887 5.68492 15.9115 1.18066 10.3887 1.18066ZM15.0238 8.02267C14.8734 9.61347 14.2222 13.474 13.8907 15.2557C13.7506 16.0096 13.4746 16.2625 13.2074 16.2872C12.6267 16.3409 12.1857 15.9011 11.6232 15.5301C10.7431 14.9497 10.2459 14.5884 9.39152 14.022C8.40421 13.3674 9.04429 13.0078 9.6069 12.4196C9.75421 12.2658 12.3129 9.92433 12.3624 9.71194C12.3685 9.68532 12.3744 9.58616 12.3158 9.53408C12.2572 9.482 12.1711 9.49962 12.1088 9.51377C12.0205 9.53393 10.6145 10.4689 7.89073 12.3187C7.49167 12.5944 7.13019 12.7287 6.80629 12.7216C6.44923 12.7139 5.76243 12.5185 5.25182 12.3515C4.62556 12.1467 4.12783 12.0385 4.17117 11.6906C4.19375 11.5095 4.44173 11.3242 4.91513 11.1349C7.83034 9.8571 9.77429 9.01467 10.7469 8.60758C13.524 7.44548 14.1011 7.24362 14.4772 7.23689C14.5599 7.23551 14.7449 7.25612 14.8647 7.35392C14.9444 7.4236 14.9951 7.52083 15.0071 7.62637C15.0273 7.75742 15.033 7.89035 15.0238 8.02267Z" fill="url(#paint0_linear_6_975)"/>
</g>
<defs>
<linearGradient id="paint0_linear_6_975" x1="0.159202" y1="1.08561" x2="0.244184" y2="29.4557" gradientUnits="userSpaceOnUse">
<stop stop-color="white"/>
<stop offset="1" stop-color="white"/>
</linearGradient>
</defs>
</svg>
