<svg width="25" height="20" viewBox="0 0 25 20" fill="none" xmlns="http://www.w3.org/2000/svg">
<path d="M20.0582 3.31171C20.052 3.29992 20.0419 3.29068 20.0295 3.28565C18.5999 2.63457 17.0913 2.1703 15.5413 1.90446C15.5273 1.90186 15.5126 1.90374 15.4997 1.90982C15.4868 1.9159 15.4761 1.92587 15.4692 1.93833C15.2638 2.30843 15.0773 2.68859 14.9105 3.07735C13.2397 2.8256 11.5402 2.8256 9.86947 3.07735C9.70154 2.6876 9.51208 2.30735 9.30194 1.93833C9.29467 1.92615 9.28394 1.9164 9.2711 1.91036C9.25825 1.90432 9.24385 1.90226 9.22973 1.90446C7.67968 2.16975 6.1709 2.63405 4.74146 3.28569C4.72922 3.29083 4.7189 3.29963 4.71191 3.31085C1.85332 7.54821 1.07025 11.6814 1.4544 15.7634C1.45548 15.7734 1.45857 15.7831 1.46351 15.7919C1.46844 15.8007 1.47509 15.8084 1.48309 15.8146C3.14762 17.0379 5.00941 17.9717 6.98902 18.5761C7.00296 18.5803 7.01785 18.58 7.03168 18.5756C7.04551 18.5711 7.05763 18.5625 7.06639 18.551C7.49157 17.9767 7.8683 17.3686 8.19279 16.7329C8.19724 16.7241 8.19978 16.7146 8.20027 16.7049C8.2007 16.6951 8.19907 16.6853 8.19547 16.6762C8.19187 16.6671 8.18637 16.6589 8.17931 16.652C8.17225 16.6452 8.16385 16.6399 8.15453 16.6365C7.56046 16.411 6.98532 16.1389 6.43451 15.8231C6.42451 15.8173 6.41611 15.8091 6.41004 15.7993C6.40399 15.7895 6.40046 15.7783 6.39977 15.7668C6.39909 15.7553 6.40126 15.7438 6.40611 15.7333C6.41096 15.7229 6.41833 15.7138 6.42758 15.7068C6.54315 15.6208 6.6588 15.5314 6.76916 15.4411C6.77896 15.4331 6.79083 15.428 6.80342 15.4263C6.81601 15.4246 6.82882 15.4264 6.84041 15.4316C10.449 17.0663 14.3558 17.0663 17.9217 15.4316C17.9333 15.4261 17.9463 15.424 17.959 15.4256C17.9718 15.4271 17.9839 15.4322 17.9938 15.4403C18.1042 15.5305 18.2199 15.6208 18.3363 15.7068C18.3456 15.7137 18.353 15.7227 18.3579 15.7332C18.3629 15.7436 18.3651 15.7551 18.3645 15.7666C18.3639 15.7781 18.3605 15.7892 18.3545 15.7991C18.3485 15.809 18.3401 15.8173 18.3302 15.8231C17.7806 16.1416 17.2049 16.4134 16.6093 16.6357C16.6001 16.6392 16.5917 16.6446 16.5847 16.6515C16.5776 16.6585 16.5722 16.6668 16.5687 16.676C16.5651 16.6852 16.5636 16.695 16.5641 16.7048C16.5646 16.7146 16.5673 16.7241 16.5718 16.7329C16.9017 17.3651 17.2779 17.9724 17.6974 18.5499C17.7058 18.5618 17.7179 18.5707 17.7318 18.5753C17.7456 18.58 17.7607 18.5803 17.7747 18.576C19.7578 17.9736 21.6229 17.0398 23.2895 15.8146C23.2976 15.8087 23.3044 15.8012 23.3093 15.7925C23.3143 15.7838 23.3173 15.7742 23.3182 15.7643C23.7781 11.0451 22.5483 6.94573 20.0582 3.31171ZM8.73166 13.2779C7.64524 13.2779 6.75004 12.2883 6.75004 11.0729C6.75004 9.85745 7.62787 8.8677 8.73166 8.8677C9.84413 8.8677 10.7306 9.86606 10.7133 11.0728C10.7133 12.2883 9.83545 13.2779 8.73166 13.2779ZM16.0584 13.2779C14.972 13.2779 14.0768 12.2883 14.0768 11.0729C14.0768 9.85745 14.9546 8.8677 16.0584 8.8677C17.171 8.8677 18.0574 9.86606 18.0401 11.0728C18.0401 12.2883 17.171 13.2779 16.0584 13.2779Z" fill="url(#paint0_linear_6_973)"/>
<defs>
<linearGradient id="paint0_linear_6_973" x1="0.235502" y1="2.24365" x2="-3.42031" y2="28.5918" gradientUnits="userSpaceOnUse">
<stop stop-color="white"/>
</linearGradient>
</defs>
</svg>
