<svg width="60" height="60" viewBox="0 0 60 60" fill="none" xmlns="http://www.w3.org/2000/svg">
<rect width="60" height="60" rx="30" fill="#D974F3" fill-opacity="0.1"/>
<path fillRule="evenodd" clipRule="evenodd" d="M30 40C35.5228 40 40 35.5228 40 30C40 24.4772 35.5228 20 30 20C24.4772 20 20 24.4772 20 30C20 35.5228 24.4772 40 30 40ZM34.592 27.4605C34.8463 27.1335 34.7874 26.6623 34.4605 26.408C34.1335 26.1537 33.6623 26.2126 33.408 26.5396L29.401 31.6914C29.3119 31.806 29.1443 31.8209 29.0364 31.7238L26.5017 29.4426C26.1938 29.1655 25.7196 29.1904 25.4425 29.4983C25.1654 29.8062 25.1904 30.2804 25.4983 30.5575L28.033 32.8387C28.7881 33.5183 29.9613 33.4143 30.585 32.6123L34.592 27.4605Z" fill="#D974F3"/>
</svg>
