<svg width="172" height="21" viewBox="0 0 172 21" fill="none" xmlns="http://www.w3.org/2000/svg">
<path d="M0.958154 20.3896V1.07272H9.02892L15.4591 16.4733H16.3852L15.856 16.9496V1.07272H20.4603V20.3896H12.3366L5.90646 4.98903H4.98031L5.50954 4.51272V20.3896H0.958154ZM24.3704 20.3896V1.07272H29.1335V20.3896H24.3704ZM28.6043 20.3896V16.3675H36.7544V20.3896H28.6043ZM28.6043 12.5835V8.56134H36.1987V12.5835H28.6043ZM28.6043 5.09488V1.07272H36.5956V5.09488H28.6043ZM38.2309 20.3896L44.6346 10.1226L44.6875 10.546L38.7601 1.07272H44.1583L47.466 6.65611H48.154L51.3558 1.07272H56.5952L50.6943 10.5989L50.6149 10.1755L57.2303 20.3896H51.8321L47.8893 14.0124H47.2013L43.4703 20.3896H38.2309ZM63.2747 20.3896V4.83026H68.1965V20.3896H63.2747ZM57.9824 5.35949V1.07272H73.4888V5.35949H57.9824ZM75.9756 20.3896V1.07272H80.8974V20.3896H75.9756ZM80.3682 12.901V8.87888H87.5393V12.901H80.3682ZM80.3682 5.09488V1.07272H87.8303V5.09488H80.3682ZM90.7827 20.3896V1.07272H95.7045V20.3896H90.7827ZM95.1753 20.3896V16.1029H103.008V20.3896H95.1753ZM114.701 20.9189C112.937 20.9189 111.402 20.619 110.097 20.0192C108.791 19.4018 107.707 18.5991 106.842 17.6112C105.978 16.6056 105.334 15.5207 104.91 14.3564C104.487 13.1921 104.275 12.0631 104.275 10.9693V10.3872C104.275 9.16996 104.496 7.97919 104.937 6.81488C105.378 5.63293 106.039 4.56565 106.922 3.61303C107.804 2.66042 108.889 1.90185 110.176 1.33734C111.482 0.772827 112.99 0.490571 114.701 0.490571C116.395 0.490571 117.885 0.772827 119.173 1.33734C120.479 1.90185 121.572 2.66042 122.454 3.61303C123.337 4.56565 123.998 5.63293 124.439 6.81488C124.898 7.97919 125.127 9.16996 125.127 10.3872V10.9693C125.127 12.0631 124.907 13.1921 124.466 14.3564C124.042 15.5207 123.398 16.6056 122.534 17.6112C121.669 18.5991 120.585 19.4018 119.279 20.0192C117.974 20.619 116.448 20.9189 114.701 20.9189ZM114.701 16.3146C115.548 16.3146 116.307 16.1734 116.977 15.8912C117.647 15.6089 118.221 15.212 118.697 14.7004C119.173 14.1888 119.535 13.5979 119.782 12.9275C120.029 12.2395 120.152 11.4986 120.152 10.7047C120.152 9.85796 120.02 9.09057 119.755 8.40257C119.508 7.71457 119.147 7.1236 118.67 6.62965C118.194 6.1357 117.621 5.75642 116.95 5.4918C116.28 5.22719 115.53 5.09488 114.701 5.09488C113.854 5.09488 113.096 5.22719 112.426 5.4918C111.755 5.75642 111.182 6.1357 110.706 6.62965C110.229 7.1236 109.868 7.71457 109.621 8.40257C109.374 9.09057 109.25 9.85796 109.25 10.7047C109.25 11.4986 109.374 12.2395 109.621 12.9275C109.868 13.5979 110.229 14.1888 110.706 14.7004C111.182 15.212 111.755 15.6089 112.426 15.8912C113.096 16.1734 113.854 16.3146 114.701 16.3146ZM130.858 20.3896L126.254 1.07272H131.335L134.801 17.082L133.981 16.4733H136.124L135.198 17.082L137.818 1.76072H141.813L138.188 20.3896H130.858ZM142.343 20.3896L138.453 1.76072H142.66L145.73 17.082L144.803 16.4733H146.815L146.127 17.082L149.117 1.07272H153.88L149.831 20.3896H142.343ZM163.145 20.9189C161.345 20.9189 159.828 20.6366 158.593 20.0721C157.376 19.5076 156.45 18.7402 155.815 17.77C155.197 16.7821 154.889 15.653 154.889 14.3829H159.652C159.652 14.8415 159.775 15.2649 160.022 15.653C160.287 16.0235 160.675 16.3146 161.186 16.5263C161.698 16.738 162.351 16.8438 163.145 16.8438C163.833 16.8438 164.415 16.7556 164.891 16.5792C165.385 16.4028 165.756 16.1558 166.002 15.8383C166.267 15.5207 166.399 15.1414 166.399 14.7004C166.399 14.1359 166.161 13.7037 165.685 13.4038C165.209 13.0863 164.406 12.8834 163.277 12.7952L162.033 12.6893C160.04 12.5129 158.452 11.8867 157.27 10.8106C156.088 9.73447 155.497 8.30555 155.497 6.5238C155.497 5.25365 155.788 4.16873 156.37 3.26903C156.97 2.36934 157.808 1.68134 158.884 1.20503C159.96 0.728725 161.231 0.490571 162.695 0.490571C164.282 0.490571 165.623 0.755186 166.717 1.28442C167.828 1.81365 168.675 2.56339 169.257 3.53365C169.839 4.48626 170.13 5.59765 170.13 6.8678H165.367C165.367 6.44442 165.262 6.05631 165.05 5.70349C164.838 5.35067 164.529 5.07724 164.124 4.88319C163.736 4.67149 163.259 4.56565 162.695 4.56565C162.166 4.56565 161.716 4.65385 161.345 4.83026C160.992 4.98903 160.719 5.21837 160.525 5.51826C160.349 5.81816 160.26 6.15334 160.26 6.5238C160.26 7.01775 160.428 7.44114 160.763 7.79396C161.098 8.14678 161.68 8.35847 162.51 8.42903L163.753 8.53488C165.2 8.65837 166.479 8.9759 167.59 9.48749C168.702 9.98144 169.575 10.6606 170.21 11.525C170.845 12.3894 171.162 13.4479 171.162 14.7004C171.162 15.9529 170.836 17.0467 170.183 17.9816C169.548 18.9166 168.631 19.6399 167.431 20.1515C166.249 20.6631 164.821 20.9189 163.145 20.9189Z" fill="url(#paint0_linear_735_30)"/>
<defs>
<linearGradient id="paint0_linear_735_30" x1="-1" y1="11.8896" x2="172" y2="11.8896" gradientUnits="userSpaceOnUse">
<stop offset="0.08" stop-color="#999999" stop-opacity="0"/>
<stop offset="0.705" stop-color="white"/>
</linearGradient>
</defs>
</svg>
