<svg width="204" height="40" viewBox="0 0 204 40" fill="none" xmlns="http://www.w3.org/2000/svg">
<path d="M2.57617 26.8571C2.57617 24.0169 4.87868 21.7144 7.71896 21.7144C10.5592 21.7144 12.8618 24.0169 12.8618 26.8571C12.8618 29.6974 10.5592 31.9999 7.71896 31.9999C4.87868 31.9999 2.57617 29.6974 2.57617 26.8571Z" fill="white"/>
<path d="M14.8618 19.9997C14.8618 17.1594 17.1643 14.8569 20.0046 14.8569C22.8449 14.8569 25.1474 17.1594 25.1474 19.9997V26.8568C25.1474 29.6971 22.8449 31.9996 20.0046 31.9996C17.1643 31.9996 14.8618 29.6971 14.8618 26.8568V19.9997Z" fill="white"/>
<path d="M14.8618 18.2859C14.8618 15.4456 17.1643 13.1431 20.0046 13.1431C22.8449 13.1431 25.1474 15.4456 25.1474 18.2859C25.1474 21.1261 22.8449 23.4286 20.0046 23.4286C17.1643 23.4286 14.8618 21.1261 14.8618 18.2859Z" fill="white"/>
<path d="M27.1475 13.1428C27.1475 10.3025 29.45 8 32.2903 8C35.1305 8 37.433 10.3025 37.433 13.1428V26.8569C37.433 29.6972 35.1305 31.9997 32.2903 31.9997C29.45 31.9997 27.1475 29.6972 27.1475 26.8569V13.1428Z" fill="white"/>
<path d="M27.1475 13.1428C27.1475 10.3025 29.45 8 32.2903 8C35.1305 8 37.433 10.3025 37.433 13.1428C37.433 15.9831 35.1305 18.2856 32.2903 18.2856C29.45 18.2856 27.1475 15.9831 27.1475 13.1428Z" fill="white"/>
<path d="M54.5644 32H50.5964V8.608H54.5644L62.1164 27.232L69.6684 8.608H73.7004V32H69.7324V24.8C69.7324 20.096 69.7324 18.72 69.9564 17.056L64.0044 32H60.2284L54.3084 17.088C54.5324 18.496 54.5644 20.704 54.5644 23.616V32ZM81.0056 32.416C77.6456 32.416 75.5976 30.464 75.5976 27.488C75.5976 24.576 77.7096 22.752 81.4536 22.464L86.1896 22.112V21.76C86.1896 19.616 84.9096 18.752 82.9256 18.752C80.6216 18.752 79.3416 19.712 79.3416 21.376H76.0136C76.0136 17.952 78.8296 15.712 83.1176 15.712C87.3736 15.712 89.9976 18.016 89.9976 22.4V32H86.5736L86.2856 29.664C85.6136 31.296 83.4696 32.416 81.0056 32.416ZM82.2856 29.472C84.6856 29.472 86.2216 28.032 86.2216 25.6V24.768L82.9256 25.024C80.4936 25.248 79.5656 26.048 79.5656 27.328C79.5656 28.768 80.5256 29.472 82.2856 29.472ZM101.753 16.128V19.744H100.313C97.4969 19.744 95.7369 21.248 95.7369 24.32V32H91.8329V16.224H95.5129L95.7369 18.528C96.4089 16.96 97.9129 15.904 100.025 15.904C100.569 15.904 101.113 15.968 101.753 16.128ZM106.331 32H102.459V8.192H106.331V22.816L112.475 16.192H117.371L111.355 22.464L117.243 32H112.763L108.635 25.344L106.331 27.744V32ZM123.967 32.416C119.263 32.416 115.967 28.992 115.967 24.096C115.967 19.136 119.199 15.712 123.839 15.712C128.575 15.712 131.583 18.88 131.583 23.808V24.992L119.679 25.024C119.967 27.808 121.439 29.216 124.031 29.216C126.175 29.216 127.583 28.384 128.031 26.88H131.647C130.975 30.336 128.095 32.416 123.967 32.416ZM123.871 18.912C121.567 18.912 120.159 20.16 119.775 22.528H127.711C127.711 20.352 126.207 18.912 123.871 18.912ZM137.928 32H134.024V19.456H130.984V16.192H134.024V11.264H137.928V16.192H141V19.456H137.928V32ZM140.659 15.136C140.659 11.04 144.051 8.192 148.979 8.192C153.715 8.192 156.723 10.816 156.851 15.04H152.755C152.659 13.024 151.219 11.84 148.915 11.84C146.387 11.84 144.755 13.056 144.755 15.008C144.755 16.672 145.651 17.6 147.603 18.048L151.283 18.848C155.283 19.712 157.235 21.76 157.235 25.248C157.235 29.6 153.843 32.416 148.691 32.416C143.699 32.416 140.435 29.76 140.339 25.568H144.435C144.467 27.552 146.067 28.736 148.691 28.736C151.411 28.736 153.139 27.552 153.139 25.6C153.139 24.032 152.339 23.104 150.419 22.688L146.707 21.856C142.739 20.992 140.659 18.72 140.659 15.136ZM163.068 32.416C159.708 32.416 157.66 30.464 157.66 27.488C157.66 24.576 159.772 22.752 163.516 22.464L168.252 22.112V21.76C168.252 19.616 166.972 18.752 164.988 18.752C162.684 18.752 161.404 19.712 161.404 21.376H158.076C158.076 17.952 160.892 15.712 165.18 15.712C169.436 15.712 172.06 18.016 172.06 22.4V32H168.636L168.348 29.664C167.676 31.296 165.532 32.416 163.068 32.416ZM164.348 29.472C166.748 29.472 168.284 28.032 168.284 25.6V24.768L164.988 25.024C162.556 25.248 161.628 26.048 161.628 27.328C161.628 28.768 162.588 29.472 164.348 29.472ZM177.75 32L171.478 16.192H175.638L178.39 23.456C179.062 25.344 179.606 26.976 179.798 27.84C180.022 26.848 180.598 25.184 181.27 23.456L184.15 16.192H188.182L181.59 32H177.75ZM187.051 39.328V36.064H189.387C190.923 36.064 191.883 35.712 192.555 33.856L193.003 32.672L186.635 16.192H190.763L194.827 27.712L199.115 16.192H203.147L195.403 35.52C194.219 38.464 192.555 39.68 189.963 39.68C188.875 39.68 187.915 39.552 187.051 39.328Z" fill="white"/>
</svg>
