<svg width="173" height="40" viewBox="0 0 173 40" fill="none" xmlns="http://www.w3.org/2000/svg">
<path fillRule="evenodd" clipRule="evenodd" d="M19.9999 24.4679C25.3643 24.4679 29.7131 20.1192 29.7131 14.7548C29.7131 9.39036 25.3643 5.04164 19.9999 5.04164H10.2868V14.7548C10.2868 20.1192 14.6355 24.4679 19.9999 24.4679ZM34.5696 14.7548C34.5696 22.8014 28.0465 29.3245 19.9999 29.3245C11.9533 29.3245 5.43018 22.8014 5.43018 14.7548V0.185059H19.9999C28.0465 0.185059 34.5696 6.70815 34.5696 14.7548Z" fill="white"/>
<path fillRule="evenodd" clipRule="evenodd" d="M19.9999 34.9584C25.3643 34.9584 29.7131 30.6097 29.7131 25.2453C29.7131 19.8808 25.3643 15.5321 19.9999 15.5321H10.2868V25.2453C10.2868 30.6097 14.6355 34.9584 19.9999 34.9584ZM34.5696 25.2453C34.5696 33.2919 28.0465 39.815 19.9999 39.815C11.9533 39.815 5.43018 33.2919 5.43018 25.2453V10.6755H19.9999C28.0465 10.6755 34.5696 17.1986 34.5696 25.2453Z" fill="white"/>
<path d="M50.592 32.5V9.108H59.904C64.512 9.108 67.328 11.508 67.328 15.412C67.328 18.004 66.176 19.86 63.968 20.788C66.432 21.588 67.68 23.444 67.68 26.164C67.68 30.164 64.896 32.5 60.064 32.5H50.592ZM59.552 12.724H54.688V19.092H59.648C61.888 19.092 63.136 17.908 63.136 15.828C63.136 13.812 61.856 12.724 59.552 12.724ZM59.904 22.548H54.688V28.884H59.904C62.208 28.884 63.488 27.764 63.488 25.652C63.488 23.668 62.176 22.548 59.904 22.548ZM75.9318 32.916C71.2278 32.916 67.9318 29.492 67.9318 24.596C67.9318 19.636 71.1638 16.212 75.8038 16.212C80.5398 16.212 83.5478 19.38 83.5478 24.308V25.492L71.6438 25.524C71.9318 28.308 73.4038 29.716 75.9958 29.716C78.1398 29.716 79.5478 28.884 79.9958 27.38H83.6118C82.9398 30.836 80.0598 32.916 75.9318 32.916ZM75.8358 19.412C73.5318 19.412 72.1238 20.66 71.7398 23.028H79.6758C79.6758 20.852 78.1718 19.412 75.8358 19.412ZM83.4563 27.7H87.1683C87.2003 29.076 88.2243 29.94 90.0163 29.94C91.8403 29.94 92.8323 29.204 92.8323 28.052C92.8323 27.252 92.4163 26.676 91.0083 26.356L88.1603 25.684C85.3123 25.044 83.9363 23.7 83.9363 21.172C83.9363 18.068 86.5603 16.212 90.2083 16.212C93.7603 16.212 96.1603 18.26 96.1923 21.332H92.4803C92.4483 19.988 91.5523 19.124 90.0483 19.124C88.5123 19.124 87.6163 19.828 87.6163 21.012C87.6163 21.908 88.3203 22.484 89.6643 22.804L92.5123 23.476C95.1683 24.084 96.5123 25.3 96.5123 27.732C96.5123 30.932 93.7923 32.916 89.8883 32.916C85.9523 32.916 83.4563 30.804 83.4563 27.7ZM102.861 32.5H98.9568V19.956H95.9168V16.692H98.9568V11.764H102.861V16.692H105.933V19.956H102.861V32.5ZM106.936 32.5V9.108H116.248C120.856 9.108 123.672 11.508 123.672 15.412C123.672 18.004 122.52 19.86 120.312 20.788C122.776 21.588 124.024 23.444 124.024 26.164C124.024 30.164 121.24 32.5 116.408 32.5H106.936ZM115.896 12.724H111.032V19.092H115.992C118.232 19.092 119.48 17.908 119.48 15.828C119.48 13.812 118.2 12.724 115.896 12.724ZM116.248 22.548H111.032V28.884H116.248C118.552 28.884 119.832 27.764 119.832 25.652C119.832 23.668 118.52 22.548 116.248 22.548ZM129.908 32.916C126.548 32.916 124.5 30.964 124.5 27.988C124.5 25.076 126.612 23.252 130.356 22.964L135.092 22.612V22.26C135.092 20.116 133.812 19.252 131.828 19.252C129.524 19.252 128.244 20.212 128.244 21.876H124.916C124.916 18.452 127.732 16.212 132.02 16.212C136.276 16.212 138.9 18.516 138.9 22.9V32.5H135.476L135.188 30.164C134.516 31.796 132.372 32.916 129.908 32.916ZM131.188 29.972C133.588 29.972 135.124 28.532 135.124 26.1V25.268L131.828 25.524C129.396 25.748 128.468 26.548 128.468 27.828C128.468 29.268 129.428 29.972 131.188 29.972ZM144.639 32.5H140.735V16.692H144.351L144.671 18.74C145.663 17.14 147.583 16.212 149.727 16.212C153.695 16.212 155.743 18.676 155.743 22.772V32.5H151.839V23.7C151.839 21.044 150.527 19.764 148.511 19.764C146.111 19.764 144.639 21.428 144.639 23.988V32.5ZM161.515 32.5H157.643V8.692H161.515V23.316L167.659 16.692H172.555L166.539 22.964L172.427 32.5H167.947L163.819 25.844L161.515 28.244V32.5Z" fill="url(#paint0_linear_5_13261)"/>
<defs>
<linearGradient id="paint0_linear_5_13261" x1="48" y1="20" x2="152" y2="20" gradientUnits="userSpaceOnUse">
<stop stopColor="#D9D9D9"/>
<stop offset="1" stopColor="#737373" stop-opacity="0"/>
</linearGradient>
</defs>
</svg>
