<svg width="179" height="19" viewBox="0 0 179 19" fill="none" xmlns="http://www.w3.org/2000/svg">
<path d="M5.76862 18.5H0.793846V0.770769H6.08615L11.008 7.41261L13.6012 11.4877H13.9452L13.7071 7.62431V0.770769H18.6818V18.5H13.3895L8.15015 11.6729L5.90092 8.18H5.55692L5.76862 11.5671V18.5ZM36.0228 18.5H20.2782V0.770769H36.0228V5.24277H25.253V7.35969H35.6259V11.8052H25.253V14.028H36.0228V18.5ZM42.888 18.5H36.3784L43.0732 9.79415V9.45015L36.3784 0.770769H42.888L47.1747 6.51292H47.5187L51.5673 0.770769H58.0769L51.4086 9.556V9.9L58.0769 18.5H51.5673L47.307 12.7314H46.963L42.888 18.5ZM69.4502 18.5H64.4754V5.24277H58.204V0.770769H75.6951V5.24277H69.4502V18.5ZM81.8714 18.5H76.8966V0.770769H92.7471V5.24277H81.8714V7.88892H92.3502V12.3345H81.8714V18.5ZM109.271 18.5H94.0553V0.770769H99.03V14.028H109.271V18.5ZM120.146 18.7646C113.981 18.7646 110.329 15.1658 110.329 9.63538C110.329 4.10492 113.981 0.506154 120.146 0.506154C126.471 0.506154 130.069 4.10492 130.069 9.63538C130.069 15.1658 126.471 18.7646 120.146 18.7646ZM120.146 14.0015C123.745 14.0015 124.777 13.1548 124.777 9.63538C124.777 6.116 123.745 5.26923 120.146 5.26923C116.548 5.26923 115.621 6.116 115.621 9.63538C115.621 13.1548 116.548 14.0015 120.146 14.0015ZM141.928 18.5H134.545L130.84 0.770769H136.397L137.879 9.79415L138.355 13.7898H138.699L139.414 9.79415L141.795 0.770769H149.284L151.454 9.79415L152.089 13.7898H152.433L152.962 9.79415L154.629 0.770769H160.08L156.032 18.5H148.649L146.797 10.9055L145.632 5.34862H145.288L144.045 10.9055L141.928 18.5ZM169.714 18.7646C164.289 18.7646 160.981 16.8329 160.981 12.3345V12.1757H165.956V12.7314C165.956 13.9222 166.379 14.2397 169.714 14.2397C172.73 14.2397 173.048 14.0015 173.048 13.2077C173.048 12.5726 172.704 12.308 171.248 12.1228L165.691 11.3818C162.384 10.932 160.717 9.15908 160.717 6.30123C160.717 3.46985 162.913 0.506154 169.317 0.506154C174.953 0.506154 177.652 2.96708 177.652 6.93631V7.09508H172.677V6.69815C172.677 5.428 172.122 5.00461 168.787 5.00461C166.247 5.00461 165.691 5.34862 165.691 6.116C165.691 6.67169 166.009 6.93631 166.962 7.06862L172.518 7.88892C176.858 8.524 178.022 10.7468 178.022 13.0225C178.022 16.0655 175.694 18.7646 169.714 18.7646Z" fill="url(#paint0_linear_183_248)"/>
<defs>
<linearGradient id="paint0_linear_183_248" x1="0" y1="10" x2="179" y2="10" gradientUnits="userSpaceOnUse">
<stop offset="0.08" stopColor="#999999" stop-opacity="0"/>
<stop offset="0.705" stopColor="white"/>
</linearGradient>
</defs>
</svg>
