<svg width="169" height="40" viewBox="0 0 169 40" fill="none" xmlns="http://www.w3.org/2000/svg">
<rect x="24.0723" y="9.80005" width="6.8" height="6.8" fill="white"/>
<rect x="17.2725" y="16.6001" width="6.8" height="6.8" fill="white"/>
<rect x="17.2725" y="16.6001" width="6.8" height="6.8" fill="white"/>
<rect x="24.0723" y="23.3999" width="6.8" height="6.8" fill="white"/>
<rect x="17.2725" y="30.2" width="6.8" height="6.8" fill="white"/>
<rect x="10.4727" y="30.2002" width="6.8" height="6.8" fill="white"/>
<rect x="17.2725" y="3" width="6.8" height="6.8" fill="white"/>
<path d="M10.4727 3H17.2727V9.8H10.4727V3Z" fill="white"/>
<path d="M52.1289 28.896H51.9689C51.6062 29.8773 51.0089 30.6454 50.1769 31.2C49.3662 31.7547 48.4062 32.032 47.2969 32.032C45.1849 32.032 43.5529 31.2747 42.4009 29.76C41.2489 28.224 40.6729 26.08 40.6729 23.328C40.6729 20.576 41.2489 18.4427 42.4009 16.928C43.5529 15.392 45.1849 14.624 47.2969 14.624C48.4062 14.624 49.3662 14.9014 50.1769 15.456C51.0089 15.9894 51.6062 16.7573 51.9689 17.76H52.1289V7.96802H55.6169V31.648H52.1289V28.896ZM48.3529 29.024C49.4195 29.024 50.3155 28.768 51.0409 28.256C51.7662 27.7227 52.1289 27.0294 52.1289 26.176V20.48C52.1289 19.6267 51.7662 18.944 51.0409 18.432C50.3155 17.8987 49.4195 17.632 48.3529 17.632C47.1369 17.632 46.1662 18.0267 45.4409 18.816C44.7155 19.584 44.3529 20.608 44.3529 21.888V24.768C44.3529 26.048 44.7155 27.0827 45.4409 27.872C46.1662 28.64 47.1369 29.024 48.3529 29.024Z" fill="white"/>
<path d="M70.7944 31.648C69.877 31.648 69.173 31.392 68.6824 30.88C68.1917 30.3467 67.893 29.6747 67.7864 28.864H67.6264C67.3064 29.9094 66.7197 30.6987 65.8664 31.232C65.013 31.7654 63.9784 32.032 62.7624 32.032C61.0344 32.032 59.701 31.584 58.7624 30.688C57.845 29.792 57.3864 28.5867 57.3864 27.072C57.3864 25.408 57.9837 24.16 59.1784 23.328C60.3944 22.496 62.165 22.08 64.4904 22.08H67.4984V20.672C67.4984 19.648 67.221 18.8587 66.6664 18.304C66.1117 17.7494 65.2477 17.472 64.0744 17.472C63.093 17.472 62.293 17.6854 61.6744 18.112C61.0557 18.5387 60.533 19.0827 60.1064 19.744L58.0264 17.856C58.581 16.9174 59.3597 16.1494 60.3624 15.552C61.365 14.9334 62.677 14.624 64.2984 14.624C66.453 14.624 68.1064 15.1254 69.2584 16.128C70.4104 17.1307 70.9864 18.5707 70.9864 20.448V28.8H72.7463V31.648H70.7944ZM63.7544 29.376C64.8424 29.376 65.7384 29.1414 66.4424 28.672C67.1464 28.1814 67.4984 27.5307 67.4984 26.72V24.32H64.5544C62.1437 24.32 60.9384 25.0667 60.9384 26.56V27.136C60.9384 27.8827 61.1837 28.448 61.6744 28.832C62.1864 29.1947 62.8797 29.376 63.7544 29.376Z" fill="white"/>
<path d="M78.6791 31.648C77.4631 31.648 76.5458 31.3387 75.9271 30.72C75.3084 30.08 74.9991 29.184 74.9991 28.032V17.856H72.4071V15.008H73.8151C74.3911 15.008 74.7858 14.88 74.9991 14.624C75.2338 14.368 75.3511 13.952 75.3511 13.376V10.464H78.4871V15.008H81.9751V17.856H78.4871V28.8H81.7191V31.648H78.6791Z" fill="white"/>
<path d="M95.9506 31.648C95.0333 31.648 94.3293 31.392 93.8386 30.88C93.3479 30.3467 93.0493 29.6747 92.9426 28.864H92.7826C92.4626 29.9094 91.8759 30.6987 91.0226 31.232C90.1693 31.7654 89.1346 32.032 87.9186 32.032C86.1906 32.032 84.8573 31.584 83.9186 30.688C83.0013 29.792 82.5426 28.5867 82.5426 27.072C82.5426 25.408 83.1399 24.16 84.3346 23.328C85.5506 22.496 87.3213 22.08 89.6466 22.08H92.6546V20.672C92.6546 19.648 92.3773 18.8587 91.8226 18.304C91.2679 17.7494 90.4039 17.472 89.2306 17.472C88.2493 17.472 87.4493 17.6854 86.8306 18.112C86.2119 18.5387 85.6893 19.0827 85.2626 19.744L83.1826 17.856C83.7373 16.9174 84.5159 16.1494 85.5186 15.552C86.5213 14.9334 87.8333 14.624 89.4546 14.624C91.6093 14.624 93.2626 15.1254 94.4146 16.128C95.5666 17.1307 96.1426 18.5707 96.1426 20.448V28.8H97.9026V31.648H95.9506ZM88.9106 29.376C89.9986 29.376 90.8946 29.1414 91.5986 28.672C92.3026 28.1814 92.6546 27.5307 92.6546 26.72V24.32H89.7106C87.2999 24.32 86.0946 25.0667 86.0946 26.56V27.136C86.0946 27.8827 86.3399 28.448 86.8306 28.832C87.3426 29.1947 88.0359 29.376 88.9106 29.376Z" fill="white"/>
<path d="M99.5771 9.31202H109.465C111.321 9.31202 112.772 9.83468 113.817 10.88C114.884 11.9254 115.417 13.3227 115.417 15.072C115.417 15.904 115.3 16.6187 115.065 17.216C114.83 17.792 114.532 18.272 114.169 18.656C113.806 19.0187 113.39 19.296 112.921 19.488C112.452 19.6587 111.993 19.7654 111.545 19.808V20C111.993 20.0214 112.484 20.128 113.017 20.32C113.572 20.512 114.084 20.8213 114.553 21.248C115.022 21.6533 115.417 22.1867 115.737 22.848C116.057 23.488 116.217 24.2774 116.217 25.216C116.217 26.112 116.068 26.9547 115.769 27.744C115.492 28.5334 115.097 29.216 114.585 29.792C114.073 30.368 113.465 30.8267 112.761 31.168C112.057 31.488 111.289 31.648 110.457 31.648H99.5771V9.31202ZM103.193 28.544H109.401C110.34 28.544 111.076 28.2987 111.609 27.808C112.142 27.3174 112.409 26.6134 112.409 25.696V24.608C112.409 23.6907 112.142 22.9867 111.609 22.496C111.076 22.0054 110.34 21.76 109.401 21.76H103.193V28.544ZM103.193 18.752H108.793C109.689 18.752 110.382 18.528 110.873 18.08C111.364 17.6107 111.609 16.9494 111.609 16.096V15.072C111.609 14.2187 111.364 13.568 110.873 13.12C110.382 12.6507 109.689 12.416 108.793 12.416H103.193V18.752Z" fill="white"/>
<path d="M118.415 15.008H121.903V31.648H118.415V15.008Z" fill="white"/>
<path d="M129.492 31.648C128.276 31.648 127.358 31.3387 126.74 30.72C126.121 30.08 125.812 29.184 125.812 28.032V17.856H123.22V15.008H124.628C125.204 15.008 125.598 14.88 125.812 14.624C126.046 14.368 126.164 13.952 126.164 13.376V10.464H129.3V15.008H132.788V17.856H129.3V28.8H132.532V31.648H129.492Z" fill="white"/>
<path d="M140.974 32.032C139.779 32.032 138.713 31.8293 137.774 31.424C136.835 31.0187 136.035 30.4427 135.374 29.696C134.713 28.928 134.201 28.0107 133.838 26.944C133.497 25.856 133.326 24.6507 133.326 23.328C133.326 22.0054 133.497 20.8107 133.838 19.744C134.201 18.656 134.713 17.7387 135.374 16.992C136.035 16.224 136.835 15.6374 137.774 15.232C138.713 14.8267 139.779 14.624 140.974 14.624C142.19 14.624 143.257 14.8374 144.174 15.264C145.113 15.6907 145.891 16.288 146.51 17.056C147.129 17.8027 147.587 18.6774 147.886 19.68C148.206 20.6827 148.366 21.76 148.366 22.912V24.224H136.942V24.768C136.942 26.048 137.315 27.104 138.062 27.936C138.83 28.7467 139.918 29.152 141.326 29.152C142.35 29.152 143.214 28.928 143.918 28.48C144.622 28.032 145.219 27.424 145.71 26.656L147.758 28.672C147.139 29.696 146.243 30.5174 145.07 31.136C143.897 31.7334 142.531 32.032 140.974 32.032ZM140.974 17.344C140.377 17.344 139.822 17.4507 139.31 17.664C138.819 17.8774 138.393 18.176 138.03 18.56C137.689 18.944 137.422 19.4027 137.23 19.936C137.038 20.4694 136.942 21.056 136.942 21.696V21.92H144.686V21.6C144.686 20.32 144.355 19.296 143.694 18.528C143.033 17.7387 142.126 17.344 140.974 17.344Z" fill="white"/>
<path d="M155.507 32.032C153.929 32.032 152.606 31.7547 151.539 31.2C150.473 30.6454 149.545 29.8773 148.755 28.896L150.995 26.848C151.614 27.5947 152.297 28.1814 153.043 28.608C153.811 29.0133 154.697 29.216 155.699 29.216C156.723 29.216 157.481 29.024 157.971 28.64C158.483 28.2347 158.739 27.68 158.739 26.976C158.739 26.4427 158.558 25.9947 158.195 25.632C157.854 25.248 157.246 25.0027 156.371 24.896L154.835 24.704C153.129 24.4907 151.785 24 150.803 23.232C149.843 22.4427 149.363 21.28 149.363 19.744C149.363 18.9334 149.513 18.2187 149.811 17.6C150.11 16.96 150.526 16.4267 151.059 16C151.614 15.552 152.265 15.2107 153.011 14.976C153.779 14.7414 154.622 14.624 155.539 14.624C157.033 14.624 158.249 14.8587 159.187 15.328C160.147 15.7973 161.001 16.448 161.747 17.28L159.603 19.328C159.177 18.816 158.611 18.3787 157.907 18.016C157.225 17.632 156.435 17.44 155.539 17.44C154.579 17.44 153.865 17.632 153.395 18.016C152.947 18.4 152.723 18.9014 152.723 19.52C152.723 20.16 152.926 20.64 153.331 20.96C153.737 21.28 154.387 21.5147 155.283 21.664L156.819 21.856C158.654 22.1334 159.987 22.6774 160.819 23.488C161.673 24.2774 162.099 25.344 162.099 26.688C162.099 27.4987 161.939 28.2347 161.619 28.896C161.321 29.536 160.883 30.0907 160.307 30.56C159.731 31.0294 159.038 31.392 158.227 31.648C157.417 31.904 156.51 32.032 155.507 32.032Z" fill="white"/>
<path d="M165.996 32.032C165.207 32.032 164.62 31.8293 164.236 31.424C163.852 30.9974 163.66 30.4747 163.66 29.856V29.376C163.66 28.7574 163.852 28.2453 164.236 27.84C164.62 27.4134 165.207 27.2 165.996 27.2C166.786 27.2 167.372 27.4134 167.756 27.84C168.14 28.2453 168.332 28.7574 168.332 29.376V29.856C168.332 30.4747 168.14 30.9974 167.756 31.424C167.372 31.8293 166.786 32.032 165.996 32.032Z" fill="white"/>
</svg>
