<svg width="145" height="40" viewBox="0 0 145 40" fill="none" xmlns="http://www.w3.org/2000/svg">
<path d="M20.6768 12L4.67676 20V28M20.6768 20L12.6768 24" stroke="white" stroke-width="2" stroke-linejoin="round"/>
<path d="M20.6768 28L4.67676 20V28L20.6768 36V28Z" stroke="white" stroke-width="2" stroke-linejoin="round"/>
<path d="M36.6768 20V12L20.6768 4V12L28.6768 16" stroke="white" stroke-width="2" stroke-linejoin="round"/>
<path d="M20.6768 20L36.6768 12V20L20.6768 28V20Z" stroke="white" stroke-width="2" stroke-linejoin="round"/>
<path d="M48.6768 27.1259V8.6459H62.5368V11.7539H52.5408V16.3459H60.4088V19.3139H52.5408V24.0179H62.9288V27.1259H48.6768Z" fill="white"/>
<path d="M64.0035 33.0059V13.1259H67.4475L67.6995 17.5779L67.2235 17.0739C67.3915 16.2526 67.6995 15.5246 68.1475 14.8899C68.6142 14.2552 69.2022 13.7606 69.9115 13.4059C70.6208 13.0326 71.4142 12.8459 72.2915 12.8459C73.4302 12.8459 74.4475 13.1352 75.3435 13.7139C76.2395 14.2926 76.9395 15.1232 77.4435 16.2059C77.9662 17.2699 78.2275 18.5672 78.2275 20.0979C78.2275 21.6286 77.9662 22.9446 77.4435 24.0459C76.9208 25.1286 76.2022 25.9592 75.2875 26.5379C74.3915 27.1166 73.3648 27.4059 72.2075 27.4059C70.9755 27.4059 69.9488 27.0606 69.1275 26.3699C68.3248 25.6792 67.7742 24.8112 67.4755 23.7659L67.8395 23.1779V33.0059H64.0035ZM71.0875 24.4659C72.1142 24.4659 72.9168 24.1019 73.4955 23.3739C74.0928 22.6272 74.3915 21.5446 74.3915 20.1259C74.3915 18.7072 74.1022 17.6339 73.5235 16.9059C72.9635 16.1592 72.1702 15.7859 71.1435 15.7859C70.4902 15.7859 69.9115 15.9632 69.4075 16.3179C68.9222 16.6539 68.5395 17.1486 68.2595 17.8019C67.9795 18.4366 67.8395 19.2112 67.8395 20.1259C67.8395 21.0032 67.9702 21.7779 68.2315 22.4499C68.4928 23.1032 68.8662 23.6072 69.3515 23.9619C69.8555 24.2979 70.4342 24.4659 71.0875 24.4659Z" fill="white"/>
<path d="M81.4902 11.1099C80.6875 11.1099 80.0902 10.9419 79.6982 10.6059C79.3062 10.2512 79.1102 9.7379 79.1102 9.0659C79.1102 8.37523 79.3062 7.8619 79.6982 7.5259C80.0902 7.17123 80.6875 6.9939 81.4902 6.9939C82.2929 6.9939 82.8902 7.17123 83.2822 7.5259C83.6742 7.8619 83.8702 8.37523 83.8702 9.0659C83.8702 9.7379 83.6742 10.2512 83.2822 10.6059C82.8902 10.9419 82.2929 11.1099 81.4902 11.1099ZM83.3942 13.1259V27.1259H79.5582V13.1259H83.3942Z" fill="white"/>
<path d="M91.8165 12.8459C93.0672 12.8459 94.1219 13.0326 94.9805 13.4059C95.8579 13.7606 96.5579 14.2552 97.0805 14.8899C97.6219 15.5059 98.0045 16.1966 98.2285 16.9619L94.6445 18.2499C94.4579 17.4099 94.1405 16.7752 93.6925 16.3459C93.2445 15.9166 92.6379 15.7019 91.8725 15.7019C91.1632 15.7019 90.5565 15.8699 90.0525 16.2059C89.5485 16.5232 89.1659 17.0179 88.9045 17.6899C88.6432 18.3432 88.5125 19.1646 88.5125 20.1539C88.5125 21.1432 88.6432 21.9646 88.9045 22.6179C89.1845 23.2712 89.5765 23.7566 90.0805 24.0739C90.6032 24.3912 91.2099 24.5499 91.9005 24.5499C92.4605 24.5499 92.9365 24.4566 93.3285 24.2699C93.7205 24.0646 94.0379 23.7752 94.2805 23.4019C94.5419 23.0286 94.7192 22.5806 94.8125 22.0579L98.2845 23.1779C98.0792 24.0179 97.6965 24.7552 97.1365 25.3899C96.5765 26.0246 95.8579 26.5192 94.9805 26.8739C94.1032 27.2286 93.0859 27.4059 91.9285 27.4059C90.4912 27.4059 89.2219 27.1166 88.1205 26.5379C87.0192 25.9592 86.1699 25.1286 85.5725 24.0459C84.9752 22.9632 84.6765 21.6566 84.6765 20.1259C84.6765 18.5952 84.9752 17.2886 85.5725 16.2059C86.1699 15.1232 87.0099 14.2926 88.0925 13.7139C89.1752 13.1352 90.4165 12.8459 91.8165 12.8459Z" fill="white"/>
<path d="M106.797 8.6459C109.691 8.6459 111.931 9.44856 113.517 11.0539C115.104 12.6406 115.897 14.9179 115.897 17.8859C115.897 20.8352 115.104 23.1126 113.517 24.7179C111.931 26.3232 109.691 27.1259 106.797 27.1259H99.6572V8.6459H106.797ZM106.601 24.0459C108.356 24.0459 109.672 23.5232 110.549 22.4779C111.445 21.4139 111.893 19.8832 111.893 17.8859C111.893 15.8886 111.445 14.3672 110.549 13.3219C109.672 12.2579 108.356 11.7259 106.601 11.7259H103.521V24.0459H106.601Z" fill="white"/>
<path d="M123.886 27.4059C122.412 27.4059 121.124 27.1166 120.022 26.5379C118.94 25.9592 118.1 25.1286 117.502 24.0459C116.905 22.9632 116.606 21.6566 116.606 20.1259C116.606 18.5952 116.905 17.2886 117.502 16.2059C118.1 15.1232 118.93 14.2926 119.994 13.7139C121.077 13.1352 122.309 12.8459 123.69 12.8459C125.109 12.8459 126.313 13.1352 127.302 13.7139C128.292 14.2739 129.048 15.0486 129.57 16.0379C130.093 17.0086 130.354 18.1192 130.354 19.3699C130.354 19.7432 130.345 20.0979 130.326 20.4339C130.308 20.7699 130.28 21.0686 130.242 21.3299H119.07V18.6699H128.562L126.714 19.3419C126.714 18.1659 126.444 17.2606 125.902 16.6259C125.38 15.9912 124.633 15.6739 123.662 15.6739C122.953 15.6739 122.337 15.8419 121.814 16.1779C121.31 16.5139 120.928 17.0179 120.666 17.6899C120.405 18.3432 120.274 19.1739 120.274 20.1819C120.274 21.1712 120.414 21.9926 120.694 22.6459C120.993 23.2806 121.404 23.7566 121.926 24.0739C122.468 24.3912 123.112 24.5499 123.858 24.5499C124.68 24.5499 125.342 24.3912 125.846 24.0739C126.35 23.7566 126.742 23.3179 127.022 22.7579L130.074 23.9339C129.776 24.6619 129.318 25.2872 128.702 25.8099C128.105 26.3326 127.386 26.7339 126.546 27.0139C125.725 27.2752 124.838 27.4059 123.886 27.4059Z" fill="white"/>
<path d="M140.352 13.1259H144.328L139.008 27.1259H134.584L129.264 13.1259H133.38L136.824 24.1859L140.352 13.1259Z" fill="white"/>
</svg>
