<svg width="173" height="41" viewBox="0 0 173 41" fill="none" xmlns="http://www.w3.org/2000/svg">
<g clip-path="url(#clip0_3_262)">
<path fill-rule="evenodd" clip-rule="evenodd" d="M20 25.3576C25.3644 25.3576 29.7132 21.0089 29.7132 15.6444C29.7132 10.28 25.3644 5.93128 20 5.93128H10.2868V15.6444C10.2868 21.0089 14.6356 25.3576 20 25.3576ZM34.5697 15.6444C34.5697 23.6911 28.0466 30.2142 20 30.2142C11.9534 30.2142 5.43027 23.6911 5.43027 15.6444V1.07471H20C28.0466 1.07471 34.5697 7.5978 34.5697 15.6444Z" fill="white"/>
<path fill-rule="evenodd" clip-rule="evenodd" d="M20 35.8483C25.3644 35.8483 29.7132 31.4996 29.7132 26.1352C29.7132 20.7707 25.3644 16.422 20 16.422H10.2868V26.1352C10.2868 31.4996 14.6356 35.8483 20 35.8483ZM34.5697 26.1352C34.5697 34.1818 28.0466 40.7049 20 40.7049C11.9534 40.7049 5.43027 34.1818 5.43027 26.1352V11.5654H20C28.0466 11.5654 34.5697 18.0885 34.5697 26.1352Z" fill="white"/>
</g>
<path d="M50.592 33.3896H60.064C64.896 33.3896 67.68 31.0536 67.68 27.0536C67.68 24.3336 66.432 22.4776 63.968 21.6776C66.176 20.7496 67.328 18.8936 67.328 16.3016C67.328 12.3976 64.512 9.99765 59.904 9.99765H50.592V33.3896ZM59.552 13.6136C61.856 13.6136 63.136 14.7016 63.136 16.7176C63.136 18.7976 61.888 19.9816 59.648 19.9816H54.688V13.6136H59.552ZM59.904 23.4376C62.176 23.4376 63.488 24.5576 63.488 26.5416C63.488 28.6536 62.208 29.7736 59.904 29.7736H54.688V23.4376H59.904ZM75.9318 33.8056C80.0598 33.8056 82.9398 31.7256 83.6118 28.2696H79.9958C79.5478 29.7736 78.1398 30.6056 75.9958 30.6056C73.4038 30.6056 71.9318 29.1976 71.6438 26.4136L83.5478 26.3816V25.1976C83.5478 20.2696 80.5398 17.1016 75.8038 17.1016C71.1638 17.1016 67.9318 20.5256 67.9318 25.4856C67.9318 30.3816 71.2278 33.8056 75.9318 33.8056ZM75.8358 20.3016C78.1718 20.3016 79.6758 21.7416 79.6758 23.9176H71.7398C72.1238 21.5496 73.5318 20.3016 75.8358 20.3016ZM83.4563 28.5896C83.4563 31.6936 85.9523 33.8056 89.8883 33.8056C93.7923 33.8056 96.5123 31.8216 96.5123 28.6216C96.5123 26.1896 95.1683 24.9736 92.5123 24.3656L89.6643 23.6936C88.3203 23.3736 87.6163 22.7976 87.6163 21.9016C87.6163 20.7176 88.5123 20.0136 90.0483 20.0136C91.5523 20.0136 92.4483 20.8776 92.4803 22.2216H96.1923C96.1603 19.1496 93.7603 17.1016 90.2083 17.1016C86.5603 17.1016 83.9363 18.9576 83.9363 22.0616C83.9363 24.5896 85.3123 25.9336 88.1603 26.5736L91.0083 27.2456C92.4163 27.5656 92.8323 28.1416 92.8323 28.9416C92.8323 30.0936 91.8403 30.8296 90.0163 30.8296C88.2243 30.8296 87.2003 29.9656 87.1683 28.5896H83.4563ZM102.861 33.3896V20.8456H105.933V17.5816H102.861V12.6536H98.9568V17.5816H95.9168V20.8456H98.9568V33.3896H102.861ZM106.936 33.3896H116.408C121.24 33.3896 124.024 31.0536 124.024 27.0536C124.024 24.3336 122.776 22.4776 120.312 21.6776C122.52 20.7496 123.672 18.8936 123.672 16.3016C123.672 12.3976 120.856 9.99765 116.248 9.99765H106.936V33.3896ZM115.896 13.6136C118.2 13.6136 119.48 14.7016 119.48 16.7176C119.48 18.7976 118.232 19.9816 115.992 19.9816H111.032V13.6136H115.896ZM116.248 23.4376C118.52 23.4376 119.832 24.5576 119.832 26.5416C119.832 28.6536 118.552 29.7736 116.248 29.7736H111.032V23.4376H116.248ZM129.908 33.8056C132.372 33.8056 134.516 32.6856 135.188 31.0536L135.476 33.3896H138.9V23.7896C138.9 19.4056 136.276 17.1016 132.02 17.1016C127.732 17.1016 124.916 19.3416 124.916 22.7656H128.244C128.244 21.1016 129.524 20.1416 131.828 20.1416C133.812 20.1416 135.092 21.0056 135.092 23.1496V23.5016L130.356 23.8536C126.612 24.1416 124.5 25.9656 124.5 28.8776C124.5 31.8536 126.548 33.8056 129.908 33.8056ZM131.188 30.8616C129.428 30.8616 128.468 30.1576 128.468 28.7176C128.468 27.4376 129.396 26.6376 131.828 26.4136L135.124 26.1576V26.9896C135.124 29.4216 133.588 30.8616 131.188 30.8616ZM144.639 33.3896V24.8776C144.639 22.3176 146.111 20.6536 148.511 20.6536C150.527 20.6536 151.839 21.9336 151.839 24.5896V33.3896H155.743V23.6616C155.743 19.5656 153.695 17.1016 149.727 17.1016C147.583 17.1016 145.663 18.0296 144.671 19.6296L144.351 17.5816H140.735V33.3896H144.639ZM161.515 33.3896V29.1336L163.819 26.7336L167.947 33.3896H172.427L166.539 23.8536L172.555 17.5816H167.659L161.515 24.2056V9.58165H157.643V33.3896H161.515Z" fill="url(#paint0_linear_3_262)"/>
<defs>
<linearGradient id="paint0_linear_3_262" x1="48" y1="20.8896" x2="152" y2="20.8896" gradientUnits="userSpaceOnUse">
<stop stop-color="#D9D9D9"/>
<stop offset="1" stop-color="#737373" stop-opacity="0"/>
</linearGradient>
<clipPath id="clip0_3_262">
<rect width="40" height="40" fill="white" transform="translate(0 0.889648)"/>
</clipPath>
</defs>
</svg>
