<svg width="24" height="24" viewBox="0 0 24 24" fill="none" xmlns="http://www.w3.org/2000/svg">
<g id="Social Icon" clip-path="url(#clip0_1_9446)">
<path id="Vector" fill-rule="evenodd" clip-rule="evenodd" d="M12 24C18.6274 24 24 18.6274 24 12C24 5.37259 18.6274 0 12 0C5.37259 0 0 5.37259 0 12C0 18.6274 5.37259 24 12 24ZM6 9.45403C6 7.54939 7.54958 6 9.45403 6H14.546C16.4506 6 18 7.54958 18 9.45403V14.5927C18 16.4971 16.4506 18.0467 14.546 18.0467H9.45403C7.54939 18.0467 6 16.4971 6 14.5927V9.45403ZM14.546 16.9036C15.8202 16.9036 16.8569 15.8669 16.8569 14.5927V9.45403C16.8569 8.17982 15.8202 7.1431 14.546 7.1431H9.45403C8.17982 7.1431 7.1431 8.17982 7.1431 9.45403V14.5927C7.1431 15.8669 8.17982 16.9036 9.45403 16.9036H14.546ZM8.87719 12.0013C8.87719 10.2923 10.2825 8.90213 12.0095 8.90213C13.7365 8.90213 15.1419 10.2923 15.1419 12.0013C15.1419 13.71 13.7365 15.1002 12.0095 15.1002C10.2823 15.1002 8.87719 13.71 8.87719 12.0013ZM10.0181 12.0013C10.0181 13.0808 10.9114 13.9593 12.0095 13.9593C13.1077 13.9593 14.0009 13.081 14.0009 12.0013C14.0009 10.9216 13.1075 10.0433 12.0095 10.0433C10.9114 10.0433 10.0181 10.9216 10.0181 12.0013ZM15.198 9.51252C15.605 9.51252 15.9349 9.18254 15.9349 8.7755C15.9349 8.36849 15.605 8.03851 15.198 8.03851C14.7909 8.03851 14.4609 8.36849 14.4609 8.7755C14.4609 9.18254 14.7909 9.51252 15.198 9.51252Z" fill="white"/>
</g>
<defs>
<clipPath id="clip0_1_9446">
<rect width="24" height="24" fill="white"/>
</clipPath>
</defs>
</svg>
