<svg width="249" height="266" viewBox="0 0 249 266" fill="none" xmlns="http://www.w3.org/2000/svg">
<g filter="url(#filter0_b_3_879)">
<rect y="26.9526" width="221.159" height="240" rx="14" transform="rotate(-7 0 26.9526)" fill="white" fill-opacity="0.02"/>
<rect x="-0.557208" y="26.5173" width="222.159" height="241" rx="14.5" transform="rotate(-7 -0.557208 26.5173)" stroke="white" stroke-opacity="0.2"/>
<rect x="26.746" y="47.8491" width="48" height="48" rx="24" transform="rotate(-7 26.746 47.8491)" fill="white" fill-opacity="0.1"/>
<g clip-path="url(#clip0_3_879)">
<path d="M51.7305 77.3168C52.1657 77.6568 52.2429 78.2853 51.9029 78.7205C51.5628 79.1557 50.9344 79.2329 50.4992 78.8928L46.8295 76.0258C45.9591 75.3458 45.8048 74.0889 46.4848 73.2185L49.3519 69.5488C49.6919 69.1136 50.3204 69.0364 50.7556 69.3765C51.1908 69.7165 51.2679 70.3449 50.9279 70.7801L48.9315 73.3354L60.9272 71.8625C61.4754 71.7952 61.9744 72.185 62.0417 72.7332C62.109 73.2813 61.7192 73.7803 61.171 73.8476L49.1753 75.3205L51.7305 77.3168Z" fill="white"/>
<path d="M45.8129 63.6431C45.2647 63.7104 44.8749 64.2093 44.9422 64.7575C45.0095 65.3057 45.5085 65.6955 46.0566 65.6282L58.0523 64.1553L56.056 66.7105C55.716 67.1457 55.7931 67.7742 56.2283 68.1142C56.6635 68.4542 57.292 68.377 57.632 67.9418L60.499 64.2722C61.1791 63.4018 61.0248 62.1449 60.1543 61.4648L56.4847 58.5978C56.0495 58.2578 55.421 58.3349 55.081 58.7701C54.741 59.2053 54.8182 59.8338 55.2534 60.1738L57.8086 62.1702L45.8129 63.6431Z" fill="white"/>
</g>
<path d="M44.7828 133.287L38.4742 134.062L37.2269 123.904L43.5356 123.13L43.7369 124.769L39.2069 125.326L39.5277 127.938L43.5852 127.44L43.778 129.01L39.7205 129.508L40.0515 132.204L44.5815 131.648L44.7828 133.287ZM47.66 132.934L45.9647 133.142L45.1219 126.278L46.6921 126.085L46.9402 126.957C47.2857 126.21 48.07 125.704 49.001 125.59C50.724 125.378 51.7447 126.339 51.9631 128.118L52.4818 132.342L50.7865 132.55L50.3173 128.729C50.1757 127.576 49.5377 127.09 48.6623 127.197C47.6201 127.325 47.0697 128.126 47.2062 129.238L47.66 132.934ZM52.8219 128.661C52.5762 126.66 53.6981 124.999 55.6574 124.759C56.6857 124.632 57.5445 124.964 58.0379 125.651L58.0192 124.694L59.5894 124.501L60.3896 131.019C60.6711 133.311 59.4712 134.911 57.2479 135.184C55.2747 135.427 53.7886 134.467 53.3549 132.658L55.0502 132.45C55.2706 133.326 56.0163 133.77 57.0585 133.642C58.2257 133.499 58.8856 132.67 58.7457 131.531L58.6058 130.391C58.2535 131.083 57.4554 131.59 56.4688 131.711C54.5234 131.95 53.0659 130.648 52.8219 128.661ZM54.5259 128.41C54.6675 129.563 55.5098 130.334 56.6214 130.198C57.7887 130.054 58.4106 129.146 58.2639 127.951C58.1205 126.783 57.3129 126.065 56.1318 126.21C55.0062 126.348 54.3877 127.284 54.5259 128.41ZM63.7552 131.141C62.2962 131.32 61.3028 130.582 61.1441 129.29C60.9888 128.025 61.8087 127.12 63.4191 126.796L65.4569 126.39L65.4382 126.238C65.3239 125.307 64.722 125 63.8604 125.105C62.8599 125.228 62.3553 125.713 62.444 126.436L60.9989 126.613C60.8163 125.127 61.9197 124.004 63.7817 123.775C65.6298 123.548 66.8921 124.409 67.1259 126.312L67.6377 130.481L66.1509 130.664L65.9013 129.665C65.6965 130.409 64.8252 131.01 63.7552 131.141ZM64.1541 129.795C65.1963 129.667 65.7865 128.959 65.6568 127.903L65.6124 127.542L64.1948 127.829C63.1507 128.056 62.7904 128.453 62.8586 129.009C62.9354 129.634 63.3898 129.888 64.1541 129.795ZM67.9776 126.8C67.7319 124.799 68.8538 123.138 70.8131 122.898C71.8414 122.771 72.7002 123.103 73.1936 123.79L73.1749 122.833L74.7451 122.641L75.5453 129.158C75.8268 131.45 74.6269 133.051 72.4036 133.324C70.4304 133.566 68.9443 132.606 68.5107 130.797L70.2059 130.589C70.4263 131.465 71.172 131.909 72.2142 131.781C73.3814 131.638 74.0414 130.809 73.9014 129.67L73.7615 128.53C73.4093 129.222 72.6111 129.729 71.6245 129.851C69.6791 130.089 68.2216 128.787 67.9776 126.8ZM69.6816 126.549C69.8233 127.702 70.6655 128.473 71.7772 128.337C72.9444 128.193 73.5663 127.285 73.4196 126.09C73.2762 124.923 72.4686 124.204 71.2875 124.349C70.1619 124.487 69.5434 125.423 69.6816 126.549ZM79.9392 129.154C77.8966 129.405 76.2827 128.094 76.0217 125.968C75.7572 123.814 76.9781 122.155 78.993 121.907C81.0496 121.655 82.5247 122.87 82.7874 125.01L82.8505 125.524L77.6831 126.173C77.9566 127.366 78.6708 127.899 79.7964 127.761C80.7274 127.647 81.2944 127.21 81.4088 126.533L82.979 126.341C82.8715 127.877 81.7318 128.934 79.9392 129.154ZM79.1775 123.295C78.177 123.418 77.6322 124.035 77.5917 125.084L81.0378 124.661C80.9218 123.716 80.1919 123.171 79.1775 123.295ZM85.78 128.254L84.0847 128.462L83.2419 121.597L84.7982 121.406L85.0361 122.195C85.3135 121.583 85.9537 121.053 86.9403 120.932C87.9825 120.804 88.7682 121.229 89.2267 121.977C89.4769 121.142 90.2197 120.529 91.2618 120.401C92.9293 120.196 93.9693 121.084 94.1638 122.668L94.7149 127.157L93.0335 127.363L92.537 123.319C92.4159 122.333 91.8247 121.883 91.0188 121.982C90.1989 122.083 89.6384 122.688 89.7766 123.813L90.2544 127.704L88.5591 127.912L88.0609 123.855C87.9432 122.896 87.3659 122.445 86.56 122.544C85.754 122.643 85.1658 123.251 85.3022 124.363L85.78 128.254ZM98.9759 126.817C96.9333 127.067 95.3195 125.756 95.0584 123.63C94.794 121.477 96.0149 119.817 98.0297 119.57C100.086 119.317 101.561 120.533 101.824 122.673L101.887 123.187L96.7198 123.835C96.9933 125.029 97.7076 125.562 98.8331 125.424C99.7641 125.309 100.331 124.873 100.446 124.196L102.016 124.003C101.908 125.54 100.768 126.597 98.9759 126.817ZM98.2143 120.958C97.2138 121.081 96.6689 121.698 96.6284 122.746L100.075 122.323C99.9585 121.378 99.2286 120.833 98.2143 120.958ZM104.817 125.916L103.121 126.124L102.279 119.26L103.849 119.067L104.097 119.939C104.442 119.192 105.227 118.686 106.158 118.572C107.881 118.36 108.901 119.321 109.12 121.1L109.638 125.324L107.943 125.532L107.474 121.711C107.332 120.558 106.694 120.072 105.819 120.179C104.777 120.307 104.226 121.108 104.363 122.22L104.817 125.916ZM113.142 124.894L111.447 125.102L110.778 119.655L109.458 119.817L109.284 118.4L110.604 118.238L110.341 116.098L112.037 115.89L112.299 118.029L113.633 117.866L113.807 119.283L112.473 119.447L113.142 124.894Z" fill="#8A8A8A"/>
<path d="M55.0044 175.984L50.7642 176.505L50.2787 172.551L58.2234 163.209L43.7402 164.987L43.0792 159.603L65.1852 156.889L65.7818 161.749L58.2609 170.603C63.7255 170.996 68.3501 174.394 69.1047 180.54C69.9821 187.686 64.9637 192.897 57.9127 193.762C51.0998 194.599 45.2968 191.056 44.3725 183.528L50.3754 182.791C50.8668 186.793 53.625 188.776 57.3411 188.319C61.1525 187.851 63.3733 185.064 62.8995 181.205C62.4666 177.679 59.8639 175.388 55.0044 175.984ZM70.8736 173.939C69.5457 163.124 74.4572 155.074 83.3663 153.98C92.2754 152.886 99.0362 159.503 100.364 170.318C101.686 181.085 97.0429 188.958 87.8004 190.093C78.5578 191.227 72.1956 184.706 70.8736 173.939ZM76.8765 173.202C77.8651 181.253 81.6605 185.382 87.1393 184.709C92.6658 184.03 95.3498 179.107 94.3612 171.055C93.3492 162.813 89.5538 158.685 84.0273 159.363C78.5484 160.036 75.8645 164.96 76.8765 173.202ZM112.454 186.437L106.69 187.145L102.337 151.699L108.102 150.991L110.775 172.763L118.712 161.778L126.001 160.883L118.191 171.321L128.7 184.442L122.03 185.261L114.668 176.106L111.676 180.1L112.454 186.437Z" fill="white"/>
<path d="M55.5084 224.662L59.8618 219.09L65.4339 223.443" stroke="#01FF9D" stroke-width="2" stroke-linecap="round" stroke-linejoin="round"/>
<path d="M61.3242 231L59.8618 219.09" stroke="#01FF9D" stroke-width="2" stroke-linecap="round"/>
<path d="M76.338 225.058L75.1013 225.21L74.9597 224.057L77.2769 221.332L73.0526 221.851L72.8598 220.28L79.3074 219.489L79.4814 220.906L77.2878 223.489C78.8817 223.603 80.2305 224.594 80.4506 226.387C80.7065 228.471 79.2428 229.991 77.1863 230.243C75.1992 230.487 73.5066 229.454 73.237 227.258L74.9879 227.043C75.1312 228.211 75.9357 228.789 77.0195 228.656C78.1312 228.519 78.7789 227.706 78.6407 226.581C78.5145 225.553 77.7554 224.884 76.338 225.058ZM79.7982 219.429L87.0934 218.533L87.2947 220.172L84.6582 229.143L82.8101 229.37L85.5161 220.391L79.9995 221.068L79.7982 219.429ZM88.5258 228.837C87.9144 228.912 87.3388 228.475 87.2655 227.877C87.1904 227.266 87.6431 226.703 88.2545 226.628C88.8659 226.553 89.4415 226.99 89.5166 227.601C89.5899 228.199 89.1372 228.762 88.5258 228.837ZM90.1871 225.544C90.0386 224.335 90.6001 223.279 91.6067 222.746C90.6679 222.452 90.0877 221.748 89.9665 220.761C89.7686 219.149 91.0634 217.862 93.1616 217.604C95.246 217.348 96.7842 218.274 96.9872 219.927C97.1084 220.914 96.702 221.74 95.8448 222.226C96.9609 222.47 97.7768 223.371 97.9269 224.594C98.1521 226.428 96.786 227.823 94.4237 228.113C92.0753 228.401 90.414 227.392 90.1871 225.544ZM91.5972 220.716C91.7013 221.564 92.5043 222.015 93.6576 221.874C94.7971 221.734 95.4548 221.117 95.3507 220.269C95.2467 219.422 94.4592 218.982 93.3198 219.122C92.1665 219.264 91.4948 219.882 91.5972 220.716ZM91.9087 225.206C92.0298 226.192 92.9247 226.703 94.2448 226.541C95.5371 226.382 96.2819 225.67 96.1607 224.684C96.0396 223.697 95.1447 223.186 93.8385 223.347C92.5323 223.507 91.7875 224.219 91.9087 225.206ZM103.199 219.066C103.392 220.636 102.415 221.87 100.873 222.06C99.3304 222.249 98.084 221.288 97.8912 219.718C97.7001 218.161 98.6752 216.913 100.218 216.724C101.76 216.534 103.008 217.51 103.199 219.066ZM108.469 215.922L102.003 227.013L100.308 227.221L106.774 216.13L108.469 215.922ZM101.851 219.231C101.752 218.425 101.156 217.934 100.378 218.03C99.5999 218.126 99.154 218.745 99.253 219.55C99.3519 220.356 99.9482 220.847 100.712 220.754C101.491 220.658 101.95 220.037 101.851 219.231ZM110.896 223.396C111.088 224.952 110.126 226.199 108.584 226.388C107.028 226.579 105.793 225.603 105.602 224.046C105.411 222.49 106.372 221.243 107.929 221.052C109.471 220.863 110.705 221.84 110.896 223.396ZM109.549 223.562C109.45 222.756 108.853 222.265 108.089 222.359C107.311 222.454 106.851 223.075 106.95 223.881C107.049 224.687 107.645 225.178 108.423 225.082C109.188 224.988 109.647 224.368 109.549 223.562Z" fill="#01FF9D"/>
<path d="M117.651 225.092L115.955 225.3L115.287 219.853L113.966 220.015L113.792 218.597L115.112 218.435L114.85 216.295L116.545 216.087L116.808 218.227L118.142 218.063L118.316 219.481L116.982 219.645L117.651 225.092ZM121.237 224.651L119.542 224.859L118.273 214.521L119.982 214.311L120.518 218.674C120.867 217.955 121.62 217.425 122.606 217.304C124.302 217.096 125.322 218.056 125.541 219.835L126.059 224.059L124.364 224.267L123.895 220.446C123.753 219.293 123.115 218.807 122.254 218.913C121.184 219.044 120.651 219.871 120.777 220.899L121.237 224.651ZM127.065 215.571C126.481 215.643 125.966 215.241 125.896 214.671C125.826 214.101 126.23 213.6 126.814 213.529C127.37 213.461 127.883 213.849 127.953 214.419C128.023 214.988 127.62 215.503 127.065 215.571ZM127.229 223.916L126.386 217.051L128.081 216.843L128.924 223.707L127.229 223.916ZM129.395 221.534L131.007 221.336C131.094 221.932 131.585 222.252 132.363 222.157C133.155 222.06 133.547 221.687 133.485 221.187C133.443 220.839 133.231 220.611 132.603 220.548L131.33 220.408C130.06 220.282 129.39 219.771 129.256 218.674C129.09 217.326 130.131 216.38 131.715 216.185C133.257 215.996 134.408 216.757 134.586 218.09L132.974 218.287C132.889 217.706 132.454 217.378 131.8 217.458C131.133 217.54 130.782 217.894 130.845 218.408C130.893 218.797 131.229 219.01 131.83 219.077L133.102 219.217C134.288 219.339 134.937 219.796 135.066 220.852C135.237 222.241 134.162 223.248 132.466 223.456C130.757 223.666 129.561 222.882 129.395 221.534ZM140.879 222.24L137.813 215.648L139.577 215.431L140.842 218.266C141.062 218.79 141.274 219.37 141.477 219.994C141.521 219.312 141.593 218.865 141.732 218.157L142.315 215.095L144.038 214.884L145.317 217.717C145.434 217.985 145.838 218.979 145.978 219.427C146.026 218.899 146.148 218.052 146.22 217.606L146.775 214.548L148.568 214.328L147.034 221.484L145.45 221.678L144.14 218.821C143.752 217.952 143.518 217.317 143.42 216.977C143.39 217.305 143.325 217.806 143.115 218.975L142.532 222.037L140.879 222.24ZM152.695 220.972C150.652 221.223 149.038 219.912 148.777 217.786C148.513 215.632 149.734 213.973 151.749 213.725C153.805 213.473 155.28 214.688 155.543 216.828L155.606 217.342L150.439 217.991C150.712 219.184 151.426 219.717 152.552 219.579C153.483 219.465 154.05 219.029 154.164 218.352L155.735 218.159C155.627 219.695 154.487 220.752 152.695 220.972ZM151.933 215.113C150.933 215.236 150.388 215.853 150.347 216.902L153.793 216.479C153.677 215.534 152.947 214.989 151.933 215.113ZM159.933 220.083C157.891 220.334 156.277 219.023 156.016 216.897C155.751 214.743 156.972 213.084 158.987 212.837C161.044 212.584 162.519 213.799 162.782 215.939L162.845 216.454L157.677 217.102C157.951 218.296 158.665 218.829 159.791 218.69C160.722 218.576 161.289 218.14 161.403 217.463L162.973 217.27C162.866 218.806 161.726 219.863 159.933 220.083ZM159.172 214.225C158.171 214.347 157.626 214.964 157.586 216.013L161.032 215.59C160.916 214.645 160.186 214.1 159.172 214.225ZM165.788 219.181L164.107 219.388L162.837 209.049L164.519 208.843L165.298 215.193L167.613 211.989L169.739 211.728L167.461 214.772L170.526 218.599L168.581 218.838L166.434 216.168L165.561 217.333L165.788 219.181Z" fill="#8A8A8A"/>
</g>
<defs>
<filter id="filter0_b_3_879" x="-250" y="-250" width="748.76" height="765.164" filterUnits="userSpaceOnUse" color-interpolation-filters="sRGB">
<feFlood flood-opacity="0" result="BackgroundImageFix"/>
<feGaussianBlur in="BackgroundImageFix" stdDeviation="125"/>
<feComposite in2="SourceAlpha" operator="in" result="effect1_backgroundBlur_3_879"/>
<feBlend mode="normal" in="SourceGraphic" in2="effect1_backgroundBlur_3_879" result="shape"/>
</filter>
<clipPath id="clip0_3_879">
<rect width="24" height="24" fill="white" transform="translate(43.0438 82.1182) rotate(-97)"/>
</clipPath>
</defs>
</svg>
