<svg width="44" height="45" viewBox="0 0 44 45" fill="none" xmlns="http://www.w3.org/2000/svg">
<path d="M38.4998 22.5847C38.4998 22.9494 38.3549 23.2992 38.0971 23.557C37.8392 23.8149 37.4895 23.9597 37.1248 23.9597H21.9998C21.6351 23.9597 21.2854 23.8149 21.0275 23.557C20.7697 23.2992 20.6248 22.9494 20.6248 22.5847C20.6248 22.2201 20.7697 21.8703 21.0275 21.6125C21.2854 21.3546 21.6351 21.2097 21.9998 21.2097H37.1248C37.4895 21.2097 37.8392 21.3546 38.0971 21.6125C38.3549 21.8703 38.4998 22.2201 38.4998 22.5847ZM21.9998 12.9597H37.1248C37.4895 12.9597 37.8392 12.8149 38.0971 12.557C38.3549 12.2992 38.4998 11.9494 38.4998 11.5847C38.4998 11.2201 38.3549 10.8703 38.0971 10.6125C37.8392 10.3546 37.4895 10.2097 37.1248 10.2097H21.9998C21.6351 10.2097 21.2854 10.3546 21.0275 10.6125C20.7697 10.8703 20.6248 11.2201 20.6248 11.5847C20.6248 11.9494 20.7697 12.2992 21.0275 12.557C21.2854 12.8149 21.6351 12.9597 21.9998 12.9597ZM37.1248 32.2098H21.9998C21.6351 32.2098 21.2854 32.3546 21.0275 32.6125C20.7697 32.8703 20.6248 33.2201 20.6248 33.5848C20.6248 33.9494 20.7697 34.2992 21.0275 34.557C21.2854 34.8149 21.6351 34.9598 21.9998 34.9598H37.1248C37.4895 34.9598 37.8392 34.8149 38.0971 34.557C38.3549 34.2992 38.4998 33.9494 38.4998 33.5848C38.4998 33.2201 38.3549 32.8703 38.0971 32.6125C37.8392 32.3546 37.4895 32.2098 37.1248 32.2098ZM14.152 7.86194L9.62479 12.3908L7.8476 10.6119C7.58959 10.3539 7.23966 10.209 6.87479 10.209C6.50991 10.209 6.15998 10.3539 5.90198 10.6119C5.64397 10.8699 5.49902 11.2199 5.49902 11.5847C5.49902 11.9496 5.64397 12.2996 5.90198 12.5576L8.65198 15.3076C8.77968 15.4354 8.93132 15.5368 9.09825 15.606C9.26517 15.6752 9.44409 15.7108 9.62479 15.7108C9.80548 15.7108 9.98441 15.6752 10.1513 15.606C10.3183 15.5368 10.4699 15.4354 10.5976 15.3076L16.0976 9.80756C16.3556 9.54956 16.5006 9.19962 16.5006 8.83475C16.5006 8.46987 16.3556 8.11994 16.0976 7.86194C15.8396 7.60393 15.4897 7.45898 15.1248 7.45898C14.7599 7.45898 14.41 7.60393 14.152 7.86194ZM14.152 18.8619L9.62479 23.3908L7.8476 21.6119C7.58959 21.3539 7.23966 21.209 6.87479 21.209C6.50991 21.209 6.15998 21.3539 5.90198 21.6119C5.64397 21.8699 5.49902 22.2199 5.49902 22.5847C5.49902 22.7654 5.53461 22.9443 5.60375 23.1112C5.67289 23.2781 5.77422 23.4298 5.90198 23.5576L8.65198 26.3076C8.77968 26.4354 8.93132 26.5368 9.09825 26.606C9.26517 26.6752 9.44409 26.7108 9.62479 26.7108C9.80548 26.7108 9.98441 26.6752 10.1513 26.606C10.3183 26.5368 10.4699 26.4354 10.5976 26.3076L16.0976 20.8076C16.3556 20.5496 16.5006 20.1996 16.5006 19.8347C16.5006 19.4699 16.3556 19.1199 16.0976 18.8619C15.8396 18.6039 15.4897 18.459 15.1248 18.459C14.7599 18.459 14.41 18.6039 14.152 18.8619ZM14.152 29.8619L9.62479 34.3908L7.8476 32.6119C7.71985 32.4842 7.56819 32.3828 7.40127 32.3137C7.23436 32.2446 7.05546 32.209 6.87479 32.209C6.69412 32.209 6.51522 32.2446 6.34831 32.3137C6.18139 32.3828 6.02973 32.4842 5.90198 32.6119C5.77422 32.7397 5.67289 32.8914 5.60375 33.0583C5.53461 33.2252 5.49902 33.4041 5.49902 33.5848C5.49902 33.7654 5.53461 33.9443 5.60375 34.1112C5.67289 34.2781 5.77422 34.4298 5.90198 34.5576L8.65198 37.3076C8.77968 37.4354 8.93132 37.5368 9.09825 37.606C9.26517 37.6752 9.44409 37.7108 9.62479 37.7108C9.80548 37.7108 9.98441 37.6752 10.1513 37.606C10.3183 37.5368 10.4699 37.4354 10.5976 37.3076L16.0976 31.8076C16.3556 31.5496 16.5006 31.1996 16.5006 30.8348C16.5006 30.4699 16.3556 30.1199 16.0976 29.8619C15.8396 29.6039 15.4897 29.459 15.1248 29.459C14.7599 29.459 14.41 29.6039 14.152 29.8619Z" fill="white"/>
</svg>
