<svg width="114" height="70" viewBox="0 0 114 70" fill="none" xmlns="http://www.w3.org/2000/svg">
<g id="Group" filter="url(#filter0_di_2001_3872)">
<path id="Vector" d="M73.1847 37.278C72.7502 36.6802 72.3873 36.1929 72.0361 35.6962C70.6782 33.7763 69.3229 31.8536 67.9676 29.931C67.5609 29.3549 67.1052 29.3256 66.6006 29.8431C60.5576 36.0398 54.5106 42.2311 48.4754 48.4344C45.7531 51.2332 42.7901 53.6804 39.2522 55.3421C33.3159 58.1315 23.0573 57.816 17.1587 50.8218C14.8591 48.0962 13.5701 44.8994 13.2098 41.3776C12.9497 38.8305 13.0238 36.2448 13.0147 33.6751C12.9926 27.2467 13.0082 20.8184 13.0095 14.39C13.0095 13.3568 13.1044 13.2609 14.132 13.2716C16.2534 13.2942 18.3761 13.3222 20.4976 13.3461C21.3573 13.3568 21.4015 13.4007 21.4015 14.3035C21.4041 22.2617 21.4015 30.2199 21.4094 38.1781C21.4107 40.2698 21.8048 42.2804 22.7673 44.1378C24.2748 47.0457 26.7656 48.4211 29.8586 48.8911C33.5604 49.4543 36.7081 48.3186 39.5176 45.8647C44.9102 41.1553 50.0128 36.1409 54.9178 30.9056C57.2707 28.3944 59.677 25.9352 62.0585 23.4533C62.5597 22.9314 62.607 22.3824 62.2003 21.8063C60.4834 19.3857 58.7665 16.9651 57.0509 14.5431C56.8766 14.2968 56.7127 14.0412 56.4604 13.667C57.151 13.6218 57.7181 13.5618 58.2878 13.5499C65.2583 13.3914 72.2287 13.2396 79.1991 13.0838C80.1733 13.0625 81.1475 13.0186 82.1204 13.0013C83.0127 12.9853 83.0946 13.1078 82.7525 13.9453C79.9131 20.8929 77.0711 27.8392 74.2278 34.7842C73.9039 35.5764 73.5658 36.3633 73.1847 37.274V37.278Z" fill="white"/>
<path id="Vector_2" d="M92.4177 26.6465C92.289 26.8129 92.1563 26.9754 92.0327 27.1445C87.864 32.8884 83.6966 38.6324 79.5292 44.3764C79.4511 44.4829 79.3809 44.5948 79.3003 44.6986C78.8827 45.2299 78.6993 45.2392 78.3117 44.6959C77.6744 43.8012 77.0501 42.8958 76.4335 41.9864C74.9586 39.8108 74.9963 40.4832 75.9874 37.9534C76.1968 37.4194 76.4543 36.9002 76.6195 36.3529C77.8734 32.1908 80.5177 28.882 82.9669 25.4522C85.5085 21.8931 88.0669 18.3474 90.5655 14.7565C91.2614 13.7565 92.0457 13.2852 93.2723 13.3251C95.434 13.3957 97.601 13.3158 99.7653 13.3051C100.967 13.2998 100.987 13.3198 100.988 14.5687C100.992 27.8435 100.994 41.1169 100.997 54.3917C100.997 55.0122 100.985 55.6327 100.984 56.2531C100.983 56.7484 100.738 56.9774 100.262 56.9774C97.9249 56.9774 95.5862 56.9801 93.2489 56.9774C92.6623 56.9774 92.5569 56.6046 92.5595 56.092C92.5712 53.3439 92.5647 50.5957 92.5647 47.8475C92.5647 41.0437 92.566 34.2412 92.5673 27.4374C92.5673 27.1964 92.5673 26.9554 92.5673 26.7144C92.5179 26.6918 92.4685 26.6691 92.419 26.6465H92.4177Z" fill="white"/>
<path id="Vector_3" d="M41.4726 39.2566C41.4388 38.708 41.3945 38.3165 41.3945 37.9251C41.3919 30.0401 41.3919 22.1551 41.3945 14.2715C41.3945 13.4513 41.5415 13.2928 42.3375 13.2902C44.4798 13.2835 46.6207 13.2822 48.7629 13.2942C49.6864 13.2995 49.7996 13.4313 49.8009 14.3847C49.8035 19.7891 49.8009 25.1935 49.8087 30.5967C49.8087 31.2757 49.637 31.8602 49.1336 32.3223C46.8158 34.4513 44.4993 36.583 42.1788 38.7093C42.0046 38.8691 41.8055 38.9996 41.4726 39.2566Z" fill="white"/>
<path id="Vector_4" d="M65.1892 36.7215C65.1892 36.9838 65.1892 37.2448 65.1892 37.5071C65.1905 43.6412 65.1931 49.7752 65.1931 55.908C65.1931 56.9119 65.1294 56.9745 64.1799 56.9785C62.0389 56.9865 59.8967 56.9972 57.7557 56.9998C56.8973 56.9998 56.7373 56.8347 56.7373 55.9506C56.7412 52.5847 56.7555 49.2187 56.749 45.8541C56.7477 45.1644 56.9766 44.6451 57.467 44.1591C59.7042 41.9409 61.9089 39.6893 64.1291 37.4538C64.414 37.1675 64.7196 36.9012 65.0149 36.627C65.0734 36.6589 65.132 36.6909 65.1905 36.7228L65.1892 36.7215Z" fill="white"/>
</g>
<defs>
<filter id="filter0_di_2001_3872" x="0.00292969" y="0" width="113.994" height="70" filterUnits="userSpaceOnUse" colorInterpolationFilters="sRGB">
<feFlood floodOpacity="0" result="BackgroundImageFix"/>
<feColorMatrix in="SourceAlpha" type="matrix" values="0 0 0 0 0 0 0 0 0 0 0 0 0 0 0 0 0 0 127 0" result="hardAlpha"/>
<feOffset/>
<feGaussianBlur stdDeviation="6.5"/>
<feComposite in2="hardAlpha" operator="out"/>
<feColorMatrix type="matrix" values="0 0 0 0 0 0 0 0 0 0.913725 0 0 0 0 1 0 0 0 1 0"/>
<feBlend mode="normal" in2="BackgroundImageFix" result="effect1_dropShadow_2001_3872"/>
<feBlend mode="normal" in="SourceGraphic" in2="effect1_dropShadow_2001_3872" result="shape"/>
<feColorMatrix in="SourceAlpha" type="matrix" values="0 0 0 0 0 0 0 0 0 0 0 0 0 0 0 0 0 0 127 0" result="hardAlpha"/>
<feOffset dy="1"/>
<feGaussianBlur stdDeviation="2"/>
<feComposite in2="hardAlpha" operator="arithmetic" k2="-1" k3="1"/>
<feColorMatrix type="matrix" values="0 0 0 0 0 0 0 0 0 0.913725 0 0 0 0 1 0 0 0 1 0"/>
<feBlend mode="normal" in2="shape" result="effect2_innerShadow_2001_3872"/>
</filter>
</defs>
</svg>
