<?xml version="1.0" encoding="utf-8"?>
<!-- Generator: Adobe Illustrator 27.9.0, SVG Export Plug-In . SVG Version: 6.00 Build 0)  -->
<svg version="1.1" id="Layer_1" xmlns="http://www.w3.org/2000/svg" xmlns:xlink="http://www.w3.org/1999/xlink" x="0px" y="0px"
	 viewBox="0 0 1080 1080" style="enable-background:new 0 0 1080 1080;" xml:space="preserve">
<style type="text/css">
	.st0{fill:url(#SVGID_1_);}
	.st1{fill:url(#SVGID_00000057139560797411100180000007510731860167801501_);}
	.st2{fill:#2D3542;}
	.st3{fill:url(#SVGID_00000078766739663244162300000016276494936816450188_);}
	.st4{fill:url(#SVGID_00000118362530129107716350000006130054825355133880_);}
	.st5{fill:url(#SVGID_00000156569583938499532200000004652068301861301907_);}
	.st6{fill:url(#SVGID_00000151526368774106421960000002356026559517787565_);}
	.st7{fill:#00FF9D;}
	.st8{fill:url(#SVGID_00000127012445950094656310000010579183044686477458_);}
	.st9{fill:url(#SVGID_00000015331415135263092220000011434714818021714579_);}
	.st10{fill:url(#SVGID_00000052078507132067064970000005821143966996961931_);}
	.st11{fill:url(#SVGID_00000165194145669637147050000012136964083660042920_);}
	.st12{fill:url(#SVGID_00000183955891343869248170000010135295513953856687_);}
	.st13{fill:url(#SVGID_00000055705151586002227210000009305013653082401423_);}
	.st14{fill:url(#SVGID_00000123429265877016237890000018340270921763756683_);}
	.st15{fill:url(#SVGID_00000170973837822822756410000001902790051904354215_);}
	.st16{fill:url(#SVGID_00000071557312044391586490000000122275185369718433_);}
	.st17{fill:url(#SVGID_00000030467842042120746310000015278235860383521444_);}
	.st18{fill:url(#SVGID_00000037659126326533233670000002368936637357167549_);}
	.st19{fill:url(#SVGID_00000120552020949648436720000013905096960656503722_);}
</style>
<linearGradient id="SVGID_1_" gradientUnits="userSpaceOnUse" x1="313.9153" y1="663.3578" x2="469.4236" y2="663.3578">
	<stop  offset="3.569619e-07" style="stop-color:#2D3542"/>
	<stop  offset="0.1177" style="stop-color:#2C3748"/>
	<stop  offset="0.2758" style="stop-color:#2B3E59"/>
	<stop  offset="0.457" style="stop-color:#284A75"/>
	<stop  offset="0.6554" style="stop-color:#25599C"/>
	<stop  offset="0.8653" style="stop-color:#206ECE"/>
	<stop  offset="1" style="stop-color:#1D7CF2"/>
</linearGradient>
<polygon class="st0" points="469.42,665.69 392.12,620.09 313.92,663.03 392.12,706.63 "/>
<linearGradient id="SVGID_00000036945944024609149690000009402129080647049367_" gradientUnits="userSpaceOnUse" x1="338.3444" y1="602.3665" x2="427.5597" y2="703.6445">
	<stop  offset="3.569619e-07" style="stop-color:#2D3542"/>
	<stop  offset="0.4224" style="stop-color:#265592"/>
	<stop  offset="0.8168" style="stop-color:#1F71D7"/>
	<stop  offset="1" style="stop-color:#1D7CF2"/>
</linearGradient>
<path style="fill:url(#SVGID_00000036945944024609149690000009402129080647049367_);" d="M400.68,616.49
	c4.08,7.84,10.75,14.11,19.31,19.23l50.72,29.98l-77.31,40.94l-78.2-43.6L400.68,616.49z"/>
<polygon class="st2" points="237,408.38 237,350.84 295.56,317.24 415.2,363.03 393.67,441.14 "/>
<linearGradient id="SVGID_00000036947257097846338600000007702998387102956932_" gradientUnits="userSpaceOnUse" x1="588.5614" y1="637.263" x2="753.2482" y2="547.2936">
	<stop  offset="3.569619e-07" style="stop-color:#2D3542"/>
	<stop  offset="0.1177" style="stop-color:#2C3748"/>
	<stop  offset="0.2758" style="stop-color:#2B3E59"/>
	<stop  offset="0.457" style="stop-color:#284A75"/>
	<stop  offset="0.6554" style="stop-color:#25599C"/>
	<stop  offset="0.8653" style="stop-color:#206ECE"/>
	<stop  offset="1" style="stop-color:#1D7CF2"/>
</linearGradient>
<polygon style="fill:url(#SVGID_00000036947257097846338600000007702998387102956932_);" points="781.5,574.03 702.33,529.26 
	625.32,574.03 625.32,663.03 "/>
<linearGradient id="SVGID_00000037663435846760342410000009001144981894008251_" gradientUnits="userSpaceOnUse" x1="455.1105" y1="458.6208" x2="630.9775" y2="730.3357">
	<stop  offset="0.2751" style="stop-color:#00FF9D"/>
	<stop  offset="0.3689" style="stop-color:#02F6A3"/>
	<stop  offset="0.5243" style="stop-color:#08DDB3"/>
	<stop  offset="0.7218" style="stop-color:#11B4CE"/>
	<stop  offset="0.9492" style="stop-color:#1D7CF2"/>
</linearGradient>
<path style="fill:url(#SVGID_00000037663435846760342410000009001144981894008251_);" d="M626.88,450.35V844.6l-38.13,20.24
	c-20.51,12.76-40.48,11.37-40.48,11.37l0.05-79l0.22,0.08l0.95-349.55c0.04-13.4,13.54-22.58,26.02-17.66L626.88,450.35z"/>
<linearGradient id="SVGID_00000114053159712493184090000016195251912894207419_" gradientUnits="userSpaceOnUse" x1="413.7968" y1="226.1765" x2="812.9132" y2="336.3002">
	<stop  offset="3.569619e-07" style="stop-color:#2D3542"/>
	<stop  offset="0.4224" style="stop-color:#265592"/>
	<stop  offset="0.8168" style="stop-color:#1F71D7"/>
	<stop  offset="1" style="stop-color:#1D7CF2"/>
</linearGradient>
<path style="fill:url(#SVGID_00000114053159712493184090000016195251912894207419_);" d="M782.43,307.55l-134.46-77.67
	c-61.63-35.6-137.6-35.53-199.17,0.19l-55.13,31.99l77.04,44.28l33.68-19.41c27.95-16.12,62.38-16.09,90.31,0.07l187.34,108.37l0,0
	C816.08,376.08,816.3,327.12,782.43,307.55z"/>
<linearGradient id="SVGID_00000121241382492566294920000003366491246528410509_" gradientUnits="userSpaceOnUse" x1="473.5576" y1="338.5217" x2="343.0117" y2="308.5463">
	<stop  offset="0.0229" style="stop-color:#1D7CF2"/>
	<stop  offset="0.9832" style="stop-color:#00FF9D"/>
</linearGradient>
<path style="fill:url(#SVGID_00000121241382492566294920000003366491246528410509_);" d="M393.67,262.05v43.31
	c0,27.62,14.51,53.21,38.21,67.4l38.83,23.24v-89.67L393.67,262.05z"/>
<path class="st7" d="M393.67,441.14v88.12l77.04-44.06v-47.18c0-18.61-20.2-30.18-36.25-20.78L393.67,441.14z"/>
<linearGradient id="SVGID_00000114060373657202835120000009186650271035340197_" gradientUnits="userSpaceOnUse" x1="402.1374" y1="732.8728" x2="534.5176" y2="728.6401">
	<stop  offset="3.516341e-07" style="stop-color:#00FF9D"/>
	<stop  offset="0.1096" style="stop-color:#06E5AE"/>
	<stop  offset="0.2929" style="stop-color:#0EBFC6"/>
	<stop  offset="0.4759" style="stop-color:#15A2D9"/>
	<stop  offset="0.6561" style="stop-color:#198DE7"/>
	<stop  offset="0.8323" style="stop-color:#1C80EF"/>
	<stop  offset="1" style="stop-color:#1D7CF2"/>
</linearGradient>
<polygon style="fill:url(#SVGID_00000114060373657202835120000009186650271035340197_);" points="393.41,798.14 470.71,754.08 
	470.71,665.69 393.41,706.63 "/>
<linearGradient id="SVGID_00000157987095156667009290000008380167350764688009_" gradientUnits="userSpaceOnUse" x1="354.437" y1="486.1266" x2="354.437" y2="663.0339">
	<stop  offset="3.569619e-07" style="stop-color:#2D3542"/>
	<stop  offset="0.1177" style="stop-color:#2C3748"/>
	<stop  offset="0.2758" style="stop-color:#2B3E59"/>
	<stop  offset="0.457" style="stop-color:#284A75"/>
	<stop  offset="0.6554" style="stop-color:#25599C"/>
	<stop  offset="0.8653" style="stop-color:#206ECE"/>
	<stop  offset="1" style="stop-color:#1D7CF2"/>
</linearGradient>
<polygon style="fill:url(#SVGID_00000157987095156667009290000008380167350764688009_);" points="393.67,529.26 393.41,620.09 
	315.2,663.03 315.2,486.13 "/>
<linearGradient id="SVGID_00000070089810726967371810000001778325447858796479_" gradientUnits="userSpaceOnUse" x1="342.736" y1="502.3969" x2="365.836" y2="687.4403">
	<stop  offset="3.569619e-07" style="stop-color:#2D3542"/>
	<stop  offset="0.1547" style="stop-color:#2B3D57"/>
	<stop  offset="0.4745" style="stop-color:#26538D"/>
	<stop  offset="0.9287" style="stop-color:#1E76E4"/>
	<stop  offset="1" style="stop-color:#1D7CF2"/>
</linearGradient>
<path style="fill:url(#SVGID_00000070089810726967371810000001778325447858796479_);" d="M393.68,529.26v60.54
	c0.7,9,3.13,17.89,7,26.68l-85.48,46.55l-4.64-168.85l63.08,5.15L393.68,529.26z"/>
<linearGradient id="SVGID_00000093860377455570214420000007223084542534348986_" gradientUnits="userSpaceOnUse" x1="315.3357" y1="350.8377" x2="315.3357" y2="798.14">
	<stop  offset="0.0229" style="stop-color:#1D7CF2"/>
	<stop  offset="0.5676" style="stop-color:#00FF9D"/>
	<stop  offset="0.6339" style="stop-color:#05E9AB"/>
	<stop  offset="0.8847" style="stop-color:#169BDE"/>
	<stop  offset="1" style="stop-color:#1D7CF2"/>
</linearGradient>
<path style="fill:url(#SVGID_00000093860377455570214420000007223084542534348986_);" d="M237,350.84v287.51
	c0,43.22,23.1,83.15,60.58,104.7l95.83,55.09v-91.51l-49.16-27.4c-17.93-10-29.05-28.92-29.05-49.45V529.16
	c0-19.35,20.75-31.63,37.71-22.3l40.76,22.4v-88.12L237,350.84z"/>
<path class="st7" d="M548.8,351.78l0.76-76.72c-17.18,0-24.99,1.56-43.84,11.03l-35.01,20.24v89.67L548.8,351.78z"/>
<linearGradient id="SVGID_00000044142782206584483530000009669677040779733135_" gradientUnits="userSpaceOnUse" x1="816.2143" y1="400.2921" x2="686.1393" y2="264.6784">
	<stop  offset="4.315509e-07" style="stop-color:#00FF9D"/>
	<stop  offset="0.4723" style="stop-color:#1A89E9"/>
	<stop  offset="0.5247" style="stop-color:#1D7CF2"/>
	<stop  offset="0.5806" style="stop-color:#1E7AEC;stop-opacity:0.9403"/>
	<stop  offset="0.654" style="stop-color:#1F73DC;stop-opacity:0.8619"/>
	<stop  offset="0.737" style="stop-color:#2168C1;stop-opacity:0.7732"/>
	<stop  offset="0.8272" style="stop-color:#25599B;stop-opacity:0.6768"/>
	<stop  offset="0.9221" style="stop-color:#29456B;stop-opacity:0.5754"/>
	<stop  offset="0.9927" style="stop-color:#2D3542;stop-opacity:0.5"/>
</linearGradient>
<path style="fill:url(#SVGID_00000044142782206584483530000009669677040779733135_);" d="M844.81,359.82l-75.82,41.91
	c0,0-11.15-19.3-27.83-30.03s-54.67-32.01-54.67-32.01l60.51-52.78l56.43,32.77C803.42,319.68,826.14,329.01,844.81,359.82z"/>
<linearGradient id="SVGID_00000029759650614407309710000014877688456836258435_" gradientUnits="userSpaceOnUse" x1="626.2998" y1="275.1358" x2="626.2998" y2="574.0272">
	<stop  offset="3.516341e-07" style="stop-color:#00FF9D"/>
	<stop  offset="0.1533" style="stop-color:#05E9AB"/>
	<stop  offset="0.7334" style="stop-color:#169BDE"/>
	<stop  offset="1" style="stop-color:#1D7CF2"/>
</linearGradient>
<path style="fill:url(#SVGID_00000029759650614407309710000014877688456836258435_);" d="M781.88,447.11l-0.39,126.91l-79.16-44.76
	v-32.8c0-34.45-18.35-66.29-48.15-83.58l-27.31-15.84l-48.7-28.23c-18.2-10.55-40.62-10.66-58.93-0.3l-48.53,27.48v-89.66
	l32.75-18.89c28.52-16.44,63.65-16.41,92.15,0.06l31.26,18.09l110.36,63.83C764.95,385.46,781.99,415.1,781.88,447.11z"/>
<linearGradient id="SVGID_00000042007215010319582520000006682044927152272265_" gradientUnits="userSpaceOnUse" x1="859.1436" y1="457.5164" x2="858.0847" y2="418.9971">
	<stop  offset="3.516341e-07" style="stop-color:#00FF9D"/>
	<stop  offset="0.1183" style="stop-color:#05E9AB"/>
	<stop  offset="0.5662" style="stop-color:#169BDE"/>
	<stop  offset="0.7721" style="stop-color:#1D7CF2"/>
	<stop  offset="1" style="stop-color:#00FF9D"/>
</linearGradient>
<path style="fill:url(#SVGID_00000042007215010319582520000006682044927152272265_);" d="M859,425.18v54.84l-0.4-60.84
	C858.86,421.12,859,423.13,859,425.18z"/>
<linearGradient id="SVGID_00000046332056677165167400000013900965780410176151_" gradientUnits="userSpaceOnUse" x1="548.7972" y1="374.6708" x2="626.8788" y2="374.6708">
	<stop  offset="3.516341e-07" style="stop-color:#00FF9D"/>
	<stop  offset="0.1533" style="stop-color:#05E9AB"/>
	<stop  offset="0.7334" style="stop-color:#169BDE"/>
	<stop  offset="1" style="stop-color:#1D7CF2"/>
</linearGradient>
<polygon style="fill:url(#SVGID_00000046332056677165167400000013900965780410176151_);" points="626.88,397.05 626.88,397.56 
	548.8,351.78 "/>
<linearGradient id="SVGID_00000120523919442404287690000016194393129989059761_" gradientUnits="userSpaceOnUse" x1="642.596" y1="484.3793" x2="743.8495" y2="663.5417">
	<stop  offset="3.516341e-07" style="stop-color:#00FF9D"/>
	<stop  offset="1" style="stop-color:#1D7CF2"/>
</linearGradient>
<path style="fill:url(#SVGID_00000120523919442404287690000016194393129989059761_);" d="M859,480.02v40
	c0,61-32.38,117.41-85.06,148.18l-31,18.1l-2.87,1.67L548.44,800.12V613.45l78.44-40.32l0.24,41.08
	c0.13,21.33,23.17,34.63,41.7,24.06L742.94,596v0.23l17.3-9.96c13.16-7.57,21.28-21.59,21.33-36.77l0.31-103.01
	c-0.31-10.66-2.32-21.22-6.13-31.18c-3.75-9.76-6.57-13.81-6.57-13.81l75.61-41.69c0.49,0.86,0.95,1.73,1.4,2.57
	c7.76,14.69,11.78,31.05,12.33,47.65l0.06,9.14L859,480.02z"/>
<linearGradient id="SVGID_00000112627198696412210870000001280960365420550809_" gradientUnits="userSpaceOnUse" x1="276.9183" y1="263.9372" x2="402.7971" y2="460.7484">
	<stop  offset="0.166" style="stop-color:#2D3542"/>
	<stop  offset="0.2331" style="stop-color:#2C3748"/>
	<stop  offset="0.3233" style="stop-color:#2B3E59"/>
	<stop  offset="0.4267" style="stop-color:#284A75"/>
	<stop  offset="0.5398" style="stop-color:#25599C"/>
	<stop  offset="0.6595" style="stop-color:#206ECE"/>
	<stop  offset="0.7363" style="stop-color:#1D7CF2"/>
	<stop  offset="0.9793" style="stop-color:#00FF9D"/>
</linearGradient>
<path style="fill:url(#SVGID_00000112627198696412210870000001280960365420550809_);" d="M470.72,440.15v45.05l-77.04,44.07v-43.31
	c0-26.71-13.74-51.47-36.24-65.63l-120.26-69.04l54.05-31.8c15.85-9.17,35.4-9.05,51.14,0.3l62.85,37.32l23.66,14.05l3.87,2.3
	C456.28,387.43,470.72,412.77,470.72,440.15z"/>
<linearGradient id="SVGID_00000086673915196767597150000018062088558776501934_" gradientUnits="userSpaceOnUse" x1="510.1103" y1="940.7018" x2="510.1103" y2="492.0779">
	<stop  offset="0" style="stop-color:#2D3542"/>
	<stop  offset="0.5514" style="stop-color:#245DA5"/>
	<stop  offset="1" style="stop-color:#1D7CF2"/>
</linearGradient>
<path style="fill:url(#SVGID_00000086673915196767597150000018062088558776501934_);" d="M549.51,445.8l-1.06,393.15
	c0,1.15-0.06,2.27-0.18,3.35v33.91c0,0-19.13,2.37-52.46-17.96l-25.09-13.38l0.21-0.13l-0.21-0.09V448.77l54.48-19.98
	C537.02,424.46,549.53,433.22,549.51,445.8z"/>
<linearGradient id="SVGID_00000049903726299866103660000001614273798332050331_" gradientUnits="userSpaceOnUse" x1="528.9377" y1="415.1617" x2="568.7292" y2="484.0826">
	<stop  offset="0.2598" style="stop-color:#2D3542"/>
	<stop  offset="0.3469" style="stop-color:#2C3748"/>
	<stop  offset="0.464" style="stop-color:#2B3E59"/>
	<stop  offset="0.5981" style="stop-color:#284A75"/>
	<stop  offset="0.7449" style="stop-color:#25599C"/>
	<stop  offset="0.9003" style="stop-color:#206ECE"/>
	<stop  offset="1" style="stop-color:#1D7CF2"/>
</linearGradient>
<path style="fill:url(#SVGID_00000049903726299866103660000001614273798332050331_);" d="M519.51,421.22l-48.79,27.56l78.85,46.37
	l77.32-44.81l-47.67-28.43C560.88,410.98,538.09,410.72,519.51,421.22z"/>
</svg>
