<svg width="144" height="57" viewBox="0 0 144 57" fill="none" xmlns="http://www.w3.org/2000/svg">
<g clip-path="url(#clip0_52_5122)">
<path d="M34.181 0.808594C28.5574 0.808594 23.1642 3.04253 19.1878 7.01898L6.21039 19.9964C2.23394 23.9728 0 29.366 0 34.9896C0 46.7001 9.49318 56.1932 21.2036 56.1932C26.8272 56.1932 32.2204 53.9592 36.1968 49.9827L45.1734 41.0062C45.1735 41.0064 45.1734 41.006 45.1734 41.0062L71.328 14.8515C73.2271 12.9524 75.8029 11.8855 78.4887 11.8855C82.9852 11.8855 86.7973 14.8161 88.1189 18.8715L96.3733 10.6171C92.6077 4.71938 86.0049 0.808594 78.4887 0.808594C72.8651 0.808594 67.4719 3.04253 63.4955 7.01898L28.3643 42.1503C26.4652 44.0494 23.8894 45.1163 21.2036 45.1163C15.6108 45.1163 11.0769 40.5825 11.0769 34.9896C11.0769 32.3038 12.1438 29.728 14.043 27.8289L27.0203 14.8515C28.9194 12.9524 31.4952 11.8855 34.181 11.8855C38.6777 11.8855 42.4896 14.8162 43.8113 18.8717L52.0658 10.6173C48.3002 4.71949 41.6974 0.808594 34.181 0.808594Z" fill="white"/>
<path d="M72.6715 42.1503C70.7724 44.0494 68.1966 45.1163 65.5108 45.1163C61.0149 45.1163 57.2031 42.1864 55.8811 38.1317L47.627 46.3859C51.3927 52.2829 57.9951 56.1932 65.5108 56.1932C71.1344 56.1932 76.5276 53.9592 80.504 49.9827L115.635 14.8515C117.534 12.9524 120.11 11.8855 122.796 11.8855C128.389 11.8855 132.923 16.4194 132.923 22.0122C132.923 24.698 131.856 27.2738 129.957 29.1729L116.979 42.1503C115.08 44.0494 112.504 45.1163 109.819 45.1163C105.322 45.1163 101.51 42.1859 100.188 38.1308L91.9343 46.3851C95.6999 52.2827 102.302 56.1932 109.819 56.1932C115.442 56.1932 120.835 53.9592 124.812 49.9827L137.789 37.0054C141.765 33.029 144 27.6358 144 22.0122C144 10.3018 134.506 0.808594 122.796 0.808594C117.172 0.808594 111.779 3.04253 107.803 7.01898L72.6715 42.1503Z" fill="white"/>
</g>
<defs>
<clipPath id="clip0_52_5122">
<rect width="144" height="55.3846" fill="white" transform="translate(0 0.808594)"/>
</clipPath>
</defs>
</svg>
