<svg width="14" height="14" viewBox="0 0 14 14" fill="none" xmlns="http://www.w3.org/2000/svg">
<g clip-path="url(#clip0_2131_4512)">
<path d="M13.5 1.5H0.5C0.223437 1.5 0 1.72344 0 2V12C0 12.2766 0.223437 12.5 0.5 12.5H13.5C13.7766 12.5 14 12.2766 14 12V2C14 1.72344 13.7766 1.5 13.5 1.5ZM12.875 3.23125V11.375H1.125V3.23125L0.69375 2.89531L1.30781 2.10625L1.97656 2.62656H12.025L12.6938 2.10625L13.3078 2.89531L12.875 3.23125ZM12.025 2.625L7 6.53125L1.975 2.625L1.30625 2.10469L0.692188 2.89375L1.12344 3.22969L6.46094 7.37969C6.61444 7.49894 6.80328 7.56367 6.99766 7.56367C7.19203 7.56367 7.38088 7.49894 7.53438 7.37969L12.875 3.23125L13.3062 2.89531L12.6922 2.10625L12.025 2.625Z" fill="#999F9F"/>
</g>
<defs>
<clipPath id="clip0_2131_4512">
<rect width="14" height="14" fill="white" transform="translate(0 0.00195312)"/>
</clipPath>
</defs>
</svg>
