<svg width="281" height="42" viewBox="0 0 281 42" fill="none" xmlns="http://www.w3.org/2000/svg">
<g clip-path="url(#clip0_7_1474)">
<g clip-path="url(#clip1_7_1474)">
<g clip-path="url(#clip2_7_1474)">
<path d="M68.4474 17.4997L67.9812 19.8773H67.8413C67.2353 18.572 65.5569 16.7072 61.8273 16.7072C55.8133 16.7072 49.6595 21.3692 48.3075 28.6885C47.142 35.1221 50.2189 40.7631 57.3518 40.7631C59.9625 40.7631 62.9462 39.7375 64.5313 37.5463H64.6712L64.2516 39.9706H70.9182L75.0674 17.4997H68.4474ZM66.2562 28.6885C65.8367 30.8797 63.7388 34.4694 59.543 34.4694C55.4404 34.4694 54.6012 30.8797 54.9742 28.7818C55.4404 26.2177 57.7248 23.0009 61.6409 23.0009C65.4637 23.0475 66.7691 26.0778 66.2562 28.6885Z" fill="white"/>
<path d="M78.844 17.4997H85.0911L84.6715 19.8773H84.8114C85.6039 18.8051 87.189 16.7072 91.0118 16.7072L89.7531 23.5137C86.5829 23.5603 84.2986 24.213 83.6925 27.6629L81.4081 39.9706H74.6948L78.844 17.4997Z" fill="white"/>
<path d="M95.4865 8.73511H102.246L99.0762 25.6582H99.1694L106.954 17.4997H114.88L104.623 27.3831L110.498 39.9706H102.899L98.5634 29.1547H98.4235L96.4655 39.9706H89.7056L95.4865 8.73511Z" fill="white"/>
<path d="M125.651 16.7072C118.844 16.7072 112.784 22.5813 111.665 28.8284C110.406 35.495 114.928 40.7165 121.362 40.7165C123.646 40.7165 126.024 40.0172 128.075 38.6652C130.22 37.3598 132.178 35.4484 133.67 32.9309H126.816C125.698 34.0964 124.392 35.0288 122.341 35.0288C119.73 35.0288 117.772 33.4438 117.912 30.7864H134.742C134.928 30.2736 135.068 29.854 135.208 29.0149C136.513 22.1617 132.504 16.7072 125.651 16.7072ZM118.844 26.2643C119.357 24.9589 121.222 22.3948 124.719 22.3948C128.215 22.3948 129.054 24.9123 129.054 26.2643H118.844Z" fill="white"/>
<path d="M39.4031 8.73511L27.5616 26.544H27.4684V8.73511H21.7341L0.708496 39.9706H8.867L20.6619 22.1617H20.7551V39.9706H26.536L38.3309 22.1617H38.4241V39.9706H45.184V8.73511H39.4031Z" fill="white"/>
<path d="M152.27 17.4997H148.028L149.287 10.833H143.413L142.946 13.3971C142.434 16.3342 140.569 17.22 138.145 17.4997H138.098L137.072 22.5813H140.382L137.165 39.9239H143.879L147.096 22.5813H151.385L152.27 17.4997Z" fill="white"/>
<path d="M256.187 31.4857C253.996 36.5673 248.727 40.7631 242.667 40.7631C235.86 40.7631 231.618 35.4018 232.83 28.6885C234.089 22.1151 240.149 16.7538 246.909 16.7538C252.83 16.7538 256.933 20.7165 257.072 26.2177H250.266C249.846 24.6326 248.821 23.0475 245.977 23.0475C242.807 22.9076 240.196 25.4717 239.59 28.7351C238.984 32.0452 240.662 34.4694 243.879 34.4694C246.63 34.4694 248.308 32.8843 249.287 31.4391L256.187 31.4857ZM200.569 0.763062L187.515 8.7351H191.198L179.357 26.544H179.217V8.7351H173.436L161.641 26.544H161.501V8.7351H154.788V39.9706H160.662L172.504 22.1617H172.644V39.9706H178.424L199.357 8.7351H202.667L200.569 0.763062ZM213.296 39.9706H206.63L207.049 37.5463H206.909C205.324 39.7375 202.341 40.7631 199.73 40.7631C192.597 40.7631 189.52 35.1687 190.686 28.6885C191.991 21.3692 198.191 16.7072 204.205 16.7072C207.888 16.7072 209.613 18.5253 210.219 19.8773H210.359L210.825 17.4997H217.492L213.296 39.9706ZM202.014 34.516C206.163 34.516 208.261 30.9263 208.727 28.7351C209.194 26.0312 207.935 23.0475 204.112 23.0475C200.243 23.0475 197.958 26.2643 197.445 28.8284C197.072 30.9263 197.912 34.516 202.014 34.516ZM234.275 17.4997H230.079L231.338 10.833H225.464L224.998 13.3971C224.485 16.3342 222.62 17.22 220.196 17.4997H220.103L219.124 22.5813H222.434L219.217 39.924H225.93L229.147 22.5813H233.436L234.275 17.4997ZM262.527 8.7351H269.24L267.189 19.8773H267.329C268.774 17.7794 270.686 16.7072 273.669 16.7072C275.814 16.7072 278.238 17.4997 279.357 19.2246C280.802 21.4158 280.662 23.3738 279.87 27.3832L277.585 39.924H270.872L273.11 27.7095C273.296 26.6372 273.949 23.0009 270.406 23.0009C266.63 23.0009 265.977 26.3575 265.79 27.4764L263.506 39.924H256.793L262.527 8.7351Z" fill="white"/>
</g>
</g>
</g>
<defs>
<clipPath id="clip0_7_1474">
<rect width="280" height="41" fill="white" transform="translate(0.666504 0.163086)"/>
</clipPath>
<clipPath id="clip1_7_1474">
<rect width="280" height="41" fill="white" transform="translate(0.666504 0.163086)"/>
</clipPath>
<clipPath id="clip2_7_1474">
<rect width="280" height="41" fill="white" transform="translate(0.666504 0.163086)"/>
</clipPath>
</defs>
</svg>
