<svg width="31" height="32" viewBox="0 0 31 32" fill="none" xmlns="http://www.w3.org/2000/svg">
<circle cx="15.6152" cy="15.9464" r="15.2275" fill="url(#paint0_linear_203_8296)"/>
<path d="M9.48838 15.691C9.48838 15.4879 9.56906 15.2931 9.71269 15.1495C9.85632 15.0059 10.0511 14.9252 10.2542 14.9252H20.4657C20.6688 14.9252 20.8636 15.0059 21.0072 15.1495C21.1508 15.2931 21.2315 15.4879 21.2315 15.691C21.2315 15.8941 21.1508 16.0889 21.0072 16.2326C20.8636 16.3762 20.6688 16.4569 20.4657 16.4569H10.2542C10.0511 16.4569 9.85632 16.3762 9.71269 16.2326C9.56906 16.0889 9.48838 15.8941 9.48838 15.691Z" fill="#141414"/>
<defs>
<linearGradient id="paint0_linear_203_8296" x1="0.387718" y1="15.9464" x2="30.8427" y2="15.9464" gradientUnits="userSpaceOnUse">
<stop stop-color="#00FC9E"/>
<stop offset="1" stop-color="#1C7EF0"/>
</linearGradient>
</defs>
</svg>
