<svg width="31" height="32" viewBox="0 0 31 32" fill="none" xmlns="http://www.w3.org/2000/svg">
<circle cx="15.6222" cy="15.9464" r="15.2275" fill="url(#paint0_linear_203_8301)"/>
<path d="M22.3798 17.5028H17.2741V22.6085C17.2741 22.8793 17.1665 23.139 16.975 23.3305C16.7835 23.522 16.5238 23.6296 16.2529 23.6296C15.9821 23.6296 15.7224 23.522 15.5309 23.3305C15.3394 23.139 15.2318 22.8793 15.2318 22.6085V17.5028H10.1261C9.85527 17.5028 9.59554 17.3952 9.40404 17.2037C9.21253 17.0122 9.10495 16.7524 9.10495 16.4816C9.10495 16.2108 9.21253 15.9511 9.40404 15.7596C9.59554 15.5681 9.85527 15.4605 10.1261 15.4605H15.2318V10.3548C15.2318 10.0839 15.3394 9.82421 15.5309 9.6327C15.7224 9.4412 15.9821 9.33362 16.2529 9.33362C16.5238 9.33362 16.7835 9.4412 16.975 9.6327C17.1665 9.82421 17.2741 10.0839 17.2741 10.3548V15.4605H22.3798C22.6506 15.4605 22.9104 15.5681 23.1019 15.7596C23.2934 15.9511 23.4009 16.2108 23.4009 16.4816C23.4009 16.7524 23.2934 17.0122 23.1019 17.2037C22.9104 17.3952 22.6506 17.5028 22.3798 17.5028Z" fill="#141414"/>
<defs>
<linearGradient id="paint0_linear_203_8301" x1="0.394714" y1="15.9464" x2="30.8497" y2="15.9464" gradientUnits="userSpaceOnUse">
<stop stop-color="#00FC9E"/>
<stop offset="1" stop-color="#1C7EF0"/>
</linearGradient>
</defs>
</svg>
