<svg width="14" height="15" viewBox="0 0 14 15" fill="none" xmlns="http://www.w3.org/2000/svg">
<path d="M13 8.20013H8V13.2001C8 13.4654 7.89464 13.7197 7.70711 13.9072C7.51957 14.0948 7.26522 14.2001 7 14.2001C6.73478 14.2001 6.48043 14.0948 6.29289 13.9072C6.10536 13.7197 6 13.4654 6 13.2001V8.20013H1C0.734784 8.20013 0.48043 8.09478 0.292893 7.90724C0.105357 7.7197 0 7.46535 0 7.20013C0 6.93492 0.105357 6.68056 0.292893 6.49303C0.48043 6.30549 0.734784 6.20013 1 6.20013H6V1.20013C6 0.934918 6.10536 0.680564 6.29289 0.493027C6.48043 0.305491 6.73478 0.200134 7 0.200134C7.26522 0.200134 7.51957 0.305491 7.70711 0.493027C7.89464 0.680564 8 0.934918 8 1.20013V6.20013H13C13.2652 6.20013 13.5196 6.30549 13.7071 6.49303C13.8946 6.68056 14 6.93492 14 7.20013C14 7.46535 13.8946 7.7197 13.7071 7.90724C13.5196 8.09478 13.2652 8.20013 13 8.20013Z" fill="#2A80B3"/>
</svg>
