<svg width="44" height="44" viewBox="0 0 44 44" fill="none" xmlns="http://www.w3.org/2000/svg">
<g clip-path="url(#clip0_102_443)">
<path d="M35.9883 13.0474H30.2512C30.1585 13.1862 30.0197 13.2789 29.8809 13.4177L28.632 14.574L29.0022 16.2858H34.3692V31.6465H9.10734V16.2858H14.4744L14.8446 14.574L13.5491 13.4173C13.4104 13.2785 13.3178 13.1859 13.1789 13.0471H7.48783C6.60866 13.0471 5.8683 13.7875 5.8683 14.6666V35.6719C5.8683 36.5511 6.60865 37.2914 7.48783 37.2914H18.5457V40.2064H17.1576C15.492 40.2064 14.1504 41.548 14.1504 43.2136C14.1504 43.6299 14.5205 44.0001 14.9368 44.0001H28.4931C28.9095 44.0001 29.2797 43.6299 29.2797 43.2136C29.2797 41.548 27.9381 40.2064 26.2725 40.2064H24.8844V37.2914H35.9422C36.8214 37.2914 37.5618 36.5976 37.5618 35.6719V14.6203C37.608 13.7412 36.8675 13.0474 35.9883 13.0474ZM21.7381 35.5333C21.1364 35.5333 20.6275 35.0244 20.6275 34.4228C20.6275 33.8213 21.1366 33.3124 21.7381 33.3124C22.3395 33.3124 22.8486 33.8213 22.8486 34.4228C22.8486 35.0247 22.3395 35.5333 21.7381 35.5333Z" fill="url(#paint0_linear_102_443)"/>
<path d="M15.7241 11.0579L18.1763 13.2786C18.2689 13.3712 18.3151 13.51 18.3151 13.6488L17.6674 16.8874C17.5286 17.489 18.1763 17.9514 18.7314 17.6739L21.5999 16.0544C21.7387 16.0082 21.8774 16.0082 21.9701 16.0544L24.8386 17.6739C25.3937 17.9979 26.0414 17.489 25.9026 16.8874L25.255 13.6488C25.2088 13.51 25.255 13.3712 25.3937 13.2786L27.8458 11.0579C28.3087 10.6416 28.0772 9.90118 27.4295 9.80856L24.0524 9.43838C23.9137 9.43838 23.8211 9.34576 23.7284 9.20698L22.3403 6.19977C22.109 5.64467 21.2762 5.64467 21.0448 6.19977L19.6567 9.20698C19.6106 9.34576 19.4718 9.43838 19.3327 9.43838L16.0475 9.80856C15.4928 9.90119 15.2617 10.6416 15.7241 11.0579Z" fill="url(#paint1_linear_102_443)"/>
<path d="M21.7359 4.02516C22.291 4.02516 22.7077 3.60884 22.7077 3.05339V0.971777C22.7077 0.416669 22.2913 0 21.7359 0C21.1808 0 20.7641 0.41633 20.7641 0.971777V3.05372C20.7641 3.56268 21.1808 4.02516 21.7359 4.02516Z" fill="url(#paint2_linear_102_443)"/>
<path d="M25.8105 4.95111C25.9493 4.99725 26.0881 5.04373 26.2268 5.04373C26.5971 5.04373 26.9208 4.8588 27.106 4.48863L28.0313 2.6381C28.2627 2.17529 28.0775 1.57403 27.5685 1.34261C27.1057 1.11122 26.5045 1.29647 26.273 1.80542L25.3478 3.65595C25.1164 4.16425 25.3016 4.71969 25.8105 4.95111Z" fill="url(#paint3_linear_102_443)"/>
<path d="M16.3701 4.48759C16.555 4.81162 16.879 5.04269 17.2493 5.04269C17.388 5.04269 17.5268 4.99654 17.6656 4.95007C18.1283 4.71866 18.3594 4.11742 18.1283 3.65459L17.2031 1.75755C16.9717 1.29474 16.3704 1.06367 15.9076 1.29474C15.4448 1.52615 15.2137 2.12739 15.4448 2.59023L16.3701 4.48759Z" fill="url(#paint4_linear_102_443)"/>
<path d="M21.0431 29.2875H22.4774C22.7549 29.2875 22.9863 29.0561 22.9863 28.7786V23.7355H24.5593C25.0221 23.7355 25.2997 23.2265 25.0221 22.8563L22.1998 18.8312C21.9684 18.5071 21.5059 18.5071 21.2745 18.8312L18.4522 22.8102C18.1747 23.1803 18.4522 23.6894 18.9151 23.6894H20.4881V28.7324C20.4878 29.0561 20.7191 29.2875 21.0431 29.2875Z" fill="url(#paint5_linear_102_443)"/>
</g>
<defs>
<linearGradient id="paint0_linear_102_443" x1="5.8683" y1="28.5236" x2="37.5638" y2="28.5236" gradientUnits="userSpaceOnUse">
<stop stopColor="#00FC9E"/>
<stop offset="1" stopColor="#1C7EF0"/>
</linearGradient>
<linearGradient id="paint1_linear_102_443" x1="15.4769" y1="11.7791" x2="28.0887" y2="11.7791" gradientUnits="userSpaceOnUse">
<stop stopColor="#00FC9E"/>
<stop offset="1" stopColor="#1C7EF0"/>
</linearGradient>
<linearGradient id="paint2_linear_102_443" x1="20.7641" y1="2.01258" x2="22.7077" y2="2.01258" gradientUnits="userSpaceOnUse">
<stop stopColor="#00FC9E"/>
<stop offset="1" stopColor="#1C7EF0"/>
</linearGradient>
<linearGradient id="paint3_linear_102_443" x1="25.2493" y1="3.14393" x2="28.1297" y2="3.14393" gradientUnits="userSpaceOnUse">
<stop stopColor="#00FC9E"/>
<stop offset="1" stopColor="#1C7EF0"/>
</linearGradient>
<linearGradient id="paint4_linear_102_443" x1="15.3542" y1="3.1234" x2="18.219" y2="3.1234" gradientUnits="userSpaceOnUse">
<stop stopColor="#00FC9E"/>
<stop offset="1" stopColor="#1C7EF0"/>
</linearGradient>
<linearGradient id="paint5_linear_102_443" x1="18.3415" y1="23.9378" x2="25.1328" y2="23.9378" gradientUnits="userSpaceOnUse">
<stop stopColor="#00FC9E"/>
<stop offset="1" stopColor="#1C7EF0"/>
</linearGradient>
<clipPath id="clip0_102_443">
<rect width="44" height="44" fill="white"/>
</clipPath>
</defs>
</svg>
