<svg width="44" height="44" viewBox="0 0 44 44" fill="none" xmlns="http://www.w3.org/2000/svg">
  <g filter="url(#glow)">
    <path d="M22 4C24.2091 4 26 5.79086 26 8C26 10.2091 24.2091 12 22 12C19.7909 12 18 10.2091 18 8C18 5.79086 19.7909 4 22 4Z" fill="url(#gradientArc1)" />
    <path d="M10 22C10 19.7909 11.7909 18 14 18C16.2091 18 18 19.7909 18 22C18 24.2091 16.2091 26 14 26C11.7909 26 10 24.2091 10 22Z" fill="url(#gradientArc2)" />
    <path d="M30 22C30 19.7909 31.7909 18 34 18C36.2091 18 38 19.7909 38 22C38 24.2091 36.2091 26 34 26C31.7909 26 30 24.2091 30 22Z" fill="url(#gradientArc3)" />
    <path d="M22 36C24.2091 36 26 37.7909 26 40C26 42.2091 24.2091 44 22 44C19.7909 44 18 42.2091 18 40C18 37.7909 19.7909 36 22 36Z" fill="url(#gradientArc4)" />
    <polygon points="22,16 26,26 18,26" fill="url(#triangleGradient)" />
  </g>
  <defs>
    <linearGradient id="gradientArc1" x1="22" y1="4" x2="22" y2="12" gradientUnits="userSpaceOnUse">
      <stop stop-color="#1C7EF0"/>
      <stop offset="1" stop-color="#00FC9E"/>
    </linearGradient>
    <linearGradient id="gradientArc2" x1="10" y1="18" x2="18" y2="26" gradientUnits="userSpaceOnUse">
      <stop stop-color="#00FC9E"/>
      <stop offset="1" stop-color="#1C7EF0"/>
    </linearGradient>
    <linearGradient id="gradientArc3" x1="30" y1="18" x2="38" y2="26" gradientUnits="userSpaceOnUse">
      <stop stop-color="#1C7EF0"/>
      <stop offset="1" stop-color="#00FC9E"/>
    </linearGradient>
    <linearGradient id="gradientArc4" x1="22" y1="36" x2="22" y2="44" gradientUnits="userSpaceOnUse">
      <stop stop-color="#00FC9E"/>
      <stop offset="1" stop-color="#1C7EF0"/>
    </linearGradient>
    <radialGradient id="triangleGradient" cx="0" cy="0" r="1" gradientUnits="userSpaceOnUse" gradientTransform="translate(22 22) scale(8)">
      <stop stop-color="#1C7EF0"/>
      <stop offset="1" stop-color="#00FC9E"/>
    </radialGradient>
    <filter id="glow" x="-5" y="-5" width="54" height="54" filterUnits="userSpaceOnUse" color-interpolation-filters="sRGB">
      <feGaussianBlur stdDeviation="2" result="coloredBlur"/>
      <feMerge>
        <feMergeNode in="coloredBlur"/>
        <feMergeNode in="SourceGraphic"/>
      </feMerge>
    </filter>
  </defs>
</svg>
