<svg xmlns="http://www.w3.org/2000/svg" width="20" height="21" viewBox="0 0 20 21" fill="none">
  <path d="M17.6084 8.77341C18.5748 9.79014 18.5748 11.3349 17.6084 12.3516C15.9786 14.0664 13.1794 16.3958 9.99984 16.3958C6.82024 16.3958 4.02108 14.0664 2.39126 12.3516C1.42492 11.3349 1.42492 9.79014 2.39126 8.77341C4.02108 7.05861 6.82024 4.72916 9.99984 4.72916C13.1794 4.72916 15.9786 7.05861 17.6084 8.77341Z" stroke="#999F9F" stroke-width="1.5"/>
  <path d="M12.4998 10.5625C12.4998 11.9432 11.3805 13.0625 9.99984 13.0625C8.61913 13.0625 7.49984 11.9432 7.49984 10.5625C7.49984 9.18179 8.61913 8.0625 9.99984 8.0625C11.3805 8.0625 12.4998 9.18179 12.4998 10.5625Z" stroke="#999F9F" stroke-width="1.5"/>
</svg>