<svg width="71" height="54" viewBox="0 0 71 54" fill="none" xmlns="http://www.w3.org/2000/svg">
<path d="M19.9508 1.55713C20.4104 1.21241 20.9335 0.961595 21.49 0.819007C22.0466 0.676419 22.6258 0.644849 23.1945 0.7261C23.7633 0.807351 24.3105 0.999832 24.8048 1.29255C25.2992 1.58527 25.7311 1.9725 26.0758 2.43213C26.4205 2.89176 26.6713 3.41478 26.8139 3.97134C26.9565 4.5279 26.9881 5.10709 26.9068 5.67585C26.8256 6.24461 26.6331 6.79179 26.3404 7.28616C26.0477 7.78053 25.6604 8.21241 25.2008 8.55713C18.3583 13.689 14.4383 18.6809 12.1939 23.0384C15.2756 22.2451 18.5278 22.4316 21.4985 23.5719C24.4692 24.7122 27.0109 26.7497 28.7703 29.4012C30.5297 32.0527 31.4193 35.1864 31.3155 38.3668C31.2118 41.5472 30.1198 44.6162 28.1913 47.1474C26.2628 49.6785 23.5937 51.546 20.555 52.4903C17.5162 53.4345 14.2588 53.4086 11.2354 52.4162C8.21206 51.4237 5.57299 49.514 3.68503 46.9525C1.79706 44.391 0.753991 41.305 0.700807 38.1234C0.140204 32.7506 0.90324 27.3222 2.92331 22.3121C5.53518 15.7234 10.6408 8.53963 19.9508 1.55713ZM59.3258 1.55713C59.7854 1.21241 60.3085 0.961595 60.865 0.819007C61.4216 0.676419 62.0008 0.644849 62.5695 0.7261C63.1383 0.807351 63.6855 0.999832 64.1798 1.29255C64.6742 1.58527 65.1061 1.9725 65.4508 2.43213C65.7955 2.89176 66.0463 3.41478 66.1889 3.97134C66.3315 4.5279 66.3631 5.10709 66.2818 5.67585C66.2006 6.24461 66.0081 6.79179 65.7154 7.28616C65.4227 7.78053 65.0354 8.21241 64.5758 8.55713C57.7333 13.689 53.8133 18.6809 51.5689 23.0384C54.6506 22.2451 57.9028 22.4316 60.8735 23.5719C63.8442 24.7122 66.3859 26.7497 68.1453 29.4012C69.9047 32.0527 70.7943 35.1864 70.6905 38.3668C70.5868 41.5472 69.4948 44.6162 67.5663 47.1474C65.6378 49.6785 62.9687 51.546 59.93 52.4903C56.8912 53.4345 53.6338 53.4086 50.6104 52.4162C47.5871 51.4237 44.948 49.514 43.06 46.9525C41.1721 44.391 40.129 41.305 40.0758 38.1234C39.5152 32.7506 40.2782 27.3222 42.2983 22.3121C44.9146 15.7234 50.0158 8.53963 59.3258 1.55713Z" fill="#01FF9D"/>
</svg>
