<svg width="235" height="179" viewBox="0 0 235 179" fill="none" xmlns="http://www.w3.org/2000/svg">
<g filter="url(#filter0_b_3_850)">
<g clip-path="url(#clip0_3_850)">
<rect x="18.8485" y="0.769043" width="217.775" height="152.22" rx="14" transform="rotate(7 18.8485 0.769043)" fill="white" fill-opacity="0.04"/>
<path d="M30.6525 18.6342C30.854 16.9932 32.3139 16.0441 34.2857 16.2862C36.1119 16.5104 37.1646 17.674 37.0674 19.3413L35.7573 19.1804C35.8081 18.2194 35.2014 17.5807 34.1295 17.4491C32.9252 17.3013 32.0697 17.8141 31.9543 18.7537C31.86 19.5213 32.2399 20.0381 33.1138 20.3603L34.6431 20.9243C36.1608 21.4733 36.8508 22.4178 36.6851 23.7676C36.4739 25.488 35.0024 26.4223 32.9644 26.172C31.019 25.9332 29.8472 24.7549 29.9693 23.1042L31.2927 23.2667C31.207 24.1831 31.9031 24.8596 33.1074 25.0075C34.3778 25.1635 35.2582 24.6671 35.3752 23.7142C35.4678 22.9599 35.1161 22.4331 34.2289 22.1093L32.698 21.5586C31.1803 21.0095 30.4835 20.0105 30.6525 18.6342ZM39.3381 26.7934L38.0941 26.6407L38.7603 21.2148L37.4899 21.0589L37.6182 20.0134L38.8887 20.1694L39.1373 18.1446L40.3812 18.2974L40.1326 20.3221L41.4031 20.4781L41.2747 21.5236L40.0043 21.3676L39.3381 26.7934ZM43.2556 27.4356C41.8661 27.265 41.1414 26.3835 41.2861 25.2057C41.4323 24.0147 42.41 23.3824 43.9465 23.4502L46.004 23.5416L46.0267 23.3563C46.16 22.2712 45.5586 21.8078 44.6852 21.7005C43.6397 21.5722 42.9873 21.9622 42.8915 22.743L41.8063 22.6098C41.972 21.2599 43.1925 20.5098 44.86 20.7145C46.4613 20.9111 47.4425 21.8913 47.228 23.6382L46.7291 27.7009L45.6704 27.5709L45.6664 26.5092C45.2446 27.2097 44.3011 27.564 43.2556 27.4356ZM43.7315 26.5135C44.9093 26.6581 45.7182 25.9783 45.8677 24.7607L45.91 24.4167L44.2395 24.3459C43.1281 24.3169 42.6261 24.6851 42.5481 25.3204C42.4636 26.0085 42.9243 26.4143 43.7315 26.5135ZM49.9101 28.0915L48.6661 27.9388L49.3323 22.5129L48.0619 22.3569L48.1902 21.3115L49.4607 21.4675L49.7093 19.4427L50.9533 19.5954L50.7047 21.6202L51.9751 21.7762L51.8467 22.8217L50.5763 22.6657L49.9101 28.0915ZM53.6241 20.4204C53.1741 20.3652 52.8491 19.9491 52.9043 19.4992C52.9612 19.036 53.3756 18.7242 53.8255 18.7794C54.2755 18.8347 54.6022 19.2375 54.5453 19.7006C54.4901 20.1506 54.074 20.4756 53.6241 20.4204ZM52.0322 28.3521L52.8268 21.8808L54.0708 22.0335L53.2762 28.5048L52.0322 28.3521ZM54.5189 26.7499L55.71 26.8961C55.6287 27.5578 56.0829 28.0166 56.9033 28.1173C57.7768 28.2246 58.3235 27.929 58.3966 27.3335C58.4503 26.8968 58.271 26.6061 57.6172 26.3512L56.5116 25.9468C55.3944 25.5275 54.9217 24.8918 55.0387 23.939C55.1849 22.7479 56.2833 22.1171 57.7126 22.2926C59.1286 22.4665 59.9574 23.3742 59.8328 24.6082L58.6418 24.462C58.6949 23.8103 58.3086 23.3464 57.5542 23.2538C56.7735 23.1579 56.2945 23.4484 56.2214 24.0439C56.1677 24.4806 56.4496 24.8107 57.0653 25.0475L58.1693 25.4652C59.2352 25.8647 59.7161 26.4342 59.5974 27.4003C59.4463 28.6311 58.2918 29.2819 56.7566 29.0934C55.2348 28.9065 54.3678 27.9806 54.5189 26.7499ZM62.3111 29.6142L61.0671 29.4614L61.7333 24.0356L60.4628 23.8796L60.5912 22.8341L61.8617 22.9901L62.1103 20.9653L63.3542 21.1181L63.1056 23.1428L64.3761 23.2988L64.2477 24.3443L62.9773 24.1883L62.3111 29.6142ZM66.025 21.943C65.5751 21.8878 65.25 21.4718 65.3053 21.0218C65.3622 20.5586 65.7766 20.2468 66.2265 20.3021C66.6765 20.3573 67.0031 20.7601 66.9463 21.2233C66.891 21.6732 66.475 21.9983 66.025 21.943ZM64.4332 29.8747L65.2278 23.4034L66.4718 23.5562L65.6772 30.0275L64.4332 29.8747ZM67.1915 26.9357C67.4401 24.9109 68.896 23.6658 70.7885 23.8981C72.4162 24.098 73.4406 25.1641 73.4884 26.6342L72.2445 26.4814C72.1335 25.635 71.5254 25.117 70.6917 25.0146C69.5139 24.87 68.5961 25.6708 68.4239 27.0736C68.2533 28.4631 68.8971 29.4556 70.0749 29.6002C70.9616 29.7091 71.6801 29.3272 71.9993 28.5872L73.2433 28.74C72.8196 30.1119 71.5 30.9036 69.9384 30.7119C68.0327 30.4779 66.9413 28.9737 67.1915 26.9357Z" fill="white"/>
<path d="M30.7764 144.389L24.3167 143.61L24.4386 142.617L27.8486 140.336C29.5611 139.189 30.0774 138.594 30.2026 137.575C30.3504 136.371 29.75 135.572 28.5987 135.431C27.4209 135.286 26.5477 136.052 26.3539 137.412L25.0569 137.252C25.3485 135.206 26.8095 134.029 28.7549 134.268C30.6738 134.503 31.7615 135.819 31.5357 137.658C31.3683 139.022 30.5748 139.905 28.7005 141.166L26.5042 142.642L30.9243 143.185L30.7764 144.389ZM38.8155 143.429L37.6774 143.289L37.4401 145.221L36.1962 145.068L36.4334 143.136L31.484 142.528L31.6253 141.377L36.9343 135.447L38.615 135.653L37.8187 142.137L38.9569 142.277L38.8155 143.429ZM33.0281 141.549L36.5748 141.985L37.202 136.876L33.0281 141.549ZM41.0909 145.656L39.8469 145.503L41.0412 135.776L42.2852 135.929L41.762 140.19C42.2583 139.539 43.0976 139.159 44.1034 139.282C45.7576 139.485 46.4233 140.628 46.2202 142.282L45.7343 146.239L44.4903 146.087L44.9421 142.408C45.1029 141.097 44.5459 140.492 43.6196 140.378C42.4153 140.23 41.6596 141.024 41.5231 142.136L41.0909 145.656Z" fill="white"/>
<path d="M27.6144 43.9229C27.7558 42.7716 28.5444 41.9281 29.6502 41.6743C28.7975 41.18 28.4004 40.3656 28.5191 39.3995C28.7027 37.9041 30.1115 37.0427 32.0171 37.2767C33.8963 37.5074 35.0416 38.6824 34.8564 40.1911C34.7362 41.1704 34.1407 41.8629 33.1969 42.1098C34.2266 42.5854 34.7977 43.6228 34.6531 44.8006C34.4468 46.4813 32.9059 47.4339 30.7885 47.1739C28.6578 46.9123 27.4064 45.6168 27.6144 43.9229ZM29.7003 39.6251C29.585 40.5647 30.291 41.2694 31.4821 41.4156C32.6863 41.5635 33.5138 41.0606 33.6275 40.1342C33.7396 39.2211 33.0568 38.5462 31.8525 38.3983C30.6615 38.2521 29.8092 38.7385 29.7003 39.6251ZM28.8962 43.9863C28.7646 45.0582 29.5668 45.8552 30.9298 46.0226C32.2797 46.1883 33.2508 45.609 33.3825 44.5371C33.5124 43.4784 32.7219 42.6962 31.3456 42.5272C29.9825 42.3599 29.0262 42.9276 28.8962 43.9863ZM36.8426 47.7561L35.5986 47.6033L36.7945 37.8633L38.0385 38.016L37.2634 44.3285L40.5089 41.6374L42.0705 41.8291L39.2789 44.1058L41.2626 48.2988L39.8334 48.1233L38.3082 44.9001L37.0684 45.9166L36.8426 47.7561Z" fill="white"/>
<path d="M28.1355 59.0814L30.7441 56.3255L32.2527 56.5108L29.4674 59.3928C29.8145 59.301 30.1667 59.2771 30.4976 59.3177C32.4826 59.5615 33.6438 61.1548 33.4114 63.0473C33.166 65.0456 31.4819 66.2896 29.5101 66.0475C27.525 65.8037 26.1735 64.1198 26.4107 62.1877C26.5505 61.0496 26.9921 60.2978 28.1355 59.0814ZM27.7325 62.3634C27.5716 63.6736 28.3562 64.7237 29.6531 64.8829C30.9235 65.0389 31.9388 64.2098 32.0996 62.8996C32.2605 61.5895 31.4743 60.5526 30.2039 60.3966C28.907 60.2374 27.8934 61.0533 27.7325 62.3634ZM35.4626 66.6172L34.2187 66.4644L35.4146 56.7244L36.6586 56.8771L35.8835 63.1896L39.1289 60.4984L40.6905 60.6902L37.899 62.9669L39.8827 67.1599L38.4535 66.9844L36.9283 63.7612L35.6885 64.7777L35.4626 66.6172Z" fill="white"/>
<path d="M31.1836 83.1612L30.0455 83.0214L29.8082 84.9536L28.5642 84.8008L28.8015 82.8687L23.8521 82.261L23.9934 81.1096L29.3023 75.1792L30.983 75.3856L30.1868 81.8701L31.3249 82.0098L31.1836 83.1612ZM25.3962 81.2819L28.9428 81.7174L29.5701 76.6091L25.3962 81.2819ZM33.4838 85.4049L32.2398 85.2521L33.4357 75.5121L34.6797 75.6648L33.9046 81.9773L37.1501 79.2862L38.7117 79.4779L35.9201 81.7546L37.9039 85.9476L36.4746 85.7721L34.9494 82.5489L33.7097 83.5654L33.4838 85.4049Z" fill="white"/>
<path d="M27.9314 103.74L21.4717 102.96L21.5935 101.968L25.0036 99.6863C26.7161 98.5398 27.2324 97.9449 27.3575 96.9259C27.5054 95.7216 26.905 94.9225 25.7537 94.7812C24.5758 94.6365 23.7027 95.4025 23.5088 96.7623L22.2119 96.6031C22.5035 94.5567 23.9645 93.3794 25.9099 93.6182C27.8288 93.8538 28.9165 95.1695 28.6907 97.009C28.5233 98.3721 27.7298 99.2553 25.8555 100.516L23.6592 101.993L28.0792 102.536L27.9314 103.74ZM30.3806 104.054L29.1366 103.901L30.3325 94.1613L31.5765 94.314L30.8014 100.626L34.0469 97.9353L35.6085 98.1271L32.8169 100.404L34.8007 104.597L33.3714 104.421L31.8462 101.198L30.6065 102.215L30.3806 104.054Z" fill="white"/>
<path d="M19.796 116.936C20.16 113.971 21.9421 112.148 24.3507 112.444C26.746 112.738 28.0341 114.938 27.6701 117.903C27.3045 120.88 25.5935 122.672 23.132 122.369C20.6573 122.065 19.4304 119.913 19.796 116.936ZM21.0797 117.093C20.7905 119.449 21.5943 120.998 23.275 121.205C24.9557 121.411 26.0972 120.101 26.3864 117.745C26.6789 115.363 25.8884 113.815 24.2077 113.609C22.527 113.402 21.3722 114.711 21.0797 117.093Z" fill="white"/>
<rect x="53.8705" y="134.924" width="28.8885" height="14.4442" rx="7.22212" transform="rotate(7 53.8705 134.924)" fill="white" fill-opacity="0.1"/>
<path d="M64.2338 140.507L62.5575 140.301L62.6767 139.33L65.3896 139.663L64.4106 147.637L63.374 147.51L64.2338 140.507ZM68.0034 148.212C66.4374 148.02 65.6325 146.735 65.8343 145.091C66.0374 143.437 67.1458 142.342 68.7449 142.538C69.572 142.64 70.2221 143.089 70.5048 143.795L70.9462 140.2L71.9718 140.326L70.9752 148.443L70.0488 148.329L70.0811 147.337C69.6375 148.032 68.8636 148.318 68.0034 148.212ZM68.328 147.301C69.3867 147.431 70.1335 146.727 70.2717 145.603C70.4071 144.5 69.8539 143.626 68.7952 143.496C67.7365 143.366 67.0214 144.084 66.886 145.187C66.7493 146.301 67.2693 147.171 68.328 147.301Z" fill="white"/>
<path d="M92.7693 146.99L91.8165 146.873L91.9221 146.013L94.9551 143.739L90.6542 143.211L90.7955 142.06L96.7375 142.789L96.6091 143.835L93.6817 146.014C95.2851 146.412 96.381 147.662 96.1698 149.382C95.9325 151.314 94.3257 152.366 92.3803 152.128C90.5011 151.897 89.2926 150.58 89.5364 148.595L90.8201 148.752C90.6673 149.996 91.3455 150.818 92.5498 150.966C93.7938 151.119 94.6985 150.424 94.8496 149.193C94.991 148.042 94.2912 147.177 92.7693 146.99ZM99.5048 153.002C97.6256 152.772 96.6598 151.229 96.9019 149.257C97.1456 147.272 98.4757 145.958 100.395 146.194C101.387 146.315 102.167 146.854 102.506 147.702L103.036 143.388L104.267 143.539L103.071 153.279L101.959 153.143L101.998 151.952C101.466 152.786 100.537 153.129 99.5048 153.002ZM99.8944 151.908C101.165 152.064 102.061 151.221 102.227 149.871C102.389 148.547 101.725 147.499 100.455 147.343C99.1846 147.187 98.3265 148.049 98.164 149.372C97.9999 150.709 98.624 151.752 99.8944 151.908Z" fill="white"/>
<path d="M122.056 147.08L120.045 146.833L120.188 145.669L123.443 146.068L122.269 155.636L121.025 155.484L122.056 147.08ZM125.395 156.02L124.072 149.289L125.356 149.447L126.015 152.94C126.102 153.434 126.174 153.94 126.224 154.524C126.399 153.967 126.638 153.446 126.836 153.04L128.334 149.812L129.604 149.968L130.263 153.461C130.33 153.792 130.449 154.572 130.498 155.048C130.667 154.545 130.842 154.11 131.097 153.564L132.595 150.335L133.892 150.495L130.887 156.695L129.709 156.55L129.01 152.945C128.878 152.27 128.807 151.751 128.785 151.386C128.68 151.695 128.509 152.104 128.175 152.856L126.626 156.171L125.395 156.02Z" fill="white"/>
<path d="M153.424 154.438L152.471 154.321L152.577 153.461L155.61 151.187L151.309 150.659L151.45 149.507L157.392 150.237L157.264 151.282L154.337 153.462C155.94 153.86 157.036 155.11 156.825 156.83C156.587 158.762 154.981 159.814 153.035 159.575C151.156 159.345 149.947 158.028 150.191 156.043L151.475 156.2C151.322 157.444 152 158.266 153.205 158.414C154.449 158.567 155.353 157.872 155.504 156.641C155.646 155.49 154.946 154.625 153.424 154.438ZM158.975 160.143L157.652 153.412L158.936 153.57L159.595 157.063C159.682 157.557 159.754 158.063 159.803 158.647C159.979 158.091 160.218 157.569 160.415 157.164L161.913 153.935L163.184 154.091L163.843 157.584C163.91 157.915 164.029 158.695 164.078 159.172C164.247 158.668 164.422 158.233 164.677 157.687L166.175 154.459L167.472 154.618L164.467 160.818L163.289 160.673L162.59 157.068C162.458 156.393 162.387 155.874 162.365 155.509C162.26 155.818 162.089 156.227 161.755 156.979L160.206 160.295L158.975 160.143Z" fill="white"/>
<path d="M188.225 155.205L186.214 154.958L186.357 153.793L189.612 154.193L188.437 163.761L187.193 163.608L188.225 155.205ZM191.418 164.127L190.174 163.974L190.969 157.503L192.081 157.639L192.096 158.501C192.501 157.933 193.241 157.594 194.155 157.706C195.16 157.83 195.813 158.42 196.045 159.268C196.448 158.498 197.291 158.091 198.297 158.215C199.779 158.397 200.565 159.433 200.381 160.929L199.861 165.164L198.644 165.014L199.127 161.084C199.252 160.065 198.754 159.413 197.881 159.305C196.941 159.19 196.238 159.775 196.111 160.808L195.64 164.645L194.409 164.494L194.893 160.551C195.018 159.532 194.531 158.907 193.657 158.8C192.718 158.685 192.016 159.257 191.89 160.289L191.418 164.127Z" fill="white"/>
<path d="M49.196 45.355L216.824 65.9371" stroke="white" stroke-opacity="0.1" strokeWidth="1.1111" strokeLinecap="round" stroke-dasharray="4.44 4.44"/>
<path d="M46.8941 64.1025L214.522 84.6846" stroke="white" stroke-opacity="0.1" strokeWidth="1.1111" strokeLinecap="round" stroke-dasharray="4.44 4.44"/>
<path d="M44.7275 81.7476L212.355 102.33" stroke="white" stroke-opacity="0.1" strokeWidth="1.1111" strokeLinecap="round" stroke-dasharray="4.44 4.44"/>
<path d="M42.2902 101.598L209.918 122.18" stroke="white" stroke-opacity="0.1" strokeWidth="1.1111" strokeLinecap="round" stroke-dasharray="4.44 4.44"/>
<path d="M40.1236 119.243L207.751 139.825" stroke="white" stroke-opacity="0.1" strokeWidth="1.1111" strokeLinecap="round" stroke-dasharray="4.44 4.44"/>
<rect x="50.3674" y="76.8427" width="5.55548" height="18.8886" rx="2.77774" transform="rotate(7 50.3674 76.8427)" stroke="white" stroke-opacity="0.1" strokeWidth="1.1111"/>
<rect x="85.0571" y="58.7133" width="5.55548" height="26.6663" rx="2.77774" transform="rotate(7 85.0571 58.7133)" stroke="white" stroke-opacity="0.1" strokeWidth="1.1111"/>
<rect x="115.685" y="73.6684" width="5.55548" height="43.3327" rx="2.77774" transform="rotate(7 115.685 73.6684)" stroke="white" stroke-opacity="0.1" strokeWidth="1.1111"/>
<rect x="146.854" y="84.2124" width="5.55548" height="23.333" rx="2.77774" transform="rotate(7 146.854 84.2124)" stroke="white" stroke-opacity="0.1" strokeWidth="1.1111"/>
<rect x="179.822" y="98.3354" width="5.55548" height="23.333" rx="2.77774" transform="rotate(7 179.822 98.3354)" stroke="white" stroke-opacity="0.1" strokeWidth="1.1111"/>
<rect x="60.5056" y="80.8862" width="6.66657" height="13.3331" rx="3.33329" transform="rotate(7 60.5056 80.8862)" fill="#01FF9D"/>
<rect x="96.1626" y="63.9951" width="6.66657" height="16.6664" rx="3.33329" transform="rotate(7 96.1626 63.9951)" fill="#01FF9D"/>
<rect x="157.843" y="99.5547" width="6.66657" height="16.6664" rx="3.33329" transform="rotate(7 157.843 99.5547)" fill="#01FF9D"/>
<rect x="189.168" y="117.954" width="6.66657" height="16.6664" rx="3.33329" transform="rotate(7 189.168 117.954)" fill="#01FF9D"/>
<rect x="129.363" y="57.9966" width="6.66657" height="44.4438" rx="3.33329" transform="rotate(7 129.363 57.9966)" fill="#01FF9D"/>
</g>
<rect x="18.3648" y="0.149932" width="218.886" height="153.331" rx="14.5555" transform="rotate(7 18.3648 0.149932)" stroke="white" stroke-opacity="0.2" strokeWidth="1.1111"/>
</g>
<defs>
<filter id="filter0_b_3_850" x="-249.702" y="-249.231" width="734.702" height="677.625" filterUnits="userSpaceOnUse" colorInterpolationFilters="sRGB">
<feFlood floodOpacity="0" result="BackgroundImageFix"/>
<feGaussianBlur in="BackgroundImageFix" stdDeviation="125"/>
<feComposite in2="SourceAlpha" operator="in" result="effect1_backgroundBlur_3_850"/>
<feBlend mode="normal" in="SourceGraphic" in2="effect1_backgroundBlur_3_850" result="shape"/>
</filter>
<clipPath id="clip0_3_850">
<rect x="18.8485" y="0.769043" width="217.775" height="152.22" rx="14" transform="rotate(7 18.8485 0.769043)" fill="white"/>
</clipPath>
</defs>
</svg>
