<svg width="41" height="40" viewBox="0 0 41 40" fill="none" xmlns="http://www.w3.org/2000/svg">
<path d="M20.3333 25.0001L15.3333 20.0001M20.3333 25.0001C22.6614 24.1147 24.8948 22.998 27 21.6668M20.3333 25.0001V33.3335C20.3333 33.3335 25.3833 32.4168 27 30.0001C28.8 27.3001 27 21.6668 27 21.6668M15.3333 20.0001C16.2202 17.6992 17.337 15.4936 18.6667 13.4168C20.6086 10.3118 23.3127 7.75517 26.5217 5.99024C29.7306 4.22531 33.3378 3.3107 37 3.33342C37 7.86675 35.7 15.8335 27 21.6668M15.3333 20.0001H7C7 20.0001 7.91667 14.9501 10.3333 13.3335C13.0333 11.5335 18.6667 13.3335 18.6667 13.3335M7.83333 27.5001C5.33333 29.6001 4.5 35.8335 4.5 35.8335C4.5 35.8335 10.7333 35.0001 12.8333 32.5001C14.0167 31.1001 14 28.9501 12.6833 27.6501C12.0355 27.0318 11.1822 26.6745 10.287 26.6468C9.39193 26.6192 8.51813 26.923 7.83333 27.5001Z" stroke="white" stroke-width="2.5" stroke-linecap="round" stroke-linejoin="round"/>
</svg>
