<svg width="50" height="51" viewBox="0 0 50 51" fill="none" xmlns="http://www.w3.org/2000/svg">
<g clip-path="url(#clip0_6_803)">
<path d="M19.8926 37.3494C19.0117 39.2751 16.0723 43.7673 7.81253 43.7673C7.39813 43.7673 7.0007 43.6027 6.70767 43.3097C6.41465 43.0167 6.25003 42.6192 6.25003 42.2048C6.25003 33.9451 10.7422 31.0056 12.668 30.1247C12.8547 30.0396 13.0564 29.9921 13.2615 29.9848C13.4666 29.9776 13.6711 30.0109 13.8633 30.0827C14.0556 30.1545 14.2318 30.2635 14.3819 30.4034C14.5321 30.5433 14.6532 30.7115 14.7383 30.8982C14.8235 31.0849 14.871 31.2866 14.8782 31.4917C14.8854 31.6968 14.8522 31.9013 14.7804 32.0935C14.7085 32.2858 14.5996 32.462 14.4596 32.6121C14.3197 32.7622 14.1516 32.8833 13.9649 32.9685C12.709 33.5408 9.93753 35.3826 9.44925 40.5681C14.6348 40.0798 16.4805 37.3083 17.0489 36.0525C17.134 35.8658 17.2551 35.6976 17.4052 35.5577C17.5554 35.4178 17.7316 35.3088 17.9238 35.237C18.1161 35.1652 18.3206 35.1319 18.5257 35.1391C18.7308 35.1463 18.9324 35.1939 19.1192 35.279C19.3059 35.3642 19.474 35.4853 19.6139 35.6354C19.7539 35.7856 19.8628 35.9618 19.9347 36.154C20.0065 36.3463 20.0397 36.5508 20.0325 36.7559C20.0253 36.961 19.9778 37.1626 19.8926 37.3494ZM43.7207 9.22435C43.6744 8.46249 43.3509 7.74392 42.8112 7.2042C42.2715 6.66449 41.5529 6.34097 40.791 6.29467C38.334 6.14818 32.0547 6.37279 26.8457 11.5818L17.1875 21.2478C17.0425 21.3931 16.8702 21.5084 16.6806 21.5871C16.491 21.6659 16.2878 21.7065 16.0825 21.7067C15.6678 21.707 15.27 21.5427 14.9766 21.2497C14.6831 20.9568 14.5181 20.5593 14.5177 20.1447C14.5173 19.7301 14.6817 19.3323 14.9746 19.0388L20.1621 13.8494C20.2707 13.7401 20.3446 13.6012 20.3745 13.4501C20.4044 13.299 20.3889 13.1424 20.33 13C20.2712 12.8577 20.1716 12.7359 20.0437 12.65C19.9158 12.5641 19.7654 12.518 19.6114 12.5173H14.5215C14.1099 12.5152 13.7019 12.5948 13.3213 12.7518C12.9408 12.9087 12.5952 13.1397 12.3047 13.4314L5.6055 20.1345C5.19465 20.5451 4.90636 21.062 4.77297 21.6273C4.63959 22.1926 4.66639 22.7839 4.85036 23.3348C5.03434 23.8857 5.36821 24.3745 5.81451 24.7462C6.26081 25.1179 6.80188 25.3579 7.37698 25.4392L14.8907 26.488L23.5254 35.1228L24.5742 42.6404C24.6549 43.2155 24.8948 43.7566 25.2669 44.2025C25.639 44.6485 26.1283 44.9814 26.6797 45.1638C27.0009 45.2711 27.3372 45.3258 27.6758 45.3259C28.0858 45.3267 28.4919 45.2463 28.8707 45.0894C29.2495 44.9326 29.5935 44.7023 29.8828 44.4119L36.586 37.7126C36.8768 37.4215 37.1072 37.0758 37.2641 36.6954C37.4209 36.315 37.5011 35.9073 37.5 35.4958V30.406C37.4998 30.2516 37.4537 30.1007 37.3677 29.9724C37.2818 29.8441 37.1597 29.7442 37.0169 29.6852C36.8742 29.6263 36.7172 29.611 36.5657 29.6412C36.4143 29.6715 36.2752 29.746 36.166 29.8552L30.9766 35.0427C30.8248 35.1946 30.6433 35.3137 30.4435 35.3923C30.2437 35.471 30.0298 35.5076 29.8152 35.4999C29.6005 35.4922 29.3898 35.4404 29.1961 35.3476C29.0025 35.2548 28.83 35.1231 28.6895 34.9607C28.4332 34.6506 28.3029 34.2555 28.3246 33.8538C28.3464 33.4521 28.5184 33.0733 28.8067 32.7927L38.4297 23.1697C43.6426 17.9587 43.8672 11.6794 43.7207 9.22045V9.22435Z" fill="url(#paint0_linear_6_803)"/>
</g>
<defs>
<linearGradient id="paint0_linear_6_803" x1="24.2195" y1="6.26587" x2="24.2195" y2="45.3259" gradientUnits="userSpaceOnUse">
<stop stop-color="#2A80B3"/>
<stop offset="0.5" stop-color="#236191"/>
<stop offset="1" stop-color="#142738"/>
</linearGradient>
<clipPath id="clip0_6_803">
<rect width="50" height="50" fill="white" transform="translate(0 0.017334)"/>
</clipPath>
</defs>
</svg>
