<svg width="45" height="45" viewBox="0 0 45 45" fill="none" xmlns="http://www.w3.org/2000/svg">
<path d="M34.6257 22.7669L25.7604 19.491L22.4948 10.6188C22.3014 10.0934 21.9515 9.64 21.4923 9.31972C21.0332 8.99945 20.4868 8.82773 19.927 8.82773C19.3671 8.82773 18.8208 8.99945 18.3616 9.31972C17.9024 9.64 17.5525 10.0934 17.3592 10.6188L14.0729 19.491L5.20072 22.7566C4.67535 22.95 4.22194 23.2999 3.90166 23.759C3.58139 24.2182 3.40967 24.7646 3.40967 25.3244C3.40967 25.8842 3.58139 26.4306 3.90166 26.8898C4.22194 27.3489 4.67535 27.6988 5.20072 27.8922L14.0729 31.1785L17.3385 40.0507C17.5319 40.576 17.8818 41.0294 18.341 41.3497C18.8001 41.67 19.3465 41.8417 19.9063 41.8417C20.4662 41.8417 21.0125 41.67 21.4717 41.3497C21.9309 41.0294 22.2808 40.576 22.4742 40.0507L25.7604 31.1785L34.6326 27.9128C35.158 27.7195 35.6114 27.3696 35.9317 26.9104C36.2519 26.4512 36.4236 25.9049 36.4236 25.345C36.4236 24.7852 36.2519 24.2388 35.9317 23.7797C35.6114 23.3205 35.158 22.9706 34.6326 22.7772L34.6257 22.7669ZM24.2135 28.81C24.0269 28.8788 23.8574 28.9873 23.7167 29.1279C23.5761 29.2686 23.4676 29.4381 23.3988 29.6247L19.9167 39.0589L16.4413 29.6316C16.3727 29.443 16.2635 29.2717 16.1216 29.1298C15.9797 28.9878 15.8084 28.8787 15.6198 28.81L6.19244 25.3347L15.6198 21.8594C15.8084 21.7907 15.9797 21.6816 16.1216 21.5397C16.2635 21.3977 16.3727 21.2264 16.4413 21.0378L19.9167 11.6105L23.392 21.0378C23.4608 21.2245 23.5692 21.394 23.7099 21.5346C23.8505 21.6753 24.02 21.7837 24.2067 21.8525L33.6409 25.3347L24.2135 28.81ZM25.4167 7.45972C25.4167 7.09504 25.5615 6.74531 25.8194 6.48745C26.0772 6.22958 26.427 6.08472 26.7917 6.08472H29.5417V3.33472C29.5417 2.97004 29.6865 2.62031 29.9444 2.36244C30.2022 2.10458 30.552 1.95972 30.9167 1.95972C31.2813 1.95972 31.6311 2.10458 31.8889 2.36244C32.1468 2.62031 32.2917 2.97004 32.2917 3.33472V6.08472H35.0417C35.4063 6.08472 35.7561 6.22958 36.0139 6.48745C36.2718 6.74531 36.4167 7.09504 36.4167 7.45972C36.4167 7.82439 36.2718 8.17413 36.0139 8.43199C35.7561 8.68985 35.4063 8.83472 35.0417 8.83472H32.2917V11.5847C32.2917 11.9494 32.1468 12.2991 31.8889 12.557C31.6311 12.8149 31.2813 12.9597 30.9167 12.9597C30.552 12.9597 30.2022 12.8149 29.9444 12.557C29.6865 12.2991 29.5417 11.9494 29.5417 11.5847V8.83472H26.7917C26.427 8.83472 26.0772 8.68985 25.8194 8.43199C25.5615 8.17413 25.4167 7.82439 25.4167 7.45972ZM43.2917 15.7097C43.2917 16.0744 43.1468 16.4241 42.8889 16.682C42.6311 16.9399 42.2813 17.0847 41.9167 17.0847H40.5417V18.4597C40.5417 18.8244 40.3968 19.1741 40.1389 19.432C39.8811 19.6899 39.5313 19.8347 39.1667 19.8347C38.802 19.8347 38.4522 19.6899 38.1944 19.432C37.9365 19.1741 37.7917 18.8244 37.7917 18.4597V17.0847H36.4167C36.052 17.0847 35.7022 16.9399 35.4444 16.682C35.1865 16.4241 35.0417 16.0744 35.0417 15.7097C35.0417 15.345 35.1865 14.9953 35.4444 14.7374C35.7022 14.4796 36.052 14.3347 36.4167 14.3347H37.7917V12.9597C37.7917 12.595 37.9365 12.2453 38.1944 11.9874C38.4522 11.7296 38.802 11.5847 39.1667 11.5847C39.5313 11.5847 39.8811 11.7296 40.1389 11.9874C40.3968 12.2453 40.5417 12.595 40.5417 12.9597V14.3347H41.9167C42.2813 14.3347 42.6311 14.4796 42.8889 14.7374C43.1468 14.9953 43.2917 15.345 43.2917 15.7097Z" fill="white"/>
</svg>
