<svg width="337" height="29" viewBox="0 0 337 29" fill="none" xmlns="http://www.w3.org/2000/svg">
<path d="M5.04842 9.35051V13.1135H10.1016V15.5003H5.04842V19.4783H10.7467V21.9297H2.03802V6.89919H10.7467V9.35051H5.04842ZM19.6322 21.9297L17.1809 18.2312L15.0091 21.9297H11.7837L15.6757 15.9519L11.7407 10.0171H15.1381L17.568 13.6941L19.7613 10.0171H22.9867L19.0732 15.9519L23.0297 21.9297H19.6322ZM23.4605 15.9734C23.4605 14.7405 23.7115 13.6654 24.2131 12.748C24.7149 11.8162 25.4102 11.0994 26.2989 10.5977C27.1877 10.0816 28.2056 9.82358 29.3523 9.82358C30.8289 9.82358 32.0473 10.1963 33.0078 10.9417C33.9826 11.6728 34.6349 12.705 34.9645 14.0381H31.7176C31.5456 13.5221 31.2517 13.1207 30.836 12.834C30.4346 12.5329 29.9329 12.3824 29.3308 12.3824C28.4707 12.3824 27.7898 12.6978 27.288 13.3285C26.7864 13.9449 26.5354 14.8266 26.5354 15.9734C26.5354 17.1058 26.7864 17.9874 27.288 18.6182C27.7898 19.2346 28.4707 19.5428 29.3308 19.5428C30.5494 19.5428 31.345 18.9981 31.7176 17.9086H34.9645C34.6349 19.1988 33.9826 20.2237 33.0078 20.9835C32.0331 21.7433 30.8145 22.1232 29.3523 22.1232C28.2056 22.1232 27.1877 21.8724 26.2989 21.3706C25.4102 20.8545 24.7149 20.1377 24.2131 19.2203C23.7115 18.2885 23.4605 17.2063 23.4605 15.9734ZM47.8138 15.7153C47.8138 16.1454 47.7851 16.5325 47.7278 16.8765H39.0192C39.0909 17.7366 39.3919 18.4104 39.9223 18.8978C40.4526 19.3851 41.1049 19.6289 41.879 19.6289C42.9972 19.6289 43.7928 19.1486 44.2659 18.1882H47.5128C47.1687 19.335 46.5094 20.2812 45.5345 21.0265C44.5597 21.7576 43.3627 22.1232 41.9436 22.1232C40.7967 22.1232 39.7646 21.8724 38.8472 21.3706C37.944 20.8545 37.2344 20.1306 36.7184 19.1988C36.2166 18.267 35.9658 17.1918 35.9658 15.9734C35.9658 14.7405 36.2166 13.6582 36.7184 12.7265C37.2202 11.7947 37.9225 11.0779 38.8256 10.5762C39.7288 10.0744 40.7681 9.82358 41.9436 9.82358C43.076 9.82358 44.0866 10.0673 44.9755 10.5547C45.8786 11.0421 46.5739 11.7373 47.0612 12.6404C47.563 13.5292 47.8138 14.5542 47.8138 15.7153ZM44.6959 14.8552C44.6816 14.0811 44.4021 13.4647 43.8573 13.006C43.3125 12.5329 42.6459 12.2964 41.8575 12.2964C41.1122 12.2964 40.4814 12.5258 39.9653 12.9845C39.4635 13.4289 39.1554 14.0525 39.0407 14.8552H44.6959ZM52.5914 6.01758V21.9297H49.581V6.01758H52.5914ZM58.1461 6.01758V21.9297H55.1357V6.01758H58.1461ZM71.7643 15.7153C71.7643 16.1454 71.7355 16.5325 71.6783 16.8765H62.9696C63.0413 17.7366 63.3424 18.4104 63.8727 18.8978C64.4031 19.3851 65.0554 19.6289 65.8295 19.6289C66.9476 19.6289 67.7432 19.1486 68.2163 18.1882H71.4632C71.1192 19.335 70.4598 20.2812 69.485 21.0265C68.5101 21.7576 67.3132 22.1232 65.894 22.1232C64.7471 22.1232 63.715 21.8724 62.7976 21.3706C61.8945 20.8545 61.1849 20.1306 60.6688 19.1988C60.167 18.267 59.9162 17.1918 59.9162 15.9734C59.9162 14.7405 60.167 13.6582 60.6688 12.7265C61.1706 11.7947 61.873 11.0779 62.7761 10.5762C63.6792 10.0744 64.7186 9.82358 65.894 9.82358C67.0264 9.82358 68.0371 10.0673 68.9259 10.5547C69.829 11.0421 70.5243 11.7373 71.0117 12.6404C71.5135 13.5292 71.7643 14.5542 71.7643 15.7153ZM68.6464 14.8552C68.6321 14.0811 68.3525 13.4647 67.8078 13.006C67.263 12.5329 66.5964 12.2964 65.808 12.2964C65.0626 12.2964 64.4318 12.5258 63.9157 12.9845C63.414 13.4289 63.1059 14.0525 62.9911 14.8552H68.6464ZM80.1329 9.84508C81.552 9.84508 82.6989 10.2966 83.5733 11.1998C84.4477 12.0885 84.885 13.3357 84.885 14.9412V21.9297H81.8746V15.3498C81.8746 14.4037 81.638 13.6798 81.165 13.178C80.6919 12.6619 80.0468 12.4039 79.2297 12.4039C78.3983 12.4039 77.7388 12.6619 77.2515 13.178C76.7784 13.6798 76.5419 14.4037 76.5419 15.3498V21.9297H73.5315V10.0171H76.5419V11.5008C76.9432 10.9847 77.4522 10.5833 78.0686 10.2966C78.6994 9.9956 79.3875 9.84508 80.1329 9.84508ZM90.8227 12.4899V18.2527C90.8227 18.654 90.9157 18.948 91.1022 19.1343C91.3028 19.3063 91.6326 19.3923 92.0913 19.3923H93.489V21.9297H91.5968C89.0594 21.9297 87.7908 20.6968 87.7908 18.2312V12.4899H86.3716V10.0171H87.7908V7.07122H90.8227V10.0171H93.489V12.4899H90.8227Z" fill="white"/>
<path d="M129.574 2.73047H106.532V25.7692H129.574V2.73047Z" fill="#00B67A"/>
<mask id="mask0_3_199" style="mask-type:luminance" maskUnits="userSpaceOnUse" x="112" y="8" width="13" height="13">
<path d="M124.089 8.21582H112.019V20.2837H124.089V8.21582Z" fill="white"/>
</mask>
<g mask="url(#mask0_3_199)">
<path fill-rule="evenodd" clip-rule="evenodd" d="M119.472 12.9107H124.089L120.37 15.5536L118.072 17.1745L114.336 19.8173L115.755 15.5543L112.019 12.9107H116.635L118.054 8.64697L119.472 12.9107ZM120.676 16.5401L118.054 17.191L121.772 19.8512L120.676 16.5386V16.5401Z" fill="white"/>
</g>
<path d="M155.688 2.73047H132.646V25.7692H155.688V2.73047Z" fill="#00B67A"/>
<mask id="mask1_3_199" style="mask-type:luminance" maskUnits="userSpaceOnUse" x="138" y="8" width="13" height="13">
<path d="M150.202 8.21582H138.133V20.2837H150.202V8.21582Z" fill="white"/>
</mask>
<g mask="url(#mask1_3_199)">
<path fill-rule="evenodd" clip-rule="evenodd" d="M145.586 12.9107H150.202L146.484 15.5536L144.186 17.1745L140.449 19.8173L141.868 15.5543L138.133 12.9107H142.749L144.167 8.64697L145.586 12.9107ZM146.79 16.5401L144.167 17.191L147.886 19.8512L146.79 16.5386V16.5401Z" fill="white"/>
</g>
<path d="M181.801 2.73047H158.76V25.7692H181.801V2.73047Z" fill="#00B67A"/>
<mask id="mask2_3_199" style="mask-type:luminance" maskUnits="userSpaceOnUse" x="164" y="8" width="13" height="13">
<path d="M176.315 8.21582H164.246V20.2837H176.315V8.21582Z" fill="white"/>
</mask>
<g mask="url(#mask2_3_199)">
<path fill-rule="evenodd" clip-rule="evenodd" d="M171.7 12.9107H176.315L172.598 15.5536L170.299 17.1745L166.562 19.8173L167.981 15.5543L164.246 12.9107H168.861L170.281 8.64697L171.7 12.9107ZM172.902 16.5401L170.281 17.191L173.999 19.8512L172.902 16.5386V16.5401Z" fill="white"/>
</g>
<path d="M207.915 2.73047H184.873V25.7692H207.915V2.73047Z" fill="#00B67A"/>
<mask id="mask3_3_199" style="mask-type:luminance" maskUnits="userSpaceOnUse" x="190" y="8" width="13" height="13">
<path d="M202.429 8.21582H190.36V20.2837H202.429V8.21582Z" fill="white"/>
</mask>
<g mask="url(#mask3_3_199)">
<path fill-rule="evenodd" clip-rule="evenodd" d="M197.813 12.9107H202.429L198.71 15.5536L196.413 17.1745L192.676 19.8173L194.095 15.5543L190.36 12.9107H194.975L196.394 8.64697L197.813 12.9107ZM199.016 16.5401L196.394 17.191L200.113 19.8512L199.016 16.5386V16.5401Z" fill="white"/>
</g>
<path d="M234.029 2.73047H210.987V25.7692H234.029V2.73047Z" fill="#DCDCE6"/>
<path d="M223.274 2.73047H210.987V25.7692H223.274V2.73047Z" fill="#00B67A"/>
<mask id="mask4_3_199" style="mask-type:luminance" maskUnits="userSpaceOnUse" x="216" y="8" width="13" height="13">
<path d="M228.543 8.21582H216.473V20.2837H228.543V8.21582Z" fill="white"/>
</mask>
<g mask="url(#mask4_3_199)">
<path fill-rule="evenodd" clip-rule="evenodd" d="M223.926 12.9107H228.542L224.824 15.5536L222.526 17.1745L218.789 19.8173L220.209 15.5543L216.473 12.9107H221.089L222.508 8.64697L223.926 12.9107ZM225.13 16.5401L222.508 17.191L226.226 19.8512L225.13 16.5386V16.5401Z" fill="white"/>
</g>
<path d="M269.75 11.2563H278.771V12.9357H275.219V22.4024H273.273V12.9357H269.736L269.75 11.2563ZM278.384 14.3326H280.049V15.893H280.079C280.138 15.6702 280.243 15.4621 280.39 15.254C280.539 15.046 280.717 14.8528 280.94 14.6893C281.149 14.511 281.387 14.3772 281.654 14.2732C281.906 14.1692 282.175 14.1097 282.442 14.1097C282.65 14.1097 282.799 14.1246 282.872 14.1246C282.948 14.1394 283.037 14.1543 283.11 14.1543V15.8634C282.992 15.8336 282.859 15.8188 282.725 15.8039C282.59 15.789 282.471 15.7742 282.338 15.7742C282.04 15.7742 281.759 15.8336 281.49 15.9524C281.223 16.0715 281 16.2498 280.793 16.4727C280.599 16.7104 280.435 16.9929 280.317 17.3346C280.198 17.6763 280.138 18.0777 280.138 18.5236V22.3577H278.355L278.384 14.3326ZM291.285 22.4024H289.531V21.2728H289.501C289.279 21.6889 288.952 22.001 288.52 22.2537C288.088 22.5063 287.643 22.6252 287.198 22.6252C286.142 22.6252 285.37 22.3726 284.894 21.8376C284.419 21.3174 284.181 20.5149 284.181 19.4599V14.3326H285.964V19.2814C285.964 19.9948 286.098 20.5001 286.38 20.7824C286.648 21.0796 287.035 21.2283 287.525 21.2283C287.896 21.2283 288.208 21.1689 288.46 21.05C288.713 20.9311 288.921 20.7824 289.07 20.5892C289.234 20.396 289.337 20.1582 289.412 19.8908C289.486 19.6233 289.515 19.3261 289.515 19.014V14.3326H291.298V22.4024H291.285ZM294.316 19.8165C294.375 20.3366 294.568 20.6932 294.911 20.9162C295.252 21.1242 295.668 21.2283 296.144 21.2283C296.307 21.2283 296.501 21.2134 296.708 21.1838C296.917 21.154 297.124 21.1094 297.304 21.0351C297.496 20.9608 297.645 20.8568 297.763 20.7081C297.883 20.5596 297.943 20.3812 297.927 20.1582C297.912 19.9354 297.838 19.7422 297.674 19.5935C297.511 19.445 297.318 19.3408 297.08 19.2368C296.843 19.1478 296.56 19.0734 296.249 19.014C295.935 18.9545 295.624 18.8802 295.296 18.8059C294.969 18.7315 294.644 18.6424 294.33 18.5383C294.019 18.4343 293.751 18.3005 293.499 18.1073C293.261 17.929 293.052 17.7061 292.919 17.4238C292.77 17.1414 292.696 16.8144 292.696 16.3983C292.696 15.9524 292.801 15.5958 293.023 15.2986C293.231 15.0014 293.513 14.7636 293.84 14.5853C294.167 14.4069 294.539 14.2732 294.94 14.1989C295.341 14.1246 295.728 14.0949 296.084 14.0949C296.501 14.0949 296.901 14.1394 297.273 14.2286C297.645 14.3178 298.001 14.4515 298.299 14.6596C298.611 14.8528 298.863 15.1203 299.056 15.4324C299.265 15.7445 299.383 16.1309 299.443 16.5766H297.585C297.496 16.1457 297.304 15.8634 297.006 15.7147C296.694 15.5661 296.352 15.4918 295.951 15.4918C295.832 15.4918 295.668 15.5067 295.505 15.5215C295.327 15.5513 295.178 15.581 295.014 15.6404C294.866 15.6999 294.733 15.789 294.628 15.893C294.524 15.9971 294.464 16.1457 294.464 16.324C294.464 16.547 294.539 16.7104 294.688 16.8442C294.836 16.978 295.029 17.082 295.283 17.1859C295.519 17.2752 295.802 17.3495 296.114 17.4089C296.427 17.4684 296.754 17.5427 297.08 17.6169C297.407 17.6912 297.719 17.7805 298.032 17.8845C298.344 17.9884 298.626 18.1222 298.863 18.3154C299.101 18.4938 299.31 18.7168 299.459 18.9842C299.606 19.2517 299.681 19.5935 299.681 19.9799C299.681 20.4554 299.577 20.8568 299.354 21.1985C299.132 21.5255 298.849 21.8078 298.506 22.0159C298.165 22.224 297.763 22.3726 297.348 22.4767C296.917 22.5658 296.501 22.6252 296.084 22.6252C295.579 22.6252 295.103 22.5658 294.673 22.4469C294.241 22.328 293.856 22.1497 293.544 21.9267C293.231 21.6889 292.979 21.4066 292.801 21.05C292.622 20.7081 292.518 20.292 292.503 19.8016H294.301V19.8165H294.316ZM300.187 14.3326H301.538V11.8954H303.322V14.3178H304.927V15.6404H303.322V19.9503C303.322 20.1433 303.337 20.292 303.352 20.4407C303.366 20.5743 303.411 20.6932 303.455 20.7824C303.515 20.8717 303.604 20.9459 303.709 20.9905C303.827 21.0351 303.976 21.0647 304.183 21.0647C304.303 21.0647 304.437 21.0647 304.555 21.05C304.675 21.0351 304.808 21.0202 304.927 20.9905V22.3726C304.733 22.4024 304.541 22.4171 304.348 22.432C304.154 22.4618 303.976 22.4618 303.769 22.4618C303.292 22.4618 302.921 22.4171 302.638 22.328C302.355 22.2388 302.133 22.1052 301.97 21.9416C301.806 21.7633 301.703 21.5552 301.643 21.3026C301.583 21.05 301.554 20.7379 301.538 20.4109V15.6553H300.187V14.3029V14.3326ZM306.175 14.3326H307.854V15.4324H307.885C308.137 14.9568 308.479 14.6299 308.925 14.4218C309.37 14.2137 309.846 14.1097 310.381 14.1097C311.02 14.1097 311.569 14.2138 312.046 14.4515C312.522 14.6745 312.907 14.9717 313.219 15.3729C313.532 15.7593 313.769 16.22 313.918 16.7402C314.067 17.2603 314.156 17.825 314.156 18.4047C314.156 18.9545 314.082 19.4746 313.947 19.9799C313.8 20.4852 313.591 20.9459 313.308 21.3323C313.027 21.7187 312.669 22.0308 312.224 22.2686C311.778 22.5063 311.273 22.6252 310.679 22.6252C310.425 22.6252 310.158 22.5956 309.906 22.5509C309.653 22.5063 309.401 22.432 309.163 22.328C308.925 22.224 308.702 22.0903 308.508 21.9267C308.301 21.7633 308.137 21.57 308.003 21.3621H307.974V25.3894H306.191V14.3326H306.175ZM312.402 18.3749C312.402 18.0182 312.357 17.6616 312.253 17.3197C312.164 16.978 312.016 16.6808 311.823 16.4132C311.629 16.1457 311.391 15.9377 311.124 15.7742C310.841 15.6107 310.514 15.5364 310.158 15.5364C309.415 15.5364 308.851 15.789 308.464 16.3092C308.092 16.8293 307.899 17.5278 307.899 18.3898C307.899 18.8059 307.943 19.1774 308.048 19.5193C308.152 19.861 308.286 20.1582 308.493 20.4109C308.687 20.6636 308.925 20.8568 309.207 21.0053C309.49 21.154 309.802 21.2283 310.173 21.2283C310.589 21.2283 310.917 21.1391 311.198 20.9756C311.48 20.8122 311.703 20.5892 311.897 20.3366C312.075 20.0692 312.208 19.7718 312.284 19.4301C312.357 19.0734 312.402 18.7315 312.402 18.3749ZM315.538 11.2563H317.321V12.9357H315.538V11.2563ZM315.538 14.3326H317.321V22.4024H315.538V14.3326ZM318.911 11.2563H320.694V22.4024H318.911V11.2563ZM326.134 22.6252C325.496 22.6252 324.915 22.5212 324.41 22.2982C323.904 22.0754 323.488 21.7931 323.132 21.4215C322.791 21.05 322.522 20.5892 322.344 20.0692C322.166 19.5489 322.061 18.9693 322.061 18.36C322.061 17.7507 322.152 17.1859 322.344 16.6659C322.522 16.1457 322.791 15.6999 323.132 15.3135C323.474 14.9419 323.904 14.6447 324.41 14.4367C324.915 14.2286 325.496 14.1097 326.134 14.1097C326.773 14.1097 327.352 14.2138 327.858 14.4367C328.363 14.6447 328.779 14.9419 329.136 15.3135C329.478 15.685 329.745 16.1457 329.924 16.6659C330.102 17.1859 330.206 17.7507 330.206 18.36C330.206 18.9842 330.117 19.5489 329.924 20.0692C329.73 20.5892 329.478 21.0351 329.136 21.4215C328.795 21.7931 328.363 22.0903 327.858 22.2982C327.352 22.5063 326.787 22.6252 326.134 22.6252ZM326.134 21.2134C326.52 21.2134 326.876 21.1242 327.159 20.9608C327.457 20.7973 327.68 20.5743 327.873 20.3069C328.067 20.0394 328.2 19.7273 328.289 19.4003C328.378 19.0585 328.423 18.7168 328.423 18.36C328.423 18.0182 328.378 17.6763 328.289 17.3346C328.2 16.9929 328.067 16.6955 327.873 16.4281C327.68 16.1606 327.442 15.9526 327.159 15.789C326.863 15.6256 326.52 15.5364 326.134 15.5364C325.747 15.5364 325.391 15.6256 325.108 15.789C324.812 15.9526 324.588 16.1755 324.396 16.4281C324.202 16.6955 324.069 16.9929 323.98 17.3346C323.891 17.6763 323.846 18.0182 323.846 18.36C323.846 18.7168 323.891 19.0585 323.98 19.4003C324.069 19.7422 324.202 20.0394 324.396 20.3069C324.588 20.5743 324.826 20.7973 325.108 20.9608C325.406 21.1391 325.747 21.2134 326.134 21.2134ZM330.741 14.3326H332.094V11.8954H333.877V14.3178H335.482V15.6404H333.877V19.9503C333.877 20.1433 333.891 20.292 333.906 20.4407C333.922 20.5743 333.966 20.6932 334.011 20.7824C334.071 20.8717 334.16 20.9459 334.263 20.9905C334.382 21.0351 334.531 21.0647 334.739 21.0647C334.857 21.0647 334.991 21.0647 335.11 21.05C335.229 21.0351 335.362 21.0202 335.482 20.9905V22.3726C335.289 22.4024 335.095 22.4171 334.902 22.432C334.71 22.4618 334.531 22.4618 334.322 22.4618C333.846 22.4618 333.476 22.4171 333.194 22.328C332.911 22.2388 332.688 22.1052 332.524 21.9416C332.361 21.7633 332.257 21.5552 332.197 21.3026C332.138 21.05 332.108 20.7379 332.094 20.4109V15.6553H330.741V14.3029V14.3326Z" fill="white"/>
<path d="M267.671 11.2571H259.513L257.001 3.49951L254.475 11.2571L246.316 11.2422L252.914 16.0424L250.388 23.8L256.986 18.9998L263.584 23.8L261.073 16.0424L267.671 11.2571Z" fill="#00B67A"/>
<path d="M261.625 17.8319L261.061 16.0737L256.992 19.0388L261.625 17.8319Z" fill="#005128"/>
</svg>
