<svg width="37" height="35" viewBox="0 0 37 35" fill="none" xmlns="http://www.w3.org/2000/svg">
<path d="M16.2681 2.35685C16.9866 0.145699 20.1148 0.1457 20.8332 2.35685L23.4002 10.2572C23.7215 11.246 24.643 11.9155 25.6827 11.9155H33.9896C36.3145 11.9155 37.2812 14.8906 35.4003 16.2572L28.6799 21.1398C27.8387 21.751 27.4867 22.8342 27.808 23.8231L30.375 31.7234C31.0934 33.9346 28.5627 35.7733 26.6818 34.4067L19.9614 29.524C19.1202 28.9129 17.9812 28.9129 17.14 29.524L10.4196 34.4067C8.53866 35.7733 6.00792 33.9346 6.72636 31.7234L9.29333 23.8231C9.61462 22.8342 9.26264 21.751 8.42147 21.1398L1.70107 16.2572C-0.179844 14.8906 0.786818 11.9155 3.11175 11.9155H11.4186C12.4584 11.9155 13.3799 11.246 13.7012 10.2572L16.2681 2.35685Z" fill="white"/>
</svg>
