<svg width="132" height="132" viewBox="0 0 132 132" fill="none" xmlns="http://www.w3.org/2000/svg">
<path d="M50.5121 43.6796L86.6935 64.0343C87.023 64.22 87.2973 64.4899 87.4882 64.8166C87.6791 65.1432 87.7797 65.5147 87.7797 65.8929C87.7797 66.2712 87.6791 66.6427 87.4882 66.9693C87.2973 67.2959 87.023 67.5659 86.6935 67.7516L50.5121 88.1063C50.1874 88.2888 49.8205 88.3831 49.448 88.3798C49.0754 88.3766 48.7103 88.2758 48.3888 88.0875C48.0673 87.8993 47.8007 87.6301 47.6156 87.3069C47.4304 86.9836 47.3332 86.6175 47.3335 86.2449V45.5409C47.3336 45.1686 47.4312 44.8029 47.6166 44.48C47.8019 44.1571 48.0685 43.8883 48.3899 43.7003C48.7113 43.5124 49.0763 43.4119 49.4486 43.4087C49.8209 43.4055 50.1876 43.4972 50.5121 43.6796Z" fill="white"/>
<circle cx="66" cy="65.8931" r="64.7704" stroke="#01FF9D" stroke-width="2"/>
</svg>
