<svg width="41" height="40" viewBox="0 0 41 40" fill="none" xmlns="http://www.w3.org/2000/svg">
<path d="M15.6677 23.3333C15.6677 23.3333 17.8552 25.8333 21.501 25.8333C25.1468 25.8333 27.3343 23.3333 27.3343 23.3333M26.0843 15H26.101M16.9177 15H16.9343M21.501 33.3333C29.325 33.3333 35.6677 26.9907 35.6677 19.1667C35.6677 11.3426 29.325 5 21.501 5C13.677 5 7.33434 11.3426 7.33434 19.1667C7.33434 20.75 7.59408 22.2727 8.07329 23.6944C8.25362 24.2294 8.34379 24.4969 8.36005 24.7024C8.37611 24.9053 8.36397 25.0476 8.31376 25.2449C8.26291 25.4447 8.15066 25.6525 7.92616 26.068L5.20006 31.1139C4.81121 31.8337 4.61678 32.1935 4.6603 32.4713C4.6982 32.7132 4.84058 32.9262 5.04963 33.0537C5.28963 33.2001 5.6965 33.1581 6.51024 33.074L15.0453 32.1917C15.3037 32.165 15.433 32.1516 15.5508 32.1561C15.6666 32.1605 15.7484 32.1714 15.8614 32.1975C15.9763 32.224 16.1207 32.2796 16.4096 32.3909C17.9897 32.9996 19.7064 33.3333 21.501 33.3333ZM26.9177 15C26.9177 15.4602 26.5446 15.8333 26.0843 15.8333C25.6241 15.8333 25.251 15.4602 25.251 15C25.251 14.5398 25.6241 14.1667 26.0843 14.1667C26.5446 14.1667 26.9177 14.5398 26.9177 15ZM17.751 15C17.751 15.4602 17.3779 15.8333 16.9177 15.8333C16.4574 15.8333 16.0843 15.4602 16.0843 15C16.0843 14.5398 16.4574 14.1667 16.9177 14.1667C17.3779 14.1667 17.751 14.5398 17.751 15Z" stroke="white" stroke-width="2.5" stroke-linecap="round" stroke-linejoin="round"/>
</svg>
