<svg width="45" height="45" viewBox="0 0 45 45" fill="none" xmlns="http://www.w3.org/2000/svg">
<path d="M38.8003 14.8778C40.7083 18.8684 41.0705 23.4243 39.817 27.6663C38.5635 31.9082 35.7831 35.5355 32.0125 37.848C28.2419 40.1605 23.7483 40.9944 19.399 40.1886C15.0497 39.3829 11.1531 36.9946 8.46112 33.4848C5.76916 29.9749 4.47272 25.5924 4.82202 21.1829C5.17131 16.7734 7.14158 12.6496 10.3526 9.60742C13.5635 6.5652 17.7876 4.82021 22.2095 4.70925C26.6314 4.59828 30.9376 6.1292 34.2972 9.00654L38.1936 5.10842C38.4516 4.85041 38.8015 4.70547 39.1664 4.70547C39.5313 4.70547 39.8812 4.85041 40.1392 5.10842C40.3972 5.36642 40.5421 5.71636 40.5421 6.08123C40.5421 6.44611 40.3972 6.79604 40.1392 7.05404L23.6392 23.554C23.3812 23.812 23.0313 23.957 22.6664 23.957C22.3015 23.957 21.9516 23.812 21.6936 23.554C21.4356 23.296 21.2906 22.9461 21.2906 22.5812C21.2906 22.2164 21.4356 21.8664 21.6936 21.6084L26.4579 16.844C25.1667 15.9901 23.6251 15.5969 22.0826 15.7281C20.5402 15.8594 19.0871 16.5073 17.9587 17.5672C16.8304 18.627 16.0927 20.0366 15.8651 21.5678C15.6376 23.0991 15.9335 24.6623 16.7049 26.0044C17.4764 27.3465 18.6782 28.389 20.1158 28.9631C21.5535 29.5372 23.1428 29.6093 24.6266 29.1678C26.1103 28.7262 27.4016 27.7968 28.2913 26.53C29.1811 25.2632 29.6173 23.7332 29.5293 22.1876C29.5192 22.0071 29.5447 21.8263 29.6044 21.6556C29.6641 21.4848 29.7569 21.3276 29.8774 21.1927C29.9979 21.0578 30.1438 20.948 30.3067 20.8696C30.4696 20.7911 30.6464 20.7455 30.827 20.7353C31.1917 20.7148 31.5496 20.84 31.8219 21.0833C31.9568 21.2038 32.0666 21.3497 32.1451 21.5126C32.2236 21.6756 32.2692 21.8524 32.2793 22.0329C32.4047 24.2205 31.7799 26.3854 30.5082 28.1698C29.2364 29.9542 27.3939 31.2512 25.2852 31.8465C23.1764 32.4419 20.9277 32.2998 18.9105 31.444C16.8934 30.5881 15.2287 29.0696 14.1916 27.1394C13.1544 25.2092 12.8069 22.9829 13.2065 20.8285C13.606 18.674 14.7287 16.7204 16.389 15.2905C18.0494 13.8606 20.1479 13.04 22.3377 12.9643C24.5276 12.8887 26.6777 13.5625 28.4328 14.8744L32.3429 10.9642C29.4774 8.5851 25.834 7.34857 22.1123 7.49211C18.3907 7.63565 14.8533 9.14913 12.1796 11.7419C9.50583 14.3346 7.88428 17.8238 7.62636 21.5393C7.36844 25.2547 8.49233 28.9345 10.7822 31.8718C13.072 34.8091 16.3664 36.7968 20.0325 37.4532C23.6986 38.1096 27.478 37.3884 30.6447 35.428C33.8114 33.4677 36.1422 30.4064 37.1895 26.8323C38.2367 23.2581 37.9265 19.4231 36.3184 16.0637C36.1611 15.7346 36.1411 15.3565 36.2626 15.0126C36.3841 14.6687 36.6373 14.3871 36.9664 14.2298C37.2955 14.0726 37.6736 14.0525 38.0175 14.174C38.3615 14.2955 38.643 14.5487 38.8003 14.8778Z" fill="white"/>
</svg>
