<svg width="77" height="77" viewBox="0 0 77 77" fill="none" xmlns="http://www.w3.org/2000/svg">
<path d="M38.2052 6.36621C20.6339 6.36621 6.37305 20.627 6.37305 38.1984C6.37305 55.7697 20.6339 70.0306 38.2052 70.0306C55.7766 70.0306 70.0374 55.7697 70.0374 38.1984C70.0374 20.627 55.7766 6.36621 38.2052 6.36621ZM52.9753 28.0121C52.4979 33.0416 50.4288 45.2651 49.3783 50.8994C48.9327 53.2868 48.0414 54.0826 47.2137 54.1781C45.3675 54.3373 43.9668 52.9685 42.1842 51.7907C39.383 49.9445 37.7914 48.7985 35.0857 47.0159C31.9343 44.9468 33.9715 43.8008 35.786 41.9546C36.2635 41.4771 44.4125 34.0602 44.5717 33.3917C44.5938 33.2905 44.5908 33.1854 44.5631 33.0855C44.5354 32.9857 44.4837 32.8941 44.4125 32.8188C44.2215 32.6596 43.9668 32.7233 43.744 32.7551C43.4575 32.8187 39.001 35.7791 30.3108 41.6363C29.0376 42.4957 27.8916 42.9414 26.873 42.9095C25.727 42.8777 23.5624 42.2729 21.939 41.7318C19.9336 41.0951 18.3738 40.745 18.5011 39.6308C18.5648 39.0579 19.3606 38.4849 20.8567 37.8801C30.1517 33.8374 36.3271 31.1635 39.4148 29.8902C48.2642 26.1977 50.0786 25.561 51.2882 25.561C51.5429 25.561 52.1477 25.6247 52.5297 25.943C52.848 26.1977 52.9435 26.5478 52.9753 26.8025C52.9435 26.9935 53.0072 27.5664 52.9753 28.0121Z" fill="white"/>
</svg>
