<svg width="100" height="39" viewBox="0 0 100 39" fill="none" xmlns="http://www.w3.org/2000/svg">
<g clip-path="url(#clip0_104_651)">
<path d="M23.7368 0.20752C19.8315 0.20752 16.0863 1.75887 13.3249 4.52029L4.31277 13.5324C1.55135 16.2938 0 20.0391 0 23.9443C0 32.0766 6.59249 38.6691 14.7247 38.6691C18.63 38.6691 22.3753 37.1176 25.1367 34.3562L31.3704 28.1225C31.3704 28.1224 31.3705 28.1227 31.3704 28.1225L49.5333 9.95957C50.8522 8.64074 52.6409 7.89983 54.506 7.89983C57.6286 7.89983 60.2759 9.93497 61.1937 12.7512L66.9259 7.01901C64.3109 2.92334 59.7256 0.20752 54.506 0.20752C50.6008 0.20752 46.8555 1.75887 44.0941 4.52029L19.6974 28.917C18.3786 30.2359 16.5899 30.9768 14.7247 30.9768C10.8408 30.9768 7.69231 27.8283 7.69231 23.9443C7.69231 22.0792 8.43322 20.2905 9.75205 18.9716L18.7641 9.95957C20.0829 8.64074 21.8717 7.89983 23.7368 7.89983C26.8595 7.89983 29.5067 9.93506 30.4245 12.7514L36.1568 7.01915C33.5418 2.92342 28.9565 0.20752 23.7368 0.20752Z" fill="url(#paint0_linear_104_651)"/>
<path d="M50.4667 28.917C49.1478 30.2359 47.3591 30.9768 45.494 30.9768C42.3718 30.9768 39.7247 28.9421 38.8067 26.1264L33.0746 31.8584C35.6897 35.9535 40.2747 38.6691 45.494 38.6691C49.3992 38.6691 53.1445 37.1176 55.9059 34.3562L80.3026 9.95957C81.6214 8.64074 83.4101 7.89983 85.2753 7.89983C89.1592 7.89983 92.3077 11.0483 92.3077 14.9323C92.3077 16.7974 91.5668 18.5861 90.248 19.905L81.2359 28.917C79.917 30.2359 78.1283 30.9768 76.2632 30.9768C73.1408 30.9768 70.4936 28.9418 69.5756 26.1257L63.8436 31.8579C66.4586 35.9534 71.0437 38.6691 76.2632 38.6691C80.1685 38.6691 83.9137 37.1176 86.6751 34.3562L95.6872 25.3442C98.4486 22.5828 100 18.8375 100 14.9323C100 6.80001 93.4076 0.20752 85.2753 0.20752C81.37 0.20752 77.6247 1.75887 74.8633 4.52029L50.4667 28.917Z" fill="url(#paint1_linear_104_651)"/>
</g>
<defs>
<linearGradient id="paint0_linear_104_651" x1="0" y1="19.4383" x2="66.9259" y2="19.4383" gradientUnits="userSpaceOnUse">
<stop stop-color="#00FC9E"/>
<stop offset="1" stop-color="#1C7EF0"/>
</linearGradient>
<linearGradient id="paint1_linear_104_651" x1="33.0746" y1="19.4383" x2="100" y2="19.4383" gradientUnits="userSpaceOnUse">
<stop stop-color="#00FC9E"/>
<stop offset="1" stop-color="#1C7EF0"/>
</linearGradient>
<clipPath id="clip0_104_651">
<rect width="100" height="38.4615" fill="white" transform="translate(0 0.20752)"/>
</clipPath>
</defs>
</svg>
