<svg width="40" height="40" viewBox="0 0 40 40" fill="none" xmlns="http://www.w3.org/2000/svg">
<path d="M11.6663 36.6665V18.3332M3.33301 21.6665V33.3332C3.33301 35.1742 4.82539 36.6665 6.66634 36.6665H29.0434C31.5113 36.6665 33.61 34.866 33.9853 32.4268L35.7801 20.7602C36.2461 17.7314 33.9027 14.9999 30.8383 14.9999H24.9997C24.0792 14.9999 23.333 14.2537 23.333 13.3332V7.44299C23.333 5.17324 21.493 3.33325 19.2233 3.33325C18.6819 3.33325 18.1913 3.65208 17.9714 4.14679L12.1062 17.3434C11.8387 17.9453 11.2419 18.3332 10.5832 18.3332H6.66634C4.82539 18.3332 3.33301 19.8256 3.33301 21.6665Z" stroke="white" stroke-width="2.5" stroke-linecap="round" stroke-linejoin="round"/>
</svg>
