<svg width="24" height="24" viewBox="0 0 24 24" fill="none" xmlns="http://www.w3.org/2000/svg">
<g id="Social Icon" clip-path="url(#clip0_1_9445)">
<path id="Vector" fillRule="evenodd" clipRule="evenodd" d="M12 24C18.6274 24 24 18.6274 24 12C24 5.37259 18.6274 0 12 0C5.37259 0 0 5.37259 0 12C0 18.6274 5.37259 24 12 24ZM13.3188 6.00331C12.9456 6.00382 12.5717 6.00432 12.1965 6.01013L12.1969 6.01051C12.187 7.29943 12.1877 8.58866 12.1883 9.8795C12.1886 10.601 12.189 11.323 12.1875 12.0457C12.1859 12.288 12.1861 12.5301 12.1864 12.772C12.187 13.423 12.1877 14.0731 12.1519 14.7252C12.1467 14.9062 12.0559 15.0653 11.9677 15.2198C11.9607 15.2321 11.9537 15.2443 11.9467 15.2566C11.6557 15.731 11.1206 16.055 10.5622 16.061C9.71988 16.1357 8.93083 15.446 8.81196 14.6255C8.81107 14.5853 8.80963 14.5448 8.80822 14.5042C8.80008 14.2727 8.79178 14.0367 8.87983 13.821C9.00509 13.4655 9.24547 13.1513 9.56201 12.9461C9.99552 12.645 10.5753 12.6 11.0715 12.7605C11.0715 12.4442 11.0769 12.128 11.0823 11.8119C11.0895 11.3877 11.0968 10.9636 11.091 10.5392C10.0049 10.336 8.84496 10.6795 8.01691 11.4007C7.28638 12.0198 6.81574 12.93 6.72571 13.8814C6.71561 14.1256 6.71971 14.3753 6.73171 14.6255C6.83522 15.7955 7.54589 16.8857 8.55583 17.4812C9.16522 17.8405 9.87965 18.0355 10.5948 17.9946C11.7607 17.9751 12.8959 17.35 13.55 16.3911C13.9565 15.815 14.1871 15.1194 14.2261 14.4203C14.2363 13.4601 14.2356 12.498 14.235 11.5348C14.2347 11.0385 14.2344 10.5418 14.2355 10.045C14.4954 10.2149 14.7609 10.381 15.0459 10.51C15.7003 10.8205 16.4249 10.9705 17.146 10.9941V8.98066C16.3765 8.89478 15.5856 8.64089 15.0264 8.08622C14.4661 7.54507 14.1909 6.76541 14.1515 6C13.8741 6.00257 13.5966 6.00293 13.3188 6.00331Z" fill="white"/>
</g>
<defs>
<clipPath id="clip0_1_9445">
<rect width="24" height="24" fill="white"/>
</clipPath>
</defs>
</svg>
