<svg width="450" height="421" viewBox="0 0 450 421" fill="none" xmlns="http://www.w3.org/2000/svg">
<g clip-path="url(#clip0_105_611)">
<path d="M31.5938 397.178H33.635V388.169H31.8458L29.7668 389.643V391.382L31.5938 390.185V397.178ZM35.5082 397.178H37.5494V393.461H41.1656V397.178H43.2068V388.169H41.1656V391.848H37.5494V388.169H35.5082V397.178Z" fill="#748497"/>
<path d="M103.851 397.178H105.892V388.169H104.103L102.024 389.643V391.382L103.851 390.185V397.178ZM109.807 395.59V389.756H110.613C112.516 389.756 113.309 390.752 113.309 392.604V392.705C113.309 394.57 112.453 395.59 110.638 395.59H109.807ZM107.765 397.178H110.701C113.864 397.178 115.439 395.376 115.439 392.68V392.579C115.439 389.882 113.876 388.169 110.714 388.169H107.765V397.178Z" fill="#01FF9D"/>
<path d="M174.774 397.178H176.815V388.169H175.026L172.947 389.643V391.382L174.774 390.185V397.178ZM180.175 397.178H182.141L183.791 390.953L185.417 397.178H187.496L189.688 388.169H187.798L186.336 394.431L184.736 388.169H182.997L181.46 394.393L180.049 388.169H177.983L180.175 397.178Z" fill="#748497"/>
<path d="M248.766 397.178H250.808V388.169H249.018L246.939 389.643V391.382L248.766 390.185V397.178ZM252.681 397.178H254.508V390.853L257.015 397.178H257.683L260.178 390.853V397.178H262.206V388.169H259.56L257.481 393.776L255.377 388.169H252.681V397.178Z" fill="#748497"/>
<path d="M323.039 397.178H325.08V388.169H323.291L321.212 389.643V391.382L323.039 390.185V397.178ZM329.12 397.178H331.174V393.297L333.984 388.169H332.006L330.216 391.621L328.389 388.169H326.147L329.12 393.297V397.178Z" fill="#748497"/>
<path d="M391.899 397.178H393.814L394.431 395.174H397.695L398.312 397.178H400.442L397.518 388.169H394.86L391.899 397.178ZM396.069 389.832L397.254 393.725H394.872L396.069 389.832ZM401.308 397.178H403.122V387.602H401.308V397.178ZM404.587 397.178H406.401V387.602H404.587V397.178Z" fill="#748497"/>
<mask id="path-7-inside-1_105_611" fill="white">
<path fill-rule="evenodd" clipRule="evenodd" d="M-6.65326 236.531V285.615H-13.8363V432.867H463.836V310.756V285.615V115.018L454.427 131.778L445.017 115.018L435.607 131.778L426.197 96.4616L416.787 141.356L407.378 123.398L397.968 93.4687L387.816 103.645L379.148 61.145L369.738 110.828L360.329 93.4687L350.919 120.405L341.509 129.982L332.099 121.004L322.689 134.173L313.28 173.081L303.87 150.933L294.46 177.869L285.05 168.292L275.64 197.623L266.231 187.447L256.821 216.778L247.411 173.081L238.001 150.933L228.592 197.623L219.182 190.44L209.772 173.081L200.362 206.602L190.952 217.975L181.543 198.221L172.133 216.179L162.723 160.51L153.313 182.06L143.903 142.553L134.494 198.221L125.084 188.644L115.674 217.975L106.264 226.954L96.8544 212.588L87.4446 210.792L78.0349 189.243L68.6251 183.855L59.2153 202.412L49.8055 189.243L40.3957 232.939L30.9859 219.172L21.5761 241.32L12.1663 232.939L2.75653 256.284L-6.65326 236.531Z"/>
</mask>
<path fill-rule="evenodd" clipRule="evenodd" d="M-6.65326 236.531V285.615H-13.8363V432.867H463.836V310.756V285.615V115.018L454.427 131.778L445.017 115.018L435.607 131.778L426.197 96.4616L416.787 141.356L407.378 123.398L397.968 93.4687L387.816 103.645L379.148 61.145L369.738 110.828L360.329 93.4687L350.919 120.405L341.509 129.982L332.099 121.004L322.689 134.173L313.28 173.081L303.87 150.933L294.46 177.869L285.05 168.292L275.64 197.623L266.231 187.447L256.821 216.778L247.411 173.081L238.001 150.933L228.592 197.623L219.182 190.44L209.772 173.081L200.362 206.602L190.952 217.975L181.543 198.221L172.133 216.179L162.723 160.51L153.313 182.06L143.903 142.553L134.494 198.221L125.084 188.644L115.674 217.975L106.264 226.954L96.8544 212.588L87.4446 210.792L78.0349 189.243L68.6251 183.855L59.2153 202.412L49.8055 189.243L40.3957 232.939L30.9859 219.172L21.5761 241.32L12.1663 232.939L2.75653 256.284L-6.65326 236.531Z" fill="url(#paint0_linear_105_611)"/>
<path d="M-6.65326 285.615V289.207H-3.06173V285.615H-6.65326ZM-6.65326 236.531L-3.41083 234.986L-10.2448 236.531H-6.65326ZM-13.8363 285.615V282.023H-17.4278V285.615H-13.8363ZM-13.8363 432.867H-17.4278V436.459H-13.8363V432.867ZM463.836 432.867V436.459H467.428V432.867H463.836ZM463.836 115.018H467.428V101.284L460.705 113.26L463.836 115.018ZM454.427 131.778L451.295 133.536L454.427 139.115L457.558 133.536L454.427 131.778ZM445.017 115.018L448.148 113.26L445.017 107.681L441.885 113.26L445.017 115.018ZM435.607 131.778L432.136 132.703L434.412 141.243L438.739 133.536L435.607 131.778ZM426.197 96.4616L429.668 95.5369L422.682 95.7248L426.197 96.4616ZM416.787 141.356L413.606 143.023L418.25 151.885L420.302 142.092L416.787 141.356ZM407.378 123.398L403.951 124.475L404.048 124.781L404.196 125.065L407.378 123.398ZM397.968 93.4687L401.394 92.3915L399.615 86.7326L395.425 90.9321L397.968 93.4687ZM387.816 103.645L384.297 104.362L385.633 110.917L390.358 106.181L387.816 103.645ZM379.148 61.145L382.667 60.4273L375.619 60.4766L379.148 61.145ZM369.738 110.828L366.581 112.539L371.389 121.41L373.267 111.496L369.738 110.828ZM360.329 93.4687L363.486 91.7571L359.616 84.6179L356.938 92.2842L360.329 93.4687ZM350.919 120.405L353.481 122.922L354.044 122.349L354.309 121.59L350.919 120.405ZM341.509 129.982L339.03 132.581L341.59 135.024L344.071 132.5L341.509 129.982ZM332.099 121.004L334.579 118.405L331.584 115.548L329.177 118.916L332.099 121.004ZM322.689 134.173L319.767 132.085L319.362 132.651L319.199 133.328L322.689 134.173ZM313.28 173.081L309.974 174.485L314.219 184.476L316.771 173.925L313.28 173.081ZM303.87 150.933L307.175 149.529L303.543 140.979L300.479 149.749L303.87 150.933ZM294.46 177.869L291.898 180.387L295.946 184.506L297.851 179.054L294.46 177.869ZM285.05 168.292L287.612 165.775L283.446 161.535L281.63 167.195L285.05 168.292ZM275.64 197.623L273.004 200.061L277.181 204.579L279.06 198.72L275.64 197.623ZM266.231 187.447L268.868 185.008L264.69 180.491L262.811 186.35L266.231 187.447ZM256.821 216.778L253.31 217.534L256.138 230.665L260.241 217.875L256.821 216.778ZM247.411 173.081L250.922 172.325L250.85 171.991L250.717 171.676L247.411 173.081ZM238.001 150.933L241.307 149.529L236.772 138.855L234.481 150.223L238.001 150.933ZM228.592 197.623L226.412 200.478L230.978 203.963L232.112 198.332L228.592 197.623ZM219.182 190.44L216.024 192.151L216.391 192.828L217.002 193.295L219.182 190.44ZM209.772 173.081L212.929 171.369L208.708 163.582L206.314 172.11L209.772 173.081ZM200.362 206.602L203.129 208.891L203.614 208.305L203.82 207.572L200.362 206.602ZM190.952 217.975L187.71 219.519L190.131 224.602L193.72 220.264L190.952 217.975ZM181.543 198.221L184.785 196.677L181.696 190.191L178.361 196.554L181.543 198.221ZM172.133 216.179L168.591 216.778L170.368 227.286L175.314 217.846L172.133 216.179ZM162.723 160.51L166.264 159.912L164.255 148.027L159.432 159.073L162.723 160.51ZM153.313 182.06L149.819 182.892L152.307 193.338L156.605 183.497L153.313 182.06ZM143.903 142.553L147.397 141.721L140.362 141.954L143.903 142.553ZM134.494 198.221L131.932 200.739L136.862 205.757L138.035 198.82L134.494 198.221ZM125.084 188.644L127.646 186.127L123.48 181.887L121.664 187.547L125.084 188.644ZM115.674 217.975L118.153 220.573L118.815 219.942L119.094 219.072L115.674 217.975ZM106.264 226.954L103.26 228.922L105.623 232.53L108.744 229.552L106.264 226.954ZM96.8544 212.588L99.8588 210.62L99.0241 209.345L97.5277 209.06L96.8544 212.588ZM87.4446 210.792L84.1532 212.229L84.9111 213.965L86.7714 214.32L87.4446 210.792ZM78.0349 189.243L81.3263 187.805L80.8507 186.716L79.8193 186.126L78.0349 189.243ZM68.6251 183.855L70.4095 180.738L67.1306 178.861L65.4219 182.231L68.6251 183.855ZM59.2153 202.412L56.2931 204.5L59.7383 209.321L62.4185 204.036L59.2153 202.412ZM49.8055 189.243L52.7277 187.155L48.0047 180.545L46.2944 188.487L49.8055 189.243ZM40.3957 232.939L37.4306 234.966L42.1471 241.867L43.9067 233.696L40.3957 232.939ZM30.9859 219.172L33.951 217.145L30.2471 211.726L27.6804 217.768L30.9859 219.172ZM21.5761 241.32L19.1875 244.002L22.9247 247.33L24.8817 242.724L21.5761 241.32ZM12.1663 232.939L14.5549 230.257L10.7434 226.863L8.83522 231.597L12.1663 232.939ZM2.75653 256.284L-0.485892 257.829L3.03069 265.211L6.08764 257.627L2.75653 256.284ZM-3.06173 285.615V236.531H-10.2448V285.615H-3.06173ZM-13.8363 289.207H-6.65326V282.023H-13.8363V289.207ZM-10.2448 432.867V285.615H-17.4278V432.867H-10.2448ZM463.836 429.276H-13.8363V436.459H463.836V429.276ZM460.245 310.756V432.867H467.428V310.756H460.245ZM460.245 285.615V310.756H467.428V285.615H460.245ZM460.245 115.018V285.615H467.428V115.018H460.245ZM457.558 133.536L466.968 116.776L460.705 113.26L451.295 130.02L457.558 133.536ZM441.885 116.776L451.295 133.536L457.558 130.02L448.148 113.26L441.885 116.776ZM438.739 133.536L448.148 116.776L441.885 113.26L432.475 130.02L438.739 133.536ZM422.727 97.3863L432.136 132.703L439.077 130.854L429.668 95.5369L422.727 97.3863ZM420.302 142.092L429.712 97.1984L422.682 95.7248L413.272 140.619L420.302 142.092ZM404.196 125.065L413.606 143.023L419.969 139.689L410.559 121.731L404.196 125.065ZM394.542 94.5459L403.951 124.475L410.804 122.321L401.394 92.3915L394.542 94.5459ZM390.358 106.181L400.51 96.0053L395.425 90.9321L385.273 101.108L390.358 106.181ZM375.629 61.8627L384.297 104.362L391.335 102.927L382.667 60.4273L375.629 61.8627ZM373.267 111.496L382.677 61.8133L375.619 60.4766L366.21 110.159L373.267 111.496ZM357.171 95.1802L366.581 112.539L372.896 109.116L363.486 91.7571L357.171 95.1802ZM354.309 121.59L363.719 94.6531L356.938 92.2842L347.528 119.221L354.309 121.59ZM344.071 132.5L353.481 122.922L348.357 117.888L338.947 127.465L344.071 132.5ZM329.62 123.602L339.03 132.581L343.988 127.384L334.579 118.405L329.62 123.602ZM325.612 136.261L335.021 123.092L329.177 118.916L319.767 132.085L325.612 136.261ZM316.771 173.925L326.18 135.017L319.199 133.328L309.789 172.237L316.771 173.925ZM300.564 152.337L309.974 174.485L316.585 171.676L307.175 149.529L300.564 152.337ZM297.851 179.054L307.26 152.117L300.479 149.749L291.069 176.685L297.851 179.054ZM282.488 170.809L291.898 180.387L297.022 175.352L287.612 165.775L282.488 170.809ZM279.06 198.72L288.47 169.389L281.63 167.195L272.221 196.526L279.06 198.72ZM263.594 189.885L273.004 200.061L278.277 195.184L268.868 185.008L263.594 189.885ZM260.241 217.875L269.651 188.544L262.811 186.35L253.401 215.68L260.241 217.875ZM243.9 173.837L253.31 217.534L260.332 216.022L250.922 172.325L243.9 173.837ZM234.696 152.337L244.106 174.485L250.717 171.676L241.307 149.529L234.696 152.337ZM232.112 198.332L241.522 151.643L234.481 150.223L225.071 196.913L232.112 198.332ZM217.002 193.295L226.412 200.478L230.771 194.768L221.361 187.585L217.002 193.295ZM206.614 174.792L216.024 192.151L222.339 188.728L212.929 171.369L206.614 174.792ZM203.82 207.572L213.23 174.051L206.314 172.11L196.904 205.631L203.82 207.572ZM193.72 220.264L203.129 208.891L197.595 204.312L188.185 215.685L193.72 220.264ZM178.3 199.766L187.71 219.519L194.195 216.43L184.785 196.677L178.3 199.766ZM175.314 217.846L184.724 199.888L178.361 196.554L168.952 214.512L175.314 217.846ZM159.182 161.109L168.591 216.778L175.674 215.58L166.264 159.912L159.182 161.109ZM156.605 183.497L166.014 161.948L159.432 159.073L150.022 180.622L156.605 183.497ZM140.41 143.385L149.819 182.892L156.807 181.227L147.397 141.721L140.41 143.385ZM138.035 198.82L147.445 143.151L140.362 141.954L130.952 197.623L138.035 198.82ZM122.522 191.161L131.932 200.739L137.056 195.704L127.646 186.127L122.522 191.161ZM119.094 219.072L128.504 189.741L121.664 187.547L112.254 216.878L119.094 219.072ZM108.744 229.552L118.153 220.573L113.195 215.376L103.785 224.355L108.744 229.552ZM93.85 214.555L103.26 228.922L109.269 224.986L99.8588 210.62L93.85 214.555ZM86.7714 214.32L96.1812 216.115L97.5277 209.06L88.1179 207.264L86.7714 214.32ZM74.7435 190.68L84.1532 212.229L90.7361 209.355L81.3263 187.805L74.7435 190.68ZM66.8406 186.972L76.2504 192.359L79.8193 186.126L70.4095 180.738L66.8406 186.972ZM62.4185 204.036L71.8283 185.48L65.4219 182.231L56.0121 200.787L62.4185 204.036ZM46.8833 191.331L56.2931 204.5L62.1375 200.324L52.7277 187.155L46.8833 191.331ZM43.9067 233.696L53.3165 189.999L46.2944 188.487L36.8847 232.183L43.9067 233.696ZM28.0208 221.199L37.4306 234.966L43.3608 230.913L33.951 217.145L28.0208 221.199ZM24.8817 242.724L34.2915 220.576L27.6804 217.768L18.2706 239.915L24.8817 242.724ZM9.7777 235.622L19.1875 244.002L23.9647 238.638L14.5549 230.257L9.7777 235.622ZM6.08764 257.627L15.4974 234.282L8.83522 231.597L-0.574565 254.942L6.08764 257.627ZM-9.89568 238.076L-0.485892 257.829L5.99896 254.74L-3.41083 234.986L-9.89568 238.076Z" fill="#01FF9D" mask="url(#path-7-inside-1_105_611)"/>
</g>
<defs>
<linearGradient id="paint0_linear_105_611" x1="227.586" y1="101.96" x2="227.586" y2="423.531" gradientUnits="userSpaceOnUse">
<stop stop-color="#01FF9D" stop-opacity="0.2"/>
<stop offset="1" stop-color="#01FF9D" stop-opacity="0"/>
</linearGradient>
<clipPath id="clip0_105_611">
<rect width="448.94" height="420.208" fill="white" transform="translate(0.529785 0.6875)"/>
</clipPath>
</defs>
</svg>
