<svg width="50" height="51" viewBox="0 0 50 51" fill="none" xmlns="http://www.w3.org/2000/svg">
<g clip-path="url(#clip0_6_810)">
<path d="M9.79481 31.2674L17.3964 18.0974L16.9589 17.3396C16.3049 16.2424 15.882 15.0232 15.7162 13.7567C15.5504 12.4902 15.6452 11.2031 15.9946 9.97457C16.3441 8.74601 16.941 7.60181 17.7486 6.61221C18.5562 5.62261 19.5575 4.80848 20.691 4.21977C21.8246 3.63107 23.0665 3.28022 24.3405 3.18874C25.6145 3.09727 26.8938 3.26711 28.0999 3.68783C29.3059 4.10855 30.4132 4.77129 31.3539 5.63537C32.2946 6.49944 33.0488 7.54663 33.5702 8.71267C33.7339 9.06869 33.7608 9.47247 33.6459 9.84707C33.531 10.2217 33.2823 10.5409 32.9472 10.7439C32.7566 10.8545 32.5449 10.9236 32.3258 10.9466C32.1067 10.9697 31.8853 10.9461 31.6759 10.8775C31.4666 10.8089 31.2741 10.6968 31.1112 10.5485C30.9482 10.4003 30.8184 10.2193 30.7304 10.0174C30.3855 9.23797 29.8849 8.53734 29.2593 7.95855C28.6337 7.37976 27.8964 6.93503 27.0926 6.6517C26.2888 6.36837 25.4355 6.25243 24.5853 6.31101C23.735 6.36959 22.9057 6.60144 22.1484 6.99232C21.391 7.38321 20.7216 7.92485 20.1813 8.58397C19.641 9.24309 19.2412 10.0057 19.0065 10.8251C18.7718 11.6444 18.7071 12.503 18.8165 13.3483C18.9259 14.1935 19.207 15.0074 19.6425 15.74C19.6488 15.7477 19.654 15.7563 19.6581 15.7654L22.3593 20.4412C22.4964 20.6787 22.5686 20.9482 22.5686 21.2224C22.5686 21.4967 22.4964 21.7662 22.3593 22.0037L15.2069 34.3924C14.7871 35.0992 14.1056 35.6121 13.3102 35.82C12.5148 36.0278 11.6695 35.9138 10.9575 35.5027C10.2456 35.0916 9.72428 34.4165 9.50664 33.6238C9.289 32.831 9.39253 31.9843 9.79481 31.2674ZM37.3339 23.4549H34.9237L27.7069 10.9549C27.2871 10.248 26.6056 9.73511 25.8102 9.52727C25.0148 9.31942 24.1695 9.4334 23.4575 9.84449C22.7456 10.2556 22.2243 10.9307 22.0066 11.7235C21.789 12.5163 21.8925 13.3629 22.2948 14.0799L29.0604 25.7986C29.1974 26.0359 29.3944 26.233 29.6317 26.3701C29.8689 26.5072 30.138 26.5796 30.412 26.5799H37.371C40.8651 26.5799 43.8065 29.4392 43.7499 32.9334C43.723 34.5625 43.0609 36.1168 41.9047 37.2649C40.7486 38.4131 39.1898 39.0643 37.5604 39.0799C37.1612 39.075 36.7745 39.219 36.4756 39.4836C36.1766 39.7482 35.9869 40.1147 35.9432 40.5115C35.9251 40.7274 35.9521 40.9448 36.0224 41.1497C36.0928 41.3546 36.205 41.5427 36.3519 41.702C36.4989 41.8612 36.6773 41.9882 36.876 42.0747C37.0746 42.1613 37.2891 42.2056 37.5057 42.2049C38.7519 42.2038 39.9855 41.9545 41.1343 41.4716C42.2831 40.9887 43.3242 40.2818 44.1969 39.3922C45.0697 38.5025 45.7564 37.448 46.2172 36.2901C46.678 35.1323 46.9036 33.8942 46.8807 32.6482C46.7753 27.5154 42.4765 23.4549 37.3417 23.4549H37.3339ZM40.6249 32.6795C40.5468 30.9978 39.0975 29.7049 37.4159 29.7049H22.4237C22.1494 29.7048 21.8799 29.777 21.6423 29.9141C21.4047 30.0512 21.2074 30.2485 21.0702 30.4861L17.914 35.9549C17.4879 36.6895 16.9167 37.3296 16.2351 37.8361C15.5535 38.3426 14.7758 38.7048 13.9495 38.9008C13.1232 39.0967 12.2656 39.1222 11.4292 38.9758C10.5927 38.8293 9.79486 38.5139 9.08434 38.0488C8.37383 37.5837 7.76554 36.9787 7.29661 36.2707C6.82768 35.5627 6.50795 34.7666 6.35694 33.9309C6.20592 33.0953 6.22678 32.2376 6.41826 31.4102C6.60973 30.5829 6.96779 29.8033 7.47059 29.1189C7.71344 28.8027 7.82961 28.4073 7.79638 28.0099C7.76315 27.6126 7.58291 27.242 7.2909 26.9705C7.12947 26.8266 6.93993 26.7179 6.73429 26.651C6.52864 26.5842 6.31137 26.5608 6.09621 26.5823C5.88105 26.6038 5.6727 26.6697 5.48432 26.7758C5.29595 26.882 5.13165 27.0261 5.00184 27.199C3.79659 28.7961 3.13838 30.7392 3.12489 32.74C3.10634 34.8103 3.77362 36.8285 5.02262 38.4797C6.27162 40.1309 8.03207 41.3222 10.0293 41.8677C12.0265 42.4132 14.1481 42.2823 16.0631 41.4953C17.978 40.7084 19.5786 39.3096 20.6151 37.5174L21.5175 35.9549H37.4999C37.9232 35.9553 38.3423 35.8698 38.7316 35.7034C39.1208 35.5371 39.4723 35.2934 39.7645 34.9871C40.0568 34.6808 40.2837 34.3183 40.4316 33.9216C40.5795 33.5249 40.6453 33.1023 40.6249 32.6795Z" fill="url(#paint0_linear_6_810)"/>
</g>
<defs>
<linearGradient id="paint0_linear_6_810" x1="25.0034" y1="3.16467" x2="25.0034" y2="42.2049" gradientUnits="userSpaceOnUse">
<stop stop-color="#2A80B3"/>
<stop offset="0.5" stop-color="#236191"/>
<stop offset="1" stop-color="#142738"/>
</linearGradient>
<clipPath id="clip0_6_810">
<rect width="50" height="50" fill="white" transform="translate(0 0.017334)"/>
</clipPath>
</defs>
</svg>
