<svg width="24" height="21" viewBox="0 0 24 21" fill="none" xmlns="http://www.w3.org/2000/svg">
<path d="M21.533 5.41936C21.5482 5.63255 21.5482 5.84579 21.5482 6.05897C21.5482 12.5615 16.599 20.0539 7.5533 20.0539C4.76648 20.0539 2.17767 19.2467 0 17.8458C0.395953 17.8914 0.776625 17.9067 1.18781 17.9067C3.48726 17.9067 5.60404 17.1301 7.29441 15.8052C5.13196 15.7595 3.31978 14.3432 2.6954 12.394C3 12.4396 3.30455 12.4701 3.62437 12.4701C4.06598 12.4701 4.50764 12.4092 4.91878 12.3026C2.66499 11.8457 0.974578 9.86609 0.974578 7.47525V7.41436C1.62938 7.77978 2.39086 8.00823 3.1979 8.03863C1.87303 7.15538 1.00505 5.64779 1.00505 3.94219C1.00505 3.0285 1.24866 2.19095 1.67508 1.45998C4.09641 4.44474 7.73602 6.39394 11.8172 6.60718C11.7411 6.24169 11.6954 5.86102 11.6954 5.48031C11.6954 2.76961 13.8883 0.561523 16.6141 0.561523C18.0304 0.561523 19.3095 1.15543 20.2081 2.11482C21.3196 1.90163 22.3857 1.49044 23.3299 0.927008C22.9644 2.06916 22.1877 3.02855 21.1675 3.63765C22.1573 3.5311 23.1167 3.25693 23.9999 2.87625C23.33 3.85083 22.4924 4.71882 21.533 5.41936Z" fill="url(#paint0_linear_285_533)"/>
<defs>
<linearGradient id="paint0_linear_285_533" x1="-1.59345" y1="-0.0985043" x2="-4.713" y2="30.0016" gradientUnits="userSpaceOnUse">
<stop stop-color="white"/>
<stop offset="1" stop-color="white"/>
</linearGradient>
</defs>
</svg>
