<svg width="20" height="21" viewBox="0 0 20 21" fill="none" xmlns="http://www.w3.org/2000/svg">
<g id="upload">
<path id="shape" fillRule="evenodd" clipRule="evenodd" d="M8.94689 3.28023C9.18772 3.0394 9.57817 3.0394 9.81899 3.28023L13.519 6.98023C13.7598 7.22105 13.7598 7.6115 13.519 7.85232C13.2782 8.09315 12.8877 8.09315 12.6469 7.85232L9.99961 5.20504V13.5829C9.99961 13.9235 9.72352 14.1996 9.38294 14.1996C9.04237 14.1996 8.76628 13.9235 8.76628 13.5829V5.20504L6.11899 7.85232C5.87817 8.09315 5.48772 8.09315 5.24689 7.85232C5.00607 7.6115 5.00607 7.22105 5.24689 6.98023L8.94689 3.28023ZM3.21628 12.9663C3.55685 12.9663 3.83294 13.2424 3.83294 13.5829V15.4329H14.9329V13.5829C14.9329 13.2424 15.209 12.9663 15.5496 12.9663C15.8902 12.9663 16.1663 13.2424 16.1663 13.5829V16.0496C16.1663 16.3902 15.8902 16.6663 15.5496 16.6663H3.21628C2.8757 16.6663 2.59961 16.3902 2.59961 16.0496V13.5829C2.59961 13.2424 2.8757 12.9663 3.21628 12.9663Z" fill="#D974F3"/>
</g>
</svg>
