<svg width="44" height="44" viewBox="0 0 44 44" fill="none" xmlns="http://www.w3.org/2000/svg">
<g clip-path="url(#clip0_102_433)">
<mask id="mask0_102_433" style="mask-type:luminance" maskUnits="userSpaceOnUse" x="0" y="0" width="44" height="44">
<path d="M44 0H0V44H44V0Z" fill="white"/>
</mask>
<g mask="url(#mask0_102_433)">
<path d="M31.1691 14.5826C31.1691 11.5816 28.7169 9.14014 25.7028 9.14014C22.6885 9.14046 20.2362 11.5816 20.2362 14.5826C20.2362 17.5836 22.6881 20.0248 25.7025 20.0248C28.7166 20.0248 31.1691 17.5833 31.1691 14.5826ZM22.9861 14.5826C22.9861 13.0982 24.2048 11.89 25.7025 11.89C27.2003 11.89 28.4188 13.0979 28.4188 14.5826C28.4188 16.0673 27.2003 17.2752 25.7025 17.2752C24.2048 17.2752 22.9861 16.067 22.9861 14.5826Z" fill="url(#paint0_linear_102_433)"/>
<path d="M7.41107 3.178V16.2969C7.41107 17.0561 8.02641 17.6718 8.7859 17.6718C9.54505 17.6718 10.1607 17.0561 10.1607 16.2969L10.1611 12.9746C13.7875 12.3903 16.6585 9.53601 17.249 5.92808H34.1646C34.7548 9.53601 37.6257 12.3906 41.2526 12.9746V16.19C37.6254 16.7744 34.7541 19.6292 34.1642 23.2379H25.8854C25.1262 23.2379 24.5105 23.8532 24.5105 24.6126C24.5105 25.3722 25.1262 25.9875 25.8854 25.9875L44.0022 25.9879V3.17773L7.41107 3.178ZM10.161 10.1665V5.928H14.4384C13.9224 8.01567 12.2656 9.65822 10.161 10.1665ZM36.9748 5.928H41.2525V10.1665C39.1478 9.65816 37.4907 8.01559 36.9748 5.928ZM36.9744 23.2375C37.49 21.1496 39.1475 19.5064 41.2522 18.998V23.2375H36.9744Z" fill="url(#paint1_linear_102_433)"/>
<path d="M11.6947 19.8464C5.24656 19.8464 0 25.0921 0 31.5404C0 37.9886 5.24622 43.2342 11.6938 43.2342C18.142 43.2342 23.3878 37.9884 23.3878 31.5404C23.3881 25.0922 18.1431 19.8464 11.6947 19.8464ZM11.6947 40.4844C6.76288 40.4844 2.75067 36.4722 2.75067 31.5404C2.75067 26.6085 6.76322 22.5963 11.6947 22.5963C16.6266 22.5963 20.6388 26.6085 20.6388 31.5404C20.6391 36.4718 16.6266 40.4844 11.6947 40.4844Z" fill="url(#paint2_linear_102_433)"/>
<path d="M15.5584 30.7635L13.0694 33.1505V26.7255C13.0694 25.966 12.4537 25.3506 11.6945 25.3506C10.935 25.3506 10.3197 25.966 10.3197 26.7255V33.1325L7.82702 30.7599C7.27691 30.2365 6.40652 30.2581 5.88319 30.8082C5.35948 31.3583 5.38101 32.2286 5.93145 32.752L10.6582 37.2505C10.861 37.4856 11.1388 37.6519 11.4578 37.7077C11.4649 37.7089 11.4721 37.7086 11.4793 37.71C11.55 37.7214 11.6211 37.7318 11.6955 37.7318C11.6984 37.7318 11.7014 37.7308 11.7043 37.7308C11.7076 37.7308 11.7105 37.7318 11.7141 37.7318C12.0572 37.7318 12.3998 37.6043 12.6659 37.349L17.4631 32.7485C18.0113 32.2228 18.0292 31.3524 17.5038 30.8046C16.9766 30.2565 16.1062 30.2378 15.5584 30.7635Z" fill="url(#paint3_linear_102_433)"/>
</g>
</g>
<defs>
<linearGradient id="paint0_linear_102_433" x1="20.2362" y1="14.5825" x2="31.1691" y2="14.5825" gradientUnits="userSpaceOnUse">
<stop stopColor="#00FC9E"/>
<stop offset="1" stopColor="#1C7EF0"/>
</linearGradient>
<linearGradient id="paint1_linear_102_433" x1="7.41107" y1="14.5828" x2="44.0022" y2="14.5828" gradientUnits="userSpaceOnUse">
<stop stopColor="#00FC9E"/>
<stop offset="1" stopColor="#1C7EF0"/>
</linearGradient>
<linearGradient id="paint2_linear_102_433" x1="0" y1="31.5403" x2="23.3878" y2="31.5403" gradientUnits="userSpaceOnUse">
<stop stopColor="#00FC9E"/>
<stop offset="1" stopColor="#1C7EF0"/>
</linearGradient>
<linearGradient id="paint3_linear_102_433" x1="5.50409" y1="31.5412" x2="17.8864" y2="31.5412" gradientUnits="userSpaceOnUse">
<stop stopColor="#00FC9E"/>
<stop offset="1" stopColor="#1C7EF0"/>
</linearGradient>
<clipPath id="clip0_102_433">
<rect width="44" height="44" fill="white"/>
</clipPath>
</defs>
</svg>
