<svg width="174" height="65" viewBox="0 0 174 65" fill="none" xmlns="http://www.w3.org/2000/svg">
<g clip-path="url(#clip0_7_1485)">
<g clip-path="url(#clip1_7_1485)">
<g clip-path="url(#clip2_7_1485)">
<path fill-rule="evenodd" clip-rule="evenodd" d="M62.2168 19.6816V38.7001H66.8983H71.5798V31.3853C71.5798 26.5575 71.5798 23.9242 71.5798 23.6316C71.7261 22.9001 71.8724 22.1687 72.3113 21.5835C72.8965 20.5594 73.9205 20.1205 75.0909 20.2668C76.7002 20.4131 77.7242 21.2909 78.0168 23.1927C78.0168 23.4853 78.0168 26.4112 78.0168 31.0927V38.5538H82.6983H87.3798V29.7761C87.3798 22.315 87.3798 20.852 87.2335 20.1205C86.9409 17.4872 86.0631 15.439 84.4539 13.9761C83.1372 12.6594 81.5279 11.9279 79.6261 11.6353C78.8946 11.489 76.8465 11.6353 76.2613 11.7816C74.5057 12.2205 73.1891 12.8057 72.0187 14.1224L71.2872 14.7075V7.68531V0.663086H66.6057H61.9242V19.6816H62.2168ZM161.699 0.95568C161.406 1.54086 151.896 24.5094 151.896 24.5094C151.896 24.5094 154.383 24.5094 157.455 24.5094H163.014L167.99 12.6594C170.769 6.07605 172.964 0.663086 172.964 0.663086C172.964 0.663086 170.477 0.663086 167.404 0.663086H161.844L161.699 0.95568ZM41.7354 11.7816C39.6872 12.0742 38.0779 12.6594 36.4687 13.6835C33.2502 15.7316 31.202 19.2427 30.6168 23.339C30.3242 25.2409 30.4705 27.5816 30.9094 29.3372C32.0798 33.8724 35.152 37.3835 39.102 38.7001C40.565 39.139 41.1502 39.2853 42.9057 39.2853C44.2224 39.2853 44.6613 39.2853 45.1002 39.139C47.002 38.7001 48.3187 37.9687 49.4891 36.7983L50.0742 36.2131V37.3835V38.5538H54.6094H59.1446V25.3872V12.2205H54.6094H50.0742V13.3909V14.5612L49.6354 14.1224C48.6113 12.952 47.1483 12.2205 45.2465 11.7816C44.6613 11.6353 44.3687 11.6353 43.1983 11.6353C42.4668 11.7816 41.8816 11.7816 41.7354 11.7816ZM101.424 11.7816C98.9372 12.0742 96.3039 13.2446 94.402 14.7075C90.7446 17.7798 88.8428 22.6075 89.5742 27.5816C90.3057 33.1409 94.2557 37.3835 99.815 38.8464C100.985 39.139 102.156 39.2853 103.618 39.2853C106.253 39.2853 108.153 38.8464 110.202 37.8224C114.299 35.7742 116.931 32.1168 117.516 27.5816C117.663 26.4113 117.663 24.5094 117.516 23.4853C117.224 21.2909 116.346 19.0964 115.029 17.3409C114.444 16.6094 113.274 15.2927 112.542 14.7075C110.494 13.0983 108.153 12.0742 105.52 11.7816C104.496 11.6353 102.449 11.6353 101.424 11.7816ZM131.268 11.7816C128.781 12.0742 126.294 13.0983 124.392 14.7075C123.661 15.2927 122.344 16.6094 121.905 17.3409C120.589 19.0964 119.857 21.2909 119.418 23.4853C119.272 24.5094 119.272 26.5575 119.418 27.5816C120.296 33.4335 124.54 37.9687 130.391 39.139C131.562 39.4316 132.146 39.4316 133.464 39.4316C135.951 39.4316 138.144 38.9927 140.192 37.8224C145.605 35.0427 148.531 28.8983 147.214 22.6075C146.044 16.7557 141.363 12.5131 135.365 11.7816C134.34 11.6353 132.292 11.6353 131.268 11.7816ZM0.333496 12.3668C0.333496 12.3668 2.82054 18.365 5.89276 25.6798C8.96498 32.9946 11.452 38.9927 11.452 38.9927C11.452 38.9927 10.5742 41.1872 9.40387 43.8205C8.2335 46.4538 7.35572 48.502 7.35572 48.6483C7.35572 48.7946 9.55017 48.6483 12.3298 48.6483H17.3039L24.765 30.6538C28.8613 20.7057 32.2261 12.6594 32.2261 12.5131C32.2261 12.5131 31.202 12.3668 27.252 12.5131H22.2779L19.2057 20.1205C17.8891 24.2168 16.5724 27.7279 16.5724 27.7279C16.5724 27.7279 15.2557 24.2168 13.5002 20.1205L10.5742 12.5131H5.45387C2.67424 12.3668 0.333496 12.3668 0.333496 12.3668ZM46.2705 20.2668C48.1724 20.7057 49.6354 22.1687 50.2205 24.0705C50.3668 24.802 50.3668 26.1187 50.2205 26.8501C49.7816 28.752 48.3187 30.215 46.4168 30.6538C45.6854 30.8001 44.3687 30.8001 43.6372 30.6538C42.0279 30.215 40.565 29.0446 39.9798 27.5816C39.2483 25.9724 39.5409 23.9242 40.4187 22.4613C41.7354 20.5594 43.9298 19.8279 46.2705 20.2668ZM104.642 20.4131C106.69 20.7057 108.3 22.315 108.739 24.3631C108.885 25.0946 108.885 26.265 108.739 26.9964C108.3 28.8983 106.837 30.215 105.081 30.8001C104.496 30.9464 102.887 30.9464 102.302 30.8001C100.84 30.3612 99.6687 29.3372 98.9372 28.0205C98.4983 27.1427 98.4983 26.7038 98.4983 25.6798C98.4983 24.802 98.6446 24.3631 98.9372 23.6316C99.3761 22.7538 99.9613 21.8761 100.839 21.2909C101.716 20.4131 103.179 20.1205 104.642 20.4131ZM134.34 20.4131C136.096 20.7057 137.559 21.8761 138.145 23.4853C138.438 24.2168 138.583 24.6557 138.583 25.5335C138.583 26.5575 138.438 26.9964 138.145 27.8742C137.559 29.1909 136.242 30.215 134.779 30.6538C134.194 30.8001 132.586 30.8001 132.001 30.6538C130.245 30.215 128.781 28.752 128.342 26.8501C128.196 26.1187 128.196 24.802 128.342 24.0705C128.928 21.7298 130.977 20.1205 133.316 20.1205C133.609 20.2668 134.048 20.2668 134.34 20.4131ZM154.238 26.8501C151.458 27.1427 149.41 29.1909 148.824 31.8242C148.677 32.5557 148.677 33.8724 148.824 34.6038C149.41 36.9446 151.164 38.5538 153.505 39.139C153.798 39.139 154.383 39.2853 154.822 39.2853C156.577 39.2853 158.04 38.7001 159.212 37.5298C160.527 36.2131 160.966 34.8964 160.966 33.1409C160.966 30.9464 159.943 29.0446 158.188 28.0205C157.016 26.9964 155.408 26.7038 154.238 26.8501ZM77.1391 41.1872C75.2372 41.7724 74.3594 43.9668 75.3835 45.5761C75.6761 46.015 76.2613 46.6001 76.7002 46.7464C77.1391 46.8927 77.1391 46.8927 78.0168 46.8927C78.7483 46.8927 78.8946 46.8927 79.3335 46.7464C79.9187 46.4538 80.5039 45.8687 80.7965 45.2835C81.5279 43.8205 80.7965 42.065 79.3335 41.3335C78.8946 41.0409 78.7483 41.0409 78.1631 41.0409C77.5779 41.0409 77.4316 41.0409 77.1391 41.1872ZM69.2391 41.3335C66.752 41.7724 65.1428 43.3816 64.4113 46.015C64.265 46.4538 64.265 46.8927 64.265 47.4779V48.502H63.2409H62.2168V50.6964V52.8909H63.2409H64.265V58.1576V63.4242H67.0446H69.8242V58.1576V52.8909H71.7261H73.6279V50.6964V48.502H71.7261H69.8242V48.0631C69.9705 47.039 70.4094 46.3075 71.2872 46.1613C71.8724 46.015 72.7502 46.015 73.3354 46.3075C73.6279 46.4538 73.7742 46.4538 73.7742 46.4538C73.7742 46.4538 73.7742 45.4298 73.7742 44.1131V41.7724L73.3354 41.6261C72.7502 41.3335 72.0187 41.3335 70.9946 41.3335C70.2631 41.1872 69.6779 41.3335 69.2391 41.3335ZM91.4761 48.2094C90.3057 48.502 89.4279 49.0872 88.8428 49.8187L88.5502 50.2576V49.3798V48.502H85.7705H82.9909V55.9631V63.4242H85.7705H88.5502V59.3279C88.5502 56.9872 88.5502 55.0853 88.5502 54.7927C88.6965 54.2075 88.9891 53.6224 89.2817 53.3298C90.0131 52.7446 91.3298 52.8909 91.915 53.6224C92.3539 54.2075 92.3539 54.2076 92.3539 58.889V63.2779H95.1335H97.9131V58.3038C97.9131 53.0372 97.9131 52.452 97.6205 51.4279C97.3279 50.5501 97.0354 49.8187 96.3039 49.2335C95.7187 48.6483 95.1335 48.2094 94.2557 48.0631C93.5242 48.0631 92.0613 48.0631 91.4761 48.2094ZM105.374 48.0631C104.496 48.2094 103.179 48.6483 102.448 49.2335C100.839 50.4038 99.815 52.1594 99.3761 54.3538C99.2298 55.2316 99.2298 56.8409 99.3761 57.7187C99.6687 59.0353 100.108 60.352 100.839 61.2298C101.863 62.5464 103.179 63.4242 104.789 63.7168C105.666 63.8631 107.129 63.8631 107.861 63.5705C108.739 63.2779 109.324 62.9853 110.055 62.4001L110.64 61.815V62.5464V63.2779H113.42H116.2V55.8168V48.3557H113.42H110.64V49.0872V49.8187L110.202 49.6724C109.47 48.9409 108.446 48.3557 107.276 48.2094C106.837 48.0631 105.813 48.0631 105.374 48.0631ZM126.587 48.2094C125.563 48.3557 124.539 49.0872 123.953 49.8187L123.661 50.1113V49.2335V48.3557H120.881H118.102V55.8168V63.2779H120.881H123.661V59.0353C123.661 54.5001 123.661 54.5001 123.953 53.7687C124.246 53.1835 124.831 52.8909 125.416 52.8909C126.002 52.8909 126.294 53.0372 126.733 53.3298C127.318 53.915 127.318 53.7687 127.318 58.7427V63.1316H130.098H132.878V57.7187C132.878 52.3057 132.877 52.3057 132.731 51.7205C132.585 51.4279 132.439 50.8427 132.292 50.4038C132 49.8187 131.853 49.6724 131.414 49.2335C130.829 48.6483 130.391 48.3557 129.805 48.0631C128.781 48.0631 127.611 47.9168 126.587 48.2094ZM141.07 48.2094C138.583 48.6483 136.681 49.8187 135.511 51.8668C135.218 52.452 134.926 53.1835 134.633 53.915C134.488 54.6464 134.488 54.7927 134.488 55.9631C134.488 57.2798 134.488 57.7187 134.926 58.7427C135.803 61.2298 137.852 63.1316 140.632 63.7168C141.07 63.8631 141.509 63.8631 142.533 63.8631C143.996 63.8631 144.581 63.7168 145.605 63.2779L146.19 62.9853V60.4983V58.0112L145.753 58.3038C145.021 58.7427 144.581 58.889 143.703 58.889C142.826 58.889 142.387 58.889 141.802 58.5964C141.216 58.3038 140.777 57.865 140.485 57.2798C140.339 56.8409 140.339 56.8409 140.339 56.1094C140.339 55.5242 140.339 55.3779 140.485 54.939C140.924 53.7687 141.949 53.1835 143.411 53.0372C144.436 53.0372 144.874 53.0372 146.337 53.7687C146.337 53.7687 146.337 52.5983 146.337 51.2816V48.7946L145.898 48.6483C144.29 48.0631 142.533 47.9168 141.07 48.2094ZM153.652 48.2094C149.41 48.9409 146.776 52.5983 147.068 56.8409C147.214 58.3038 147.654 59.6205 148.385 60.6446C149.41 62.2538 151.018 63.2779 153.066 63.7168C153.945 63.8631 156.285 63.8631 157.309 63.7168C158.772 63.4242 160.089 62.6927 161.113 61.6687C161.552 61.2298 162.283 60.2057 162.283 60.2057C162.283 60.2057 161.259 59.7668 159.942 59.3279L157.602 58.4501L157.309 58.7427C156.87 59.1816 156.577 59.3279 155.992 59.4742C154.383 59.9131 152.774 59.0353 152.481 57.5724V57.2798H157.602H162.723V55.9631C162.723 55.0853 162.722 54.5001 162.576 54.2075C162.283 52.452 161.552 51.2816 160.527 50.1113C159.503 49.0872 158.333 48.502 156.725 48.2094C156.139 48.0631 154.383 48.0631 153.652 48.2094ZM75.2372 55.9631V63.4242H78.0168H80.7965V55.9631V48.502H78.0168H75.2372V55.9631ZM155.846 52.3057C156.285 52.452 156.432 52.5983 156.87 52.8909C157.163 53.1835 157.455 53.4761 157.455 53.915V54.2075H154.968C152.189 54.2075 152.335 54.2075 152.628 53.6224C153.066 52.5983 154.383 52.0131 155.846 52.3057ZM108.592 53.0372C109.325 53.1835 110.202 53.915 110.494 54.6464C111.227 56.2557 110.494 58.1575 108.739 58.7427C108.153 58.889 107.276 58.889 106.69 58.7427C105.813 58.4501 104.936 57.7187 104.789 56.8409C104.642 56.402 104.642 56.2557 104.642 55.8168C104.642 55.2316 104.642 55.0853 104.935 54.6464C105.52 53.3298 106.983 52.7446 108.592 53.0372Z" fill="white"/>
</g>
</g>
</g>
<defs>
<clipPath id="clip0_7_1485">
<rect width="173" height="64" fill="white" transform="translate(0.333496 0.663086)"/>
</clipPath>
<clipPath id="clip1_7_1485">
<rect width="173" height="64" fill="white" transform="translate(0.333496 0.663086)"/>
</clipPath>
<clipPath id="clip2_7_1485">
<rect width="173" height="64" fill="white" transform="translate(0.333496 0.663086)"/>
</clipPath>
</defs>
</svg>
