<svg width="24" height="24" viewBox="0 0 24 24" fill="none" xmlns="http://www.w3.org/2000/svg">
<g id="Social Icon" clip-path="url(#clip0_1_9442)">
<path id="Vector" fillRule="evenodd" clipRule="evenodd" d="M12 24C18.6274 24 24 18.6274 24 12C24 5.37259 18.6274 0 12 0C5.37259 0 0 5.37259 0 12C0 18.6274 5.37259 24 12 24ZM16.2958 7.83014C17.2171 7.91338 17.7361 8.47692 17.8499 9.37536C17.9294 10.0021 18 10.8999 18 11.8653C18 13.5606 17.8499 14.5408 17.8499 14.5408C17.7085 15.4356 17.276 15.9215 16.3664 16.0243C15.3501 16.1392 13.0643 16.1921 12.0486 16.1921C10.9974 16.1921 8.87148 16.148 7.81022 16.0596C6.89801 15.9836 6.27554 15.4741 6.15014 14.5673C6.05894 13.9069 6 13.122 6 11.8741C6 10.4848 6.05011 9.89695 6.16778 9.26933C6.33576 8.37367 6.76315 7.93982 7.73945 7.83895C8.76394 7.73292 9.73207 7.68 11.8985 7.68C12.9576 7.68 15.241 7.73484 16.2958 7.83014ZM10.7241 10.1729V13.6226L14.0088 11.8801L10.7241 10.1729Z" fill="white"/>
</g>
<defs>
<clipPath id="clip0_1_9442">
<rect width="24" height="24" fill="white"/>
</clipPath>
</defs>
</svg>
