<svg xmlns="http://www.w3.org/2000/svg" width="29" height="34" viewBox="0 0 29 34" fill="none"><path d="M14.0393 13.421L18.5029 12.6045L18.555 19.7616L9.62025 21.3961L9.57446 14.2362" fill="#5B1CD4"></path><path d="M9.58502 15.8868C9.5815 15.3367 9.57798 14.7865 9.57446 14.2364C10.6942 14.0319 11.814 13.8275 12.9337 13.623C13.002 13.7226 14.555 16.0754 13.3507 18.613C12.255 20.9217 9.83685 21.3608 9.62025 21.3963C9.60851 19.5598 9.59676 17.7233 9.58502 15.8868Z" fill="#5B1CD4"></path><path d="M18.5446 18.111C18.5771 18.6995 18.6183 19.2769 18.6671 19.8431C17.4891 20.0246 16.311 20.206 15.133 20.3874C14.9166 19.8208 14.4648 18.4 14.903 16.7085C15.6264 13.9158 18.1619 12.7538 18.5093 12.6016C18.436 14.3331 18.4375 16.174 18.5446 18.111Z" fill="#5B1CD4"></path><path d="M27.0543 12.0871C26.0279 11.1971 24.7229 11.4589 24.5131 11.5047C22.5098 11.8711 20.5064 12.2376 18.503 12.6041C16.9322 13.5106 16.0873 15.2404 16.3759 16.8971C16.7175 18.8576 18.4785 19.7511 18.6671 19.8429C18.6242 19.2665 18.5812 18.69 18.5382 18.1135C19.6767 19.0741 20.8152 20.0347 21.9537 20.9953C20.7974 22.4099 19.641 23.8244 18.4846 25.2389L18.4731 23.4366C13.529 24.341 8.58483 25.2454 3.6407 26.1498C3.41093 26.1957 2.07505 26.4851 1.07366 27.8075C0.19464 28.9682 0.16277 30.1466 0.162659 30.4314C0.170267 31.6209 0.177874 32.8104 0.185482 33.9999C12.9505 31.8366 22.3281 29.8724 24.663 29.5222C25.1853 29.4439 26.2208 29.119 27.0333 28.1907C27.9361 27.1592 28.0755 25.8752 28.0994 25.2654C28.0764 21.6621 28.0533 18.0587 28.0303 14.4553C28.0352 14.2302 28.0429 12.9443 27.0543 12.0871Z" fill="#5B1CD4"></path><path d="M1.06911 21.9128C2.09553 22.8028 3.40051 22.541 3.61029 22.4952C5.61366 22.1287 7.61703 21.7623 9.6204 21.3958C11.0252 20.6737 11.8862 19.2068 11.8187 17.6526C11.7557 16.2012 10.8923 14.8897 9.57461 14.2359C9.57813 14.7861 9.58165 15.3362 9.58516 15.8864C8.44667 14.9257 7.30818 13.9651 6.16969 13.0045C7.32606 11.59 8.48242 10.1755 9.63878 8.76093L9.65031 10.5633C14.5944 9.6589 19.5386 8.75447 24.4827 7.85005C24.7125 7.80421 26.0484 7.51475 27.0498 6.1924C27.9288 5.03163 27.9606 3.85333 27.9608 3.56852C27.9531 2.37901 27.9455 1.1895 27.9379 0C15.173 2.16329 5.7953 4.12744 3.46039 4.47764C2.93808 4.55598 1.90262 4.88088 1.09011 5.80922C0.187361 6.84066 0.047939 8.12463 0.0239868 8.73444C0.0470301 12.3378 0.0700825 15.9412 0.0931258 19.5445C0.0881693 19.7696 0.0805494 21.0556 1.06911 21.9128Z" fill="#5B1CD4"></path><path d="M6.1695 13.0049L0.0298739 19.1445C-0.123421 20.2633 0.320565 21.3663 1.19342 22.0088C2.23867 22.7782 3.423 22.5369 3.6101 22.4956C5.61347 22.1291 7.61684 21.7626 9.62021 21.3961C11.025 20.6741 11.886 19.2071 11.8186 17.6529C11.7555 16.2015 10.8921 14.89 9.57442 14.2363C9.57794 14.7864 9.58146 15.3366 9.58497 15.8867C8.44648 14.9261 7.30799 13.9655 6.1695 13.0049Z" fill="#5B1CD4"></path><path d="M18.4846 25.2389L13.5235 31.6126L0.185482 33.9999L0.162659 30.4313C0.165927 30.0927 0.217422 28.5427 1.44542 27.3208C2.27659 26.4937 3.22548 26.2361 3.6407 26.1498C8.58483 25.2454 13.529 24.3409 18.4731 23.4365C18.4769 24.0373 18.4808 24.6381 18.4846 25.2389Z" fill="#5B1CD4"></path></svg>